solid ascii
  facet normal 0.000000e+000 0.000000e+000 -1.000000e+000
    outer loop
      vertex   2.812710e+001 9.342529e+001 0.000000e+000
      vertex   3.625000e+001 8.700000e+001 0.000000e+000
      vertex   2.668412e+001 8.922203e+001 0.000000e+000
    endloop
  endfacet
  facet normal 0.000000e+000 -1.000000e+000 0.000000e+000
    outer loop
      vertex   4.000000e+001 5.100000e+001 1.500000e+000
      vertex   3.700000e+001 5.100000e+001 3.000000e+000
      vertex   3.700000e+001 5.100000e+001 -0.000000e+000
    endloop
  endfacet
  facet normal 0.000000e+000 -1.000000e+000 0.000000e+000
    outer loop
      vertex   4.000000e+001 5.100000e+001 1.500000e+000
      vertex   3.700000e+001 5.100000e+001 -0.000000e+000
      vertex   4.300000e+001 5.100000e+001 -0.000000e+000
    endloop
  endfacet
  facet normal 0.000000e+000 -1.000000e+000 0.000000e+000
    outer loop
      vertex   4.000000e+001 5.100000e+001 1.500000e+000
      vertex   4.300000e+001 5.100000e+001 -0.000000e+000
      vertex   4.300000e+001 5.100000e+001 3.000000e+000
    endloop
  endfacet
  facet normal 6.772822e-001 7.357234e-001 -1.821500e-006
    outer loop
      vertex   4.901860e+001 9.679681e+001 2.250000e+000
      vertex   5.065340e+001 9.529187e+001 0.000000e+000
      vertex   4.738380e+001 9.830175e+001 0.000000e+000
    endloop
  endfacet
  facet normal -1.000000e+000 0.000000e+000 -0.000000e+000
    outer loop
      vertex   4.300000e+001 7.737500e+001 1.500000e+000
      vertex   4.300000e+001 8.475000e+001 3.000000e+000
      vertex   4.300000e+001 8.475000e+001 0.000000e+000
    endloop
  endfacet
  facet normal -1.000000e+000 -0.000000e+000 0.000000e+000
    outer loop
      vertex   4.300000e+001 7.737500e+001 1.500000e+000
      vertex   4.300000e+001 8.475000e+001 0.000000e+000
      vertex   4.300000e+001 7.000000e+001 -0.000000e+000
    endloop
  endfacet
  facet normal -1.000000e+000 0.000000e+000 0.000000e+000
    outer loop
      vertex   4.300000e+001 7.737500e+001 1.500000e+000
      vertex   4.300000e+001 7.000000e+001 -0.000000e+000
      vertex   4.300000e+001 7.000000e+001 3.000000e+000
    endloop
  endfacet
  facet normal 6.772808e-001 7.357246e-001 -0.000000e+000
    outer loop
      vertex   4.901860e+001 9.679681e+001 2.250000e+000
      vertex   4.738380e+001 9.830175e+001 0.000000e+000
      vertex   4.738380e+001 9.830175e+001 4.500000e+000
    endloop
  endfacet
  facet normal 1.000000e+000 0.000000e+000 0.000000e+000
    outer loop
      vertex   3.700000e+001 4.362500e+001 1.500000e+000
      vertex   3.700000e+001 3.625000e+001 3.000000e+000
      vertex   3.700000e+001 3.625000e+001 0.000000e+000
    endloop
  endfacet
  facet normal 1.000000e+000 -0.000000e+000 0.000000e+000
    outer loop
      vertex   3.700000e+001 4.362500e+001 1.500000e+000
      vertex   3.700000e+001 3.625000e+001 0.000000e+000
      vertex   3.700000e+001 5.100000e+001 -0.000000e+000
    endloop
  endfacet
  facet normal 1.000000e+000 0.000000e+000 -0.000000e+000
    outer loop
      vertex   3.700000e+001 4.362500e+001 1.500000e+000
      vertex   3.700000e+001 5.100000e+001 -0.000000e+000
      vertex   3.700000e+001 5.100000e+001 3.000000e+000
    endloop
  endfacet
  facet normal 6.772835e-001 7.357221e-001 0.000000e+000
    outer loop
      vertex   4.901860e+001 9.679681e+001 2.250000e+000
      vertex   5.065340e+001 9.529187e+001 4.500000e+000
      vertex   5.065340e+001 9.529187e+001 0.000000e+000
    endloop
  endfacet
  facet normal -1.000000e+000 0.000000e+000 -0.000000e+000
    outer loop
      vertex   4.300000e+001 4.362500e+001 1.500000e+000
      vertex   4.300000e+001 5.100000e+001 3.000000e+000
      vertex   4.300000e+001 5.100000e+001 -0.000000e+000
    endloop
  endfacet
  facet normal -1.000000e+000 0.000000e+000 0.000000e+000
    outer loop
      vertex   4.300000e+001 4.362500e+001 1.500000e+000
      vertex   4.300000e+001 5.100000e+001 -0.000000e+000
      vertex   4.300000e+001 3.625000e+001 -0.000000e+000
    endloop
  endfacet
  facet normal -1.000000e+000 0.000000e+000 0.000000e+000
    outer loop
      vertex   4.300000e+001 4.362500e+001 1.500000e+000
      vertex   4.300000e+001 3.625000e+001 -0.000000e+000
      vertex   4.300000e+001 3.625000e+001 3.000000e+000
    endloop
  endfacet
  facet normal 4.016953e-001 9.157734e-001 -0.000000e+000
    outer loop
      vertex   4.534893e+001 9.919433e+001 2.250000e+000
      vertex   4.331405e+001 1.000869e+002 0.000000e+000
      vertex   4.331405e+001 1.000869e+002 4.500000e+000
    endloop
  endfacet
  facet normal 0.000000e+000 1.000000e+000 0.000000e+000
    outer loop
      vertex   4.000000e+001 7.000000e+001 1.500000e+000
      vertex   4.300000e+001 7.000000e+001 3.000000e+000
      vertex   4.300000e+001 7.000000e+001 -0.000000e+000
    endloop
  endfacet
  facet normal 0.000000e+000 1.000000e+000 0.000000e+000
    outer loop
      vertex   4.000000e+001 7.000000e+001 1.500000e+000
      vertex   4.300000e+001 7.000000e+001 -0.000000e+000
      vertex   3.700000e+001 7.000000e+001 0.000000e+000
    endloop
  endfacet
  facet normal 0.000000e+000 1.000000e+000 0.000000e+000
    outer loop
      vertex   4.000000e+001 7.000000e+001 1.500000e+000
      vertex   3.700000e+001 7.000000e+001 0.000000e+000
      vertex   3.700000e+001 7.000000e+001 3.000000e+000
    endloop
  endfacet
  facet normal 9.964149e-001 -8.460128e-002 8.446714e-007
    outer loop
      vertex   5.115337e+001 5.936198e+001 2.250000e+000
      vertex   4.900000e+001 3.400000e+001 0.000000e+000
      vertex   5.330675e+001 8.472395e+001 0.000000e+000
    endloop
  endfacet
  facet normal 9.964149e-001 -8.460135e-002 0.000000e+000
    outer loop
      vertex   5.115337e+001 5.936198e+001 2.250000e+000
      vertex   5.330675e+001 8.472395e+001 0.000000e+000
      vertex   5.330675e+001 8.472395e+001 4.500000e+000
    endloop
  endfacet
  facet normal 8.257811e-002 9.965846e-001 -1.759633e-006
    outer loop
      vertex   4.109962e+001 1.002704e+002 2.250000e+000
      vertex   4.331405e+001 1.000869e+002 0.000000e+000
      vertex   3.888518e+001 1.004539e+002 0.000000e+000
    endloop
  endfacet
  facet normal 9.964149e-001 -8.460120e-002 0.000000e+000
    outer loop
      vertex   5.115337e+001 5.936198e+001 2.250000e+000
      vertex   4.900000e+001 3.400000e+001 4.500000e+000
      vertex   4.900000e+001 3.400000e+001 0.000000e+000
    endloop
  endfacet
  facet normal 8.257633e-002 9.965848e-001 -0.000000e+000
    outer loop
      vertex   4.109962e+001 1.002704e+002 2.250000e+000
      vertex   3.888518e+001 1.004539e+002 0.000000e+000
      vertex   3.888518e+001 1.004539e+002 4.500000e+000
    endloop
  endfacet
  facet normal 1.000000e+000 0.000000e+000 0.000000e+000
    outer loop
      vertex   3.700000e+001 7.737500e+001 1.500000e+000
      vertex   3.700000e+001 7.000000e+001 3.000000e+000
      vertex   3.700000e+001 7.000000e+001 0.000000e+000
    endloop
  endfacet
  facet normal 1.000000e+000 0.000000e+000 0.000000e+000
    outer loop
      vertex   3.700000e+001 7.737500e+001 1.500000e+000
      vertex   3.700000e+001 7.000000e+001 0.000000e+000
      vertex   3.700000e+001 8.475000e+001 0.000000e+000
    endloop
  endfacet
  facet normal 1.000000e+000 0.000000e+000 -0.000000e+000
    outer loop
      vertex   3.700000e+001 7.737500e+001 1.500000e+000
      vertex   3.700000e+001 8.475000e+001 0.000000e+000
      vertex   3.700000e+001 8.475000e+001 3.000000e+000
    endloop
  endfacet
  facet normal -9.964149e-001 -8.460128e-002 0.000000e+000
    outer loop
      vertex   2.884662e+001 5.936198e+001 2.250000e+000
      vertex   2.669325e+001 8.472395e+001 0.000000e+000
      vertex   3.100000e+001 3.400000e+001 0.000000e+000
    endloop
  endfacet
  facet normal -9.964149e-001 -8.460128e-002 0.000000e+000
    outer loop
      vertex   2.884662e+001 5.936198e+001 2.250000e+000
      vertex   3.100000e+001 3.400000e+001 0.000000e+000
      vertex   3.100000e+001 3.400000e+001 4.500000e+000
    endloop
  endfacet
  facet normal -2.454853e-001 9.694003e-001 -1.643542e-006
    outer loop
      vertex   3.673114e+001 9.990842e+001 2.250000e+000
      vertex   3.888518e+001 1.004539e+002 0.000000e+000
      vertex   3.457711e+001 9.936294e+001 0.000000e+000
    endloop
  endfacet
  facet normal -9.964149e-001 -8.460128e-002 -0.000000e+000
    outer loop
      vertex   2.884662e+001 5.936198e+001 2.250000e+000
      vertex   2.669325e+001 8.472395e+001 4.500000e+000
      vertex   2.669325e+001 8.472395e+001 0.000000e+000
    endloop
  endfacet
  facet normal -2.454869e-001 9.693999e-001 0.000000e+000
    outer loop
      vertex   3.673114e+001 9.990842e+001 2.250000e+000
      vertex   3.457711e+001 9.936294e+001 0.000000e+000
      vertex   3.457711e+001 9.936294e+001 4.500000e+000
    endloop
  endfacet
  facet normal -9.807853e-001 -1.950902e-001 -0.000000e+000
    outer loop
      vertex   4.360728e+001 8.771753e+001 2.250000e+000
      vertex   4.346455e+001 8.843507e+001 4.500000e+000
      vertex   4.346455e+001 8.843507e+001 0.000000e+000
    endloop
  endfacet
  facet normal -9.807856e-001 -1.950887e-001 5.006647e-007
    outer loop
      vertex   4.360728e+001 8.771753e+001 2.250000e+000
      vertex   4.346455e+001 8.843507e+001 0.000000e+000
      vertex   4.375000e+001 8.700000e+001 0.000000e+000
    endloop
  endfacet
  facet normal -9.807858e-001 -1.950872e-001 0.000000e+000
    outer loop
      vertex   4.360728e+001 8.771753e+001 2.250000e+000
      vertex   4.375000e+001 8.700000e+001 0.000000e+000
      vertex   4.375000e+001 8.700000e+001 4.500000e+000
    endloop
  endfacet
  facet normal -2.454837e-001 9.694008e-001 0.000000e+000
    outer loop
      vertex   3.673114e+001 9.990842e+001 2.250000e+000
      vertex   3.888518e+001 1.004539e+002 4.500000e+000
      vertex   3.888518e+001 1.004539e+002 0.000000e+000
    endloop
  endfacet
  facet normal -8.314691e-001 -5.555711e-001 -0.000000e+000
    outer loop
      vertex   4.305810e+001 8.904336e+001 2.250000e+000
      vertex   4.265165e+001 8.965165e+001 4.500000e+000
      vertex   4.265165e+001 8.965165e+001 0.000000e+000
    endloop
  endfacet
  facet normal -8.314679e-001 -5.555729e-001 -7.048440e-007
    outer loop
      vertex   4.305810e+001 8.904336e+001 2.250000e+000
      vertex   4.265165e+001 8.965165e+001 0.000000e+000
      vertex   4.346455e+001 8.843507e+001 0.000000e+000
    endloop
  endfacet
  facet normal -8.314666e-001 -5.555747e-001 0.000000e+000
    outer loop
      vertex   4.305810e+001 8.904336e+001 2.250000e+000
      vertex   4.346455e+001 8.843507e+001 0.000000e+000
      vertex   4.346455e+001 8.843507e+001 4.500000e+000
    endloop
  endfacet
  facet normal -5.469480e-001 8.371665e-001 0.000000e+000
    outer loop
      vertex   3.271690e+001 9.814761e+001 2.250000e+000
      vertex   3.085670e+001 9.693227e+001 0.000000e+000
      vertex   3.085670e+001 9.693227e+001 4.500000e+000
    endloop
  endfacet
  facet normal -5.555686e-001 -8.314707e-001 -0.000000e+000
    outer loop
      vertex   4.204336e+001 9.005810e+001 2.250000e+000
      vertex   4.143506e+001 9.046455e+001 4.500000e+000
      vertex   4.143506e+001 9.046455e+001 0.000000e+000
    endloop
  endfacet
  facet normal -5.555699e-001 -8.314698e-001 4.709624e-007
    outer loop
      vertex   4.204336e+001 9.005810e+001 2.250000e+000
      vertex   4.143506e+001 9.046455e+001 0.000000e+000
      vertex   4.265165e+001 8.965165e+001 0.000000e+000
    endloop
  endfacet
  facet normal -5.555711e-001 -8.314691e-001 0.000000e+000
    outer loop
      vertex   4.204336e+001 9.005810e+001 2.250000e+000
      vertex   4.265165e+001 8.965165e+001 0.000000e+000
      vertex   4.265165e+001 8.965165e+001 4.500000e+000
    endloop
  endfacet
  facet normal -5.469477e-001 8.371668e-001 0.000000e+000
    outer loop
      vertex   3.271690e+001 9.814761e+001 2.250000e+000
      vertex   3.457711e+001 9.936294e+001 4.500000e+000
      vertex   3.457711e+001 9.936294e+001 0.000000e+000
    endloop
  endfacet
  facet normal -1.950972e-001 -9.807839e-001 -0.000000e+000
    outer loop
      vertex   4.071753e+001 9.060727e+001 2.250000e+000
      vertex   4.000000e+001 9.075000e+001 4.500000e+000
      vertex   4.000000e+001 9.075000e+001 0.000000e+000
    endloop
  endfacet
  facet normal -1.950917e-001 -9.807850e-001 -1.828225e-006
    outer loop
      vertex   4.071753e+001 9.060727e+001 2.250000e+000
      vertex   4.000000e+001 9.075000e+001 0.000000e+000
      vertex   4.143506e+001 9.046455e+001 0.000000e+000
    endloop
  endfacet
  facet normal -1.950862e-001 -9.807861e-001 0.000000e+000
    outer loop
      vertex   4.071753e+001 9.060727e+001 2.250000e+000
      vertex   4.143506e+001 9.046455e+001 0.000000e+000
      vertex   4.143506e+001 9.046455e+001 4.500000e+000
    endloop
  endfacet
  facet normal -7.891409e-001 6.142122e-001 0.000000e+000
    outer loop
      vertex   2.949190e+001 9.517879e+001 2.250000e+000
      vertex   2.812710e+001 9.342529e+001 0.000000e+000
      vertex   2.812710e+001 9.342529e+001 4.500000e+000
    endloop
  endfacet
  facet normal 1.950862e-001 -9.807861e-001 0.000000e+000
    outer loop
      vertex   3.928247e+001 9.060727e+001 2.250000e+000
      vertex   3.856494e+001 9.046455e+001 4.500000e+000
      vertex   3.856494e+001 9.046455e+001 0.000000e+000
    endloop
  endfacet
  facet normal 1.950917e-001 -9.807850e-001 -1.828225e-006
    outer loop
      vertex   3.928247e+001 9.060727e+001 2.250000e+000
      vertex   3.856494e+001 9.046455e+001 0.000000e+000
      vertex   4.000000e+001 9.075000e+001 0.000000e+000
    endloop
  endfacet
  facet normal 1.950972e-001 -9.807839e-001 0.000000e+000
    outer loop
      vertex   3.928247e+001 9.060727e+001 2.250000e+000
      vertex   4.000000e+001 9.075000e+001 0.000000e+000
      vertex   4.000000e+001 9.075000e+001 4.500000e+000
    endloop
  endfacet
  facet normal -7.891396e-001 6.142139e-001 0.000000e+000
    outer loop
      vertex   2.949190e+001 9.517879e+001 2.250000e+000
      vertex   3.085670e+001 9.693227e+001 4.500000e+000
      vertex   3.085670e+001 9.693227e+001 0.000000e+000
    endloop
  endfacet
  facet normal 5.555711e-001 -8.314691e-001 0.000000e+000
    outer loop
      vertex   3.795664e+001 9.005810e+001 2.250000e+000
      vertex   3.734835e+001 8.965165e+001 4.500000e+000
      vertex   3.734835e+001 8.965165e+001 0.000000e+000
    endloop
  endfacet
  facet normal 5.555699e-001 -8.314698e-001 4.709624e-007
    outer loop
      vertex   3.795664e+001 9.005810e+001 2.250000e+000
      vertex   3.734835e+001 8.965165e+001 0.000000e+000
      vertex   3.856494e+001 9.046455e+001 0.000000e+000
    endloop
  endfacet
  facet normal 5.555686e-001 -8.314707e-001 0.000000e+000
    outer loop
      vertex   3.795664e+001 9.005810e+001 2.250000e+000
      vertex   3.856494e+001 9.046455e+001 0.000000e+000
      vertex   3.856494e+001 9.046455e+001 4.500000e+000
    endloop
  endfacet
  facet normal -9.458172e-001 3.246994e-001 0.000000e+000
    outer loop
      vertex   2.740561e+001 9.132366e+001 2.250000e+000
      vertex   2.668412e+001 8.922203e+001 0.000000e+000
      vertex   2.668412e+001 8.922203e+001 4.500000e+000
    endloop
  endfacet
  facet normal 8.314666e-001 -5.555747e-001 0.000000e+000
    outer loop
      vertex   3.694190e+001 8.904336e+001 2.250000e+000
      vertex   3.653545e+001 8.843507e+001 4.500000e+000
      vertex   3.653545e+001 8.843507e+001 0.000000e+000
    endloop
  endfacet
  facet normal 8.314679e-001 -5.555729e-001 -7.048440e-007
    outer loop
      vertex   3.694190e+001 8.904336e+001 2.250000e+000
      vertex   3.653545e+001 8.843507e+001 0.000000e+000
      vertex   3.734835e+001 8.965165e+001 0.000000e+000
    endloop
  endfacet
  facet normal 8.314691e-001 -5.555711e-001 0.000000e+000
    outer loop
      vertex   3.694190e+001 8.904336e+001 2.250000e+000
      vertex   3.734835e+001 8.965165e+001 0.000000e+000
      vertex   3.734835e+001 8.965165e+001 4.500000e+000
    endloop
  endfacet
  facet normal -9.458172e-001 3.246994e-001 0.000000e+000
    outer loop
      vertex   2.740561e+001 9.132366e+001 2.250000e+000
      vertex   2.812710e+001 9.342529e+001 4.500000e+000
      vertex   2.812710e+001 9.342529e+001 0.000000e+000
    endloop
  endfacet
  facet normal 9.807858e-001 -1.950872e-001 0.000000e+000
    outer loop
      vertex   3.639272e+001 8.771753e+001 2.250000e+000
      vertex   3.625000e+001 8.700000e+001 4.500000e+000
      vertex   3.625000e+001 8.700000e+001 0.000000e+000
    endloop
  endfacet
  facet normal 9.807856e-001 -1.950887e-001 5.006647e-007
    outer loop
      vertex   3.639272e+001 8.771753e+001 2.250000e+000
      vertex   3.625000e+001 8.700000e+001 0.000000e+000
      vertex   3.653545e+001 8.843507e+001 0.000000e+000
    endloop
  endfacet
  facet normal 9.807853e-001 -1.950902e-001 0.000000e+000
    outer loop
      vertex   3.639272e+001 8.771753e+001 2.250000e+000
      vertex   3.653545e+001 8.843507e+001 0.000000e+000
      vertex   3.653545e+001 8.843507e+001 4.500000e+000
    endloop
  endfacet
  facet normal -1.000000e+000 0.000000e+000 0.000000e+000
    outer loop
      vertex   2.668412e+001 8.700000e+001 2.250000e+000
      vertex   2.668412e+001 8.477797e+001 0.000000e+000
      vertex   2.668412e+001 8.477797e+001 4.500000e+000
    endloop
  endfacet
  facet normal 9.807853e-001 1.950902e-001 0.000000e+000
    outer loop
      vertex   3.639272e+001 8.628247e+001 2.250000e+000
      vertex   3.653545e+001 8.556493e+001 4.500000e+000
      vertex   3.653545e+001 8.556493e+001 0.000000e+000
    endloop
  endfacet
  facet normal 9.807856e-001 1.950887e-001 5.006647e-007
    outer loop
      vertex   3.639272e+001 8.628247e+001 2.250000e+000
      vertex   3.653545e+001 8.556493e+001 0.000000e+000
      vertex   3.625000e+001 8.700000e+001 0.000000e+000
    endloop
  endfacet
  facet normal 9.807858e-001 1.950872e-001 -0.000000e+000
    outer loop
      vertex   3.639272e+001 8.628247e+001 2.250000e+000
      vertex   3.625000e+001 8.700000e+001 0.000000e+000
      vertex   3.625000e+001 8.700000e+001 4.500000e+000
    endloop
  endfacet
  facet normal 0.000000e+000 0.000000e+000 -1.000000e+000
    outer loop
      vertex   4.738380e+001 9.830175e+001 0.000000e+000
      vertex   5.065340e+001 9.529187e+001 0.000000e+000
      vertex   4.331405e+001 1.000869e+002 0.000000e+000
    endloop
  endfacet
  facet normal 0.000000e+000 0.000000e+000 -1.000000e+000
    outer loop
      vertex   4.000000e+001 2.500000e+001 0.000000e+000
      vertex   3.655585e+001 2.568508e+001 0.000000e+000
      vertex   3.168508e+001 3.055585e+001 0.000000e+000
    endloop
  endfacet
  facet normal 0.000000e+000 0.000000e+000 -1.000000e+000
    outer loop
      vertex   3.100000e+001 3.400000e+001 0.000000e+000
      vertex   4.000000e+001 2.500000e+001 0.000000e+000
      vertex   3.168508e+001 3.055585e+001 0.000000e+000
    endloop
  endfacet
  facet normal 0.000000e+000 0.000000e+000 -1.000000e+000
    outer loop
      vertex   4.344415e+001 2.568508e+001 0.000000e+000
      vertex   4.000000e+001 2.500000e+001 0.000000e+000
      vertex   3.100000e+001 3.400000e+001 0.000000e+000
    endloop
  endfacet
  facet normal 0.000000e+000 0.000000e+000 -1.000000e+000
    outer loop
      vertex   5.065340e+001 9.529187e+001 0.000000e+000
      vertex   5.276853e+001 9.138345e+001 0.000000e+000
      vertex   4.331405e+001 1.000869e+002 0.000000e+000
    endloop
  endfacet
  facet normal 0.000000e+000 0.000000e+000 -1.000000e+000
    outer loop
      vertex   3.734835e+001 3.134835e+001 0.000000e+000
      vertex   4.344415e+001 2.568508e+001 0.000000e+000
      vertex   3.100000e+001 3.400000e+001 0.000000e+000
    endloop
  endfacet
  facet normal 0.000000e+000 0.000000e+000 -1.000000e+000
    outer loop
      vertex   3.856494e+001 3.053545e+001 0.000000e+000
      vertex   4.344415e+001 2.568508e+001 0.000000e+000
      vertex   3.734835e+001 3.134835e+001 0.000000e+000
    endloop
  endfacet
  facet normal 0.000000e+000 0.000000e+000 -1.000000e+000
    outer loop
      vertex   3.653545e+001 3.256494e+001 0.000000e+000
      vertex   3.734835e+001 3.134835e+001 0.000000e+000
      vertex   3.100000e+001 3.400000e+001 0.000000e+000
    endloop
  endfacet
  facet normal 0.000000e+000 0.000000e+000 -1.000000e+000
    outer loop
      vertex   4.331405e+001 1.000869e+002 0.000000e+000
      vertex   5.276853e+001 9.138345e+001 0.000000e+000
      vertex   3.888518e+001 1.004539e+002 0.000000e+000
    endloop
  endfacet
  facet normal 0.000000e+000 0.000000e+000 -1.000000e+000
    outer loop
      vertex   4.000000e+001 3.025000e+001 0.000000e+000
      vertex   4.344415e+001 2.568508e+001 0.000000e+000
      vertex   3.856494e+001 3.053545e+001 0.000000e+000
    endloop
  endfacet
  facet normal 0.000000e+000 0.000000e+000 -1.000000e+000
    outer loop
      vertex   3.625000e+001 3.400000e+001 0.000000e+000
      vertex   3.653545e+001 3.256494e+001 0.000000e+000
      vertex   3.100000e+001 3.400000e+001 0.000000e+000
    endloop
  endfacet
  facet normal 0.000000e+000 0.000000e+000 -1.000000e+000
    outer loop
      vertex   4.143506e+001 3.053545e+001 0.000000e+000
      vertex   4.344415e+001 2.568508e+001 0.000000e+000
      vertex   4.000000e+001 3.025000e+001 0.000000e+000
    endloop
  endfacet
  facet normal 0.000000e+000 0.000000e+000 -1.000000e+000
    outer loop
      vertex   5.276853e+001 9.138345e+001 0.000000e+000
      vertex   5.350000e+001 8.700000e+001 0.000000e+000
      vertex   3.888518e+001 1.004539e+002 0.000000e+000
    endloop
  endfacet
  facet normal 0.000000e+000 0.000000e+000 -1.000000e+000
    outer loop
      vertex   4.636396e+001 2.763604e+001 0.000000e+000
      vertex   4.344415e+001 2.568508e+001 0.000000e+000
      vertex   4.143506e+001 3.053545e+001 0.000000e+000
    endloop
  endfacet
  facet normal 0.000000e+000 0.000000e+000 -1.000000e+000
    outer loop
      vertex   3.653545e+001 3.543506e+001 0.000000e+000
      vertex   3.625000e+001 3.400000e+001 0.000000e+000
      vertex   3.100000e+001 3.400000e+001 0.000000e+000
    endloop
  endfacet
  facet normal 0.000000e+000 0.000000e+000 -1.000000e+000
    outer loop
      vertex   4.265165e+001 3.134835e+001 0.000000e+000
      vertex   4.636396e+001 2.763604e+001 0.000000e+000
      vertex   4.143506e+001 3.053545e+001 0.000000e+000
    endloop
  endfacet
  facet normal 9.964148e-001 -8.460271e-002 0.000000e+000
    outer loop
      vertex   5.340337e+001 8.586198e+001 2.250000e+000
      vertex   5.350000e+001 8.700000e+001 0.000000e+000
      vertex   5.350000e+001 8.700000e+001 4.500000e+000
    endloop
  endfacet
  facet normal -9.807858e-001 1.950872e-001 0.000000e+000
    outer loop
      vertex   4.360728e+001 8.628247e+001 2.250000e+000
      vertex   4.375000e+001 8.700000e+001 4.500000e+000
      vertex   4.375000e+001 8.700000e+001 0.000000e+000
    endloop
  endfacet
  facet normal -9.807856e-001 1.950887e-001 5.006647e-007
    outer loop
      vertex   4.360728e+001 8.628247e+001 2.250000e+000
      vertex   4.375000e+001 8.700000e+001 0.000000e+000
      vertex   4.346455e+001 8.556493e+001 0.000000e+000
    endloop
  endfacet
  facet normal -9.807853e-001 1.950902e-001 0.000000e+000
    outer loop
      vertex   4.360728e+001 8.628247e+001 2.250000e+000
      vertex   4.346455e+001 8.556493e+001 0.000000e+000
      vertex   4.346455e+001 8.556493e+001 4.500000e+000
    endloop
  endfacet
  facet normal -9.807853e-001 -1.950901e-001 -4.984010e-007
    outer loop
      vertex   3.134254e+001 3.227792e+001 2.250000e+000
      vertex   3.100000e+001 3.400000e+001 0.000000e+000
      vertex   3.168508e+001 3.055585e+001 0.000000e+000
    endloop
  endfacet
  facet normal -9.807852e-001 -1.950907e-001 0.000000e+000
    outer loop
      vertex   3.134254e+001 3.227792e+001 2.250000e+000
      vertex   3.168508e+001 3.055585e+001 0.000000e+000
      vertex   3.168508e+001 3.055585e+001 4.500000e+000
    endloop
  endfacet
  facet normal -9.807855e-001 -1.950892e-001 6.660430e-007
    outer loop
      vertex   4.360728e+001 3.471753e+001 2.250000e+000
      vertex   4.346455e+001 3.543506e+001 0.000000e+000
      vertex   4.375000e+001 3.400000e+001 0.000000e+000
    endloop
  endfacet
  facet normal -9.807854e-001 -1.950895e-001 -0.000000e+000
    outer loop
      vertex   3.134254e+001 3.227792e+001 2.250000e+000
      vertex   3.100000e+001 3.400000e+001 4.500000e+000
      vertex   3.100000e+001 3.400000e+001 0.000000e+000
    endloop
  endfacet
  facet normal -8.314694e-001 -5.555707e-001 -5.879042e-007
    outer loop
      vertex   3.266056e+001 2.909594e+001 2.250000e+000
      vertex   3.168508e+001 3.055585e+001 0.000000e+000
      vertex   3.363604e+001 2.763604e+001 0.000000e+000
    endloop
  endfacet
  facet normal -8.314689e-001 -5.555713e-001 0.000000e+000
    outer loop
      vertex   3.266056e+001 2.909594e+001 2.250000e+000
      vertex   3.363604e+001 2.763604e+001 0.000000e+000
      vertex   3.363604e+001 2.763604e+001 4.500000e+000
    endloop
  endfacet
  facet normal 0.000000e+000 0.000000e+000 -1.000000e+000
    outer loop
      vertex   3.888518e+001 1.004539e+002 0.000000e+000
      vertex   5.350000e+001 8.700000e+001 0.000000e+000
      vertex   3.457711e+001 9.936294e+001 0.000000e+000
    endloop
  endfacet
  facet normal -8.314698e-001 -5.555700e-001 -0.000000e+000
    outer loop
      vertex   3.266056e+001 2.909594e+001 2.250000e+000
      vertex   3.168508e+001 3.055585e+001 4.500000e+000
      vertex   3.168508e+001 3.055585e+001 0.000000e+000
    endloop
  endfacet
  facet normal -5.555704e-001 -8.314695e-001 1.185402e-007
    outer loop
      vertex   3.509595e+001 2.666056e+001 2.250000e+000
      vertex   3.363604e+001 2.763604e+001 0.000000e+000
      vertex   3.655585e+001 2.568508e+001 0.000000e+000
    endloop
  endfacet
  facet normal -5.555705e-001 -8.314694e-001 0.000000e+000
    outer loop
      vertex   3.509595e+001 2.666056e+001 2.250000e+000
      vertex   3.655585e+001 2.568508e+001 0.000000e+000
      vertex   3.655585e+001 2.568508e+001 4.500000e+000
    endloop
  endfacet
  facet normal 0.000000e+000 0.000000e+000 -1.000000e+000
    outer loop
      vertex   4.346455e+001 3.256494e+001 0.000000e+000
      vertex   4.636396e+001 2.763604e+001 0.000000e+000
      vertex   4.265165e+001 3.134835e+001 0.000000e+000
    endloop
  endfacet
  facet normal -5.555702e-001 -8.314696e-001 -0.000000e+000
    outer loop
      vertex   3.509595e+001 2.666056e+001 2.250000e+000
      vertex   3.363604e+001 2.763604e+001 4.500000e+000
      vertex   3.363604e+001 2.763604e+001 0.000000e+000
    endloop
  endfacet
  facet normal -1.950902e-001 -9.807853e-001 -5.810910e-007
    outer loop
      vertex   3.827792e+001 2.534254e+001 2.250000e+000
      vertex   3.655585e+001 2.568508e+001 0.000000e+000
      vertex   4.000000e+001 2.500000e+001 0.000000e+000
    endloop
  endfacet
  facet normal -1.950895e-001 -9.807854e-001 0.000000e+000
    outer loop
      vertex   3.827792e+001 2.534254e+001 2.250000e+000
      vertex   4.000000e+001 2.500000e+001 0.000000e+000
      vertex   4.000000e+001 2.500000e+001 4.500000e+000
    endloop
  endfacet
  facet normal 0.000000e+000 0.000000e+000 -1.000000e+000
    outer loop
      vertex   5.350000e+001 8.700000e+001 0.000000e+000
      vertex   5.330675e+001 8.472395e+001 0.000000e+000
      vertex   3.457711e+001 9.936294e+001 0.000000e+000
    endloop
  endfacet
  facet normal -1.950909e-001 -9.807852e-001 -0.000000e+000
    outer loop
      vertex   3.827792e+001 2.534254e+001 2.250000e+000
      vertex   3.655585e+001 2.568508e+001 4.500000e+000
      vertex   3.655585e+001 2.568508e+001 0.000000e+000
    endloop
  endfacet
  facet normal 1.950902e-001 -9.807853e-001 -5.810910e-007
    outer loop
      vertex   4.172208e+001 2.534254e+001 2.250000e+000
      vertex   4.000000e+001 2.500000e+001 0.000000e+000
      vertex   4.344415e+001 2.568508e+001 0.000000e+000
    endloop
  endfacet
  facet normal 1.950909e-001 -9.807852e-001 0.000000e+000
    outer loop
      vertex   4.172208e+001 2.534254e+001 2.250000e+000
      vertex   4.344415e+001 2.568508e+001 0.000000e+000
      vertex   4.344415e+001 2.568508e+001 4.500000e+000
    endloop
  endfacet
  facet normal 0.000000e+000 0.000000e+000 -1.000000e+000
    outer loop
      vertex   4.346455e+001 3.543506e+001 0.000000e+000
      vertex   4.831491e+001 3.055585e+001 0.000000e+000
      vertex   4.375000e+001 3.400000e+001 0.000000e+000
    endloop
  endfacet
  facet normal 1.950895e-001 -9.807854e-001 0.000000e+000
    outer loop
      vertex   4.172208e+001 2.534254e+001 2.250000e+000
      vertex   4.000000e+001 2.500000e+001 4.500000e+000
      vertex   4.000000e+001 2.500000e+001 0.000000e+000
    endloop
  endfacet
  facet normal 5.555704e-001 -8.314695e-001 1.185402e-007
    outer loop
      vertex   4.490405e+001 2.666056e+001 2.250000e+000
      vertex   4.344415e+001 2.568508e+001 0.000000e+000
      vertex   4.636396e+001 2.763604e+001 0.000000e+000
    endloop
  endfacet
  facet normal 5.555702e-001 -8.314696e-001 0.000000e+000
    outer loop
      vertex   4.490405e+001 2.666056e+001 2.250000e+000
      vertex   4.636396e+001 2.763604e+001 0.000000e+000
      vertex   4.636396e+001 2.763604e+001 4.500000e+000
    endloop
  endfacet
  facet normal 0.000000e+000 0.000000e+000 -1.000000e+000
    outer loop
      vertex   3.457711e+001 9.936294e+001 0.000000e+000
      vertex   5.330675e+001 8.472395e+001 0.000000e+000
      vertex   3.085670e+001 9.693227e+001 0.000000e+000
    endloop
  endfacet
  facet normal 5.555705e-001 -8.314694e-001 0.000000e+000
    outer loop
      vertex   4.490405e+001 2.666056e+001 2.250000e+000
      vertex   4.344415e+001 2.568508e+001 4.500000e+000
      vertex   4.344415e+001 2.568508e+001 0.000000e+000
    endloop
  endfacet
  facet normal 8.314696e-001 -5.555703e-001 -9.403269e-007
    outer loop
      vertex   4.733944e+001 2.909594e+001 2.250000e+000
      vertex   4.636396e+001 2.763604e+001 0.000000e+000
      vertex   4.831491e+001 3.055585e+001 0.000000e+000
    endloop
  endfacet
  facet normal 8.314703e-001 -5.555693e-001 0.000000e+000
    outer loop
      vertex   4.733944e+001 2.909594e+001 2.250000e+000
      vertex   4.831491e+001 3.055585e+001 0.000000e+000
      vertex   4.831491e+001 3.055585e+001 4.500000e+000
    endloop
  endfacet
  facet normal 0.000000e+000 0.000000e+000 -1.000000e+000
    outer loop
      vertex   2.668412e+001 8.477797e+001 0.000000e+000
      vertex   3.700000e+001 7.000000e+001 0.000000e+000
      vertex   2.669325e+001 8.472395e+001 0.000000e+000
    endloop
  endfacet
  facet normal 8.314689e-001 -5.555713e-001 0.000000e+000
    outer loop
      vertex   4.733944e+001 2.909594e+001 2.250000e+000
      vertex   4.636396e+001 2.763604e+001 4.500000e+000
      vertex   4.636396e+001 2.763604e+001 0.000000e+000
    endloop
  endfacet
  facet normal 9.807853e-001 -1.950906e-001 7.487318e-007
    outer loop
      vertex   4.865746e+001 3.227792e+001 2.250000e+000
      vertex   4.831491e+001 3.055585e+001 0.000000e+000
      vertex   4.900000e+001 3.400000e+001 0.000000e+000
    endloop
  endfacet
  facet normal 9.807850e-001 -1.950916e-001 0.000000e+000
    outer loop
      vertex   4.865746e+001 3.227792e+001 2.250000e+000
      vertex   4.900000e+001 3.400000e+001 0.000000e+000
      vertex   4.900000e+001 3.400000e+001 4.500000e+000
    endloop
  endfacet
  facet normal 0.000000e+000 0.000000e+000 -1.000000e+000
    outer loop
      vertex   3.734835e+001 8.965165e+001 0.000000e+000
      vertex   3.653545e+001 8.843507e+001 0.000000e+000
      vertex   2.812710e+001 9.342529e+001 0.000000e+000
    endloop
  endfacet
  facet normal 9.807854e-001 -1.950897e-001 0.000000e+000
    outer loop
      vertex   4.865746e+001 3.227792e+001 2.250000e+000
      vertex   4.831491e+001 3.055585e+001 4.500000e+000
      vertex   4.831491e+001 3.055585e+001 0.000000e+000
    endloop
  endfacet
  facet normal 9.863613e-001 1.645947e-001 -2.790573e-007
    outer loop
      vertex   5.313427e+001 8.919173e+001 2.250000e+000
      vertex   5.350000e+001 8.700000e+001 0.000000e+000
      vertex   5.276853e+001 9.138345e+001 0.000000e+000
    endloop
  endfacet
  facet normal 9.863613e-001 1.645950e-001 -0.000000e+000
    outer loop
      vertex   5.313427e+001 8.919173e+001 2.250000e+000
      vertex   5.276853e+001 9.138345e+001 0.000000e+000
      vertex   5.276853e+001 9.138345e+001 4.500000e+000
    endloop
  endfacet
  facet normal 0.000000e+000 0.000000e+000 -1.000000e+000
    outer loop
      vertex   4.346455e+001 8.556493e+001 0.000000e+000
      vertex   4.900000e+001 3.400000e+001 0.000000e+000
      vertex   4.300000e+001 8.475000e+001 0.000000e+000
    endloop
  endfacet
  facet normal 9.863613e-001 1.645944e-001 0.000000e+000
    outer loop
      vertex   5.313427e+001 8.919173e+001 2.250000e+000
      vertex   5.350000e+001 8.700000e+001 4.500000e+000
      vertex   5.350000e+001 8.700000e+001 0.000000e+000
    endloop
  endfacet
  facet normal 8.794736e-001 4.759477e-001 -8.069317e-007
    outer loop
      vertex   5.171096e+001 9.333766e+001 2.250000e+000
      vertex   5.276853e+001 9.138345e+001 0.000000e+000
      vertex   5.065340e+001 9.529187e+001 0.000000e+000
    endloop
  endfacet
  facet normal 8.794732e-001 4.759484e-001 -0.000000e+000
    outer loop
      vertex   5.171096e+001 9.333766e+001 2.250000e+000
      vertex   5.065340e+001 9.529187e+001 0.000000e+000
      vertex   5.065340e+001 9.529187e+001 4.500000e+000
    endloop
  endfacet
  facet normal 0.000000e+000 0.000000e+000 -1.000000e+000
    outer loop
      vertex   3.653545e+001 8.843507e+001 0.000000e+000
      vertex   3.625000e+001 8.700000e+001 0.000000e+000
      vertex   2.812710e+001 9.342529e+001 0.000000e+000
    endloop
  endfacet
  facet normal 8.794739e-001 4.759470e-001 0.000000e+000
    outer loop
      vertex   5.171096e+001 9.333766e+001 2.250000e+000
      vertex   5.276853e+001 9.138345e+001 4.500000e+000
      vertex   5.276853e+001 9.138345e+001 0.000000e+000
    endloop
  endfacet
  facet normal -9.807851e-001 -1.950912e-001 -0.000000e+000
    outer loop
      vertex   4.360728e+001 3.471753e+001 2.250000e+000
      vertex   4.346455e+001 3.543506e+001 4.500000e+000
      vertex   4.346455e+001 3.543506e+001 0.000000e+000
    endloop
  endfacet
  facet normal 0.000000e+000 0.000000e+000 -1.000000e+000
    outer loop
      vertex   4.300000e+001 8.475000e+001 0.000000e+000
      vertex   4.900000e+001 3.400000e+001 0.000000e+000
      vertex   4.300000e+001 7.000000e+001 -0.000000e+000
    endloop
  endfacet
  facet normal -0.000000e+000 -0.000000e+000 -1.000000e+000
    outer loop
      vertex   4.300000e+001 7.000000e+001 -0.000000e+000
      vertex   4.900000e+001 3.400000e+001 0.000000e+000
      vertex   3.700000e+001 7.000000e+001 0.000000e+000
    endloop
  endfacet
  facet normal -9.807858e-001 -1.950872e-001 0.000000e+000
    outer loop
      vertex   4.360728e+001 3.471753e+001 2.250000e+000
      vertex   4.375000e+001 3.400000e+001 0.000000e+000
      vertex   4.375000e+001 3.400000e+001 4.500000e+000
    endloop
  endfacet
  facet normal 4.016953e-001 9.157734e-001 0.000000e+000
    outer loop
      vertex   4.534893e+001 9.919433e+001 2.250000e+000
      vertex   4.738380e+001 9.830175e+001 0.000000e+000
      vertex   4.331405e+001 1.000869e+002 0.000000e+000
    endloop
  endfacet
  facet normal -0.000000e+000 0.000000e+000 -1.000000e+000
    outer loop
      vertex   3.700000e+001 7.000000e+001 0.000000e+000
      vertex   3.700000e+001 5.100000e+001 -0.000000e+000
      vertex   3.100000e+001 3.400000e+001 0.000000e+000
    endloop
  endfacet
  facet normal 0.000000e+000 0.000000e+000 -1.000000e+000
    outer loop
      vertex   3.856494e+001 9.046455e+001 0.000000e+000
      vertex   3.734835e+001 8.965165e+001 0.000000e+000
      vertex   2.812710e+001 9.342529e+001 0.000000e+000
    endloop
  endfacet
  facet normal 4.016953e-001 9.157734e-001 0.000000e+000
    outer loop
      vertex   4.534893e+001 9.919433e+001 2.250000e+000
      vertex   4.738380e+001 9.830175e+001 4.500000e+000
      vertex   4.738380e+001 9.830175e+001 0.000000e+000
    endloop
  endfacet
  facet normal 0.000000e+000 0.000000e+000 -1.000000e+000
    outer loop
      vertex   3.085670e+001 9.693227e+001 0.000000e+000
      vertex   3.856494e+001 9.046455e+001 0.000000e+000
      vertex   2.812710e+001 9.342529e+001 0.000000e+000
    endloop
  endfacet
  facet normal 8.687609e-001 -4.952317e-001 0.000000e+000
    outer loop
      vertex   3.700000e+001 3.625000e+001 3.000000e+000
      vertex   3.653545e+001 3.543506e+001 4.500000e+000
      vertex   3.700000e+001 3.625000e+001 0.000000e+000
    endloop
  endfacet
  facet normal 0.000000e+000 0.000000e+000 -1.000000e+000
    outer loop
      vertex   4.375000e+001 8.700000e+001 0.000000e+000
      vertex   4.900000e+001 3.400000e+001 0.000000e+000
      vertex   4.346455e+001 8.556493e+001 0.000000e+000
    endloop
  endfacet
  facet normal 8.257988e-002 9.965844e-001 0.000000e+000
    outer loop
      vertex   4.109962e+001 1.002704e+002 2.250000e+000
      vertex   4.331405e+001 1.000869e+002 4.500000e+000
      vertex   4.331405e+001 1.000869e+002 0.000000e+000
    endloop
  endfacet
  facet normal 0.000000e+000 0.000000e+000 -1.000000e+000
    outer loop
      vertex   4.000000e+001 9.075000e+001 0.000000e+000
      vertex   3.856494e+001 9.046455e+001 0.000000e+000
      vertex   3.085670e+001 9.693227e+001 0.000000e+000
    endloop
  endfacet
  facet normal 0.000000e+000 0.000000e+000 -1.000000e+000
    outer loop
      vertex   4.143506e+001 9.046455e+001 0.000000e+000
      vertex   4.000000e+001 9.075000e+001 0.000000e+000
      vertex   3.085670e+001 9.693227e+001 0.000000e+000
    endloop
  endfacet
  facet normal 0.000000e+000 0.000000e+000 -1.000000e+000
    outer loop
      vertex   3.168508e+001 3.055585e+001 0.000000e+000
      vertex   3.655585e+001 2.568508e+001 0.000000e+000
      vertex   3.363604e+001 2.763604e+001 0.000000e+000
    endloop
  endfacet
  facet normal 0.000000e+000 0.000000e+000 -1.000000e+000
    outer loop
      vertex   5.330675e+001 8.472395e+001 0.000000e+000
      vertex   4.265165e+001 8.965165e+001 0.000000e+000
      vertex   4.143506e+001 9.046455e+001 0.000000e+000
    endloop
  endfacet
  facet normal -5.469478e-001 8.371667e-001 -2.318267e-007
    outer loop
      vertex   3.271690e+001 9.814761e+001 2.250000e+000
      vertex   3.457711e+001 9.936294e+001 0.000000e+000
      vertex   3.085670e+001 9.693227e+001 0.000000e+000
    endloop
  endfacet
  facet normal 0.000000e+000 0.000000e+000 -1.000000e+000
    outer loop
      vertex   5.330675e+001 8.472395e+001 0.000000e+000
      vertex   4.143506e+001 9.046455e+001 0.000000e+000
      vertex   3.085670e+001 9.693227e+001 0.000000e+000
    endloop
  endfacet
  facet normal 0.000000e+000 0.000000e+000 -1.000000e+000
    outer loop
      vertex   5.330675e+001 8.472395e+001 0.000000e+000
      vertex   4.346455e+001 8.843507e+001 0.000000e+000
      vertex   4.265165e+001 8.965165e+001 0.000000e+000
    endloop
  endfacet
  facet normal 0.000000e+000 0.000000e+000 -1.000000e+000
    outer loop
      vertex   5.330675e+001 8.472395e+001 0.000000e+000
      vertex   4.375000e+001 8.700000e+001 0.000000e+000
      vertex   4.346455e+001 8.843507e+001 0.000000e+000
    endloop
  endfacet
  facet normal -7.891402e-001 6.142130e-001 -1.041350e-006
    outer loop
      vertex   2.949190e+001 9.517879e+001 2.250000e+000
      vertex   3.085670e+001 9.693227e+001 0.000000e+000
      vertex   2.812710e+001 9.342529e+001 0.000000e+000
    endloop
  endfacet
  facet normal 8.687599e-001 4.952334e-001 0.000000e+000
    outer loop
      vertex   3.653545e+001 8.556493e+001 4.500000e+000
      vertex   3.700000e+001 8.475000e+001 3.000000e+000
      vertex   3.653545e+001 8.556493e+001 0.000000e+000
    endloop
  endfacet
  facet normal 0.000000e+000 0.000000e+000 -1.000000e+000
    outer loop
      vertex   3.625000e+001 8.700000e+001 0.000000e+000
      vertex   3.653545e+001 8.556493e+001 0.000000e+000
      vertex   2.668412e+001 8.922203e+001 0.000000e+000
    endloop
  endfacet
  facet normal 0.000000e+000 0.000000e+000 -1.000000e+000
    outer loop
      vertex   3.653545e+001 8.556493e+001 0.000000e+000
      vertex   3.700000e+001 8.475000e+001 0.000000e+000
      vertex   2.668412e+001 8.922203e+001 0.000000e+000
    endloop
  endfacet
  facet normal -9.458172e-001 3.246994e-001 0.000000e+000
    outer loop
      vertex   2.740561e+001 9.132366e+001 2.250000e+000
      vertex   2.812710e+001 9.342529e+001 0.000000e+000
      vertex   2.668412e+001 8.922203e+001 0.000000e+000
    endloop
  endfacet
  facet normal 8.687600e-001 4.952334e-001 -0.000000e+000
    outer loop
      vertex   3.700000e+001 8.475000e+001 3.000000e+000
      vertex   3.700000e+001 8.475000e+001 0.000000e+000
      vertex   3.653545e+001 8.556493e+001 0.000000e+000
    endloop
  endfacet
  facet normal -8.687599e-001 4.952334e-001 0.000000e+000
    outer loop
      vertex   4.346455e+001 8.556493e+001 4.500000e+000
      vertex   4.346455e+001 8.556493e+001 0.000000e+000
      vertex   4.300000e+001 8.475000e+001 3.000000e+000
    endloop
  endfacet
  facet normal 0.000000e+000 0.000000e+000 -1.000000e+000
    outer loop
      vertex   3.700000e+001 8.475000e+001 0.000000e+000
      vertex   3.700000e+001 7.000000e+001 0.000000e+000
      vertex   2.668412e+001 8.922203e+001 0.000000e+000
    endloop
  endfacet
  facet normal -1.000000e+000 0.000000e+000 0.000000e+000
    outer loop
      vertex   2.668412e+001 8.700000e+001 2.250000e+000
      vertex   2.668412e+001 8.922203e+001 0.000000e+000
      vertex   2.668412e+001 8.477797e+001 0.000000e+000
    endloop
  endfacet
  facet normal 0.000000e+000 0.000000e+000 -1.000000e+000
    outer loop
      vertex   2.668412e+001 8.922203e+001 0.000000e+000
      vertex   3.700000e+001 7.000000e+001 0.000000e+000
      vertex   2.668412e+001 8.477797e+001 0.000000e+000
    endloop
  endfacet
  facet normal -8.687600e-001 4.952334e-001 0.000000e+000
    outer loop
      vertex   4.300000e+001 8.475000e+001 3.000000e+000
      vertex   4.346455e+001 8.556493e+001 0.000000e+000
      vertex   4.300000e+001 8.475000e+001 0.000000e+000
    endloop
  endfacet
  facet normal -1.000000e+000 0.000000e+000 -0.000000e+000
    outer loop
      vertex   2.668412e+001 8.700000e+001 2.250000e+000
      vertex   2.668412e+001 8.922203e+001 4.500000e+000
      vertex   2.668412e+001 8.922203e+001 0.000000e+000
    endloop
  endfacet
  facet normal -9.860245e-001 -1.666005e-001 4.179317e-007
    outer loop
      vertex   2.668869e+001 8.475096e+001 2.250000e+000
      vertex   2.668412e+001 8.477797e+001 0.000000e+000
      vertex   2.669325e+001 8.472395e+001 0.000000e+000
    endloop
  endfacet
  facet normal -9.860302e-001 -1.665667e-001 0.000000e+000
    outer loop
      vertex   2.668869e+001 8.475096e+001 2.250000e+000
      vertex   2.669325e+001 8.472395e+001 0.000000e+000
      vertex   2.669325e+001 8.472395e+001 4.500000e+000
    endloop
  endfacet
  facet normal -1.950922e-001 9.807849e-001 0.000000e+000
    outer loop
      vertex   4.071753e+001 3.039273e+001 2.250000e+000
      vertex   4.000000e+001 3.025000e+001 0.000000e+000
      vertex   4.000000e+001 3.025000e+001 4.500000e+000
    endloop
  endfacet
  facet normal -9.860188e-001 -1.666344e-001 -0.000000e+000
    outer loop
      vertex   2.668869e+001 8.475096e+001 2.250000e+000
      vertex   2.668412e+001 8.477797e+001 4.500000e+000
      vertex   2.668412e+001 8.477797e+001 0.000000e+000
    endloop
  endfacet
  facet normal -8.687609e-001 -4.952317e-001 0.000000e+000
    outer loop
      vertex   4.346455e+001 3.543506e+001 4.500000e+000
      vertex   4.300000e+001 3.625000e+001 3.000000e+000
      vertex   4.346455e+001 3.543506e+001 0.000000e+000
    endloop
  endfacet
  facet normal 9.964150e-001 -8.459938e-002 0.000000e+000
    outer loop
      vertex   5.340337e+001 8.586198e+001 2.250000e+000
      vertex   5.330675e+001 8.472395e+001 4.500000e+000
      vertex   5.330675e+001 8.472395e+001 0.000000e+000
    endloop
  endfacet
  facet normal 9.964150e-001 -8.460105e-002 8.446714e-007
    outer loop
      vertex   5.340337e+001 8.586198e+001 2.250000e+000
      vertex   5.330675e+001 8.472395e+001 0.000000e+000
      vertex   5.350000e+001 8.700000e+001 0.000000e+000
    endloop
  endfacet
  facet normal -0.000000e+000 0.000000e+000 -1.000000e+000
    outer loop
      vertex   2.669325e+001 8.472395e+001 0.000000e+000
      vertex   3.700000e+001 7.000000e+001 0.000000e+000
      vertex   3.100000e+001 3.400000e+001 0.000000e+000
    endloop
  endfacet
  facet normal -8.687609e-001 -4.952317e-001 0.000000e+000
    outer loop
      vertex   4.300000e+001 3.625000e+001 3.000000e+000
      vertex   4.300000e+001 3.625000e+001 -0.000000e+000
      vertex   4.346455e+001 3.543506e+001 0.000000e+000
    endloop
  endfacet
  facet normal 9.807855e-001 -1.950892e-001 6.660430e-007
    outer loop
      vertex   3.639272e+001 3.471753e+001 2.250000e+000
      vertex   3.625000e+001 3.400000e+001 0.000000e+000
      vertex   3.653545e+001 3.543506e+001 0.000000e+000
    endloop
  endfacet
  facet normal 9.807858e-001 -1.950872e-001 0.000000e+000
    outer loop
      vertex   3.639272e+001 3.471753e+001 2.250000e+000
      vertex   3.625000e+001 3.400000e+001 4.500000e+000
      vertex   3.625000e+001 3.400000e+001 0.000000e+000
    endloop
  endfacet
  facet normal -1.950905e-001 9.807853e-001 -5.810912e-007
    outer loop
      vertex   4.071753e+001 3.039273e+001 2.250000e+000
      vertex   4.143506e+001 3.053545e+001 0.000000e+000
      vertex   4.000000e+001 3.025000e+001 0.000000e+000
    endloop
  endfacet
  facet normal -1.950887e-001 9.807856e-001 0.000000e+000
    outer loop
      vertex   4.071753e+001 3.039273e+001 2.250000e+000
      vertex   4.143506e+001 3.053545e+001 4.500000e+000
      vertex   4.143506e+001 3.053545e+001 0.000000e+000
    endloop
  endfacet
  facet normal -0.000000e+000 0.000000e+000 -1.000000e+000
    outer loop
      vertex   3.700000e+001 3.625000e+001 0.000000e+000
      vertex   3.653545e+001 3.543506e+001 0.000000e+000
      vertex   3.100000e+001 3.400000e+001 0.000000e+000
    endloop
  endfacet
  facet normal -5.555711e-001 8.314691e-001 0.000000e+000
    outer loop
      vertex   4.204336e+001 3.094190e+001 2.250000e+000
      vertex   4.265165e+001 3.134835e+001 4.500000e+000
      vertex   4.265165e+001 3.134835e+001 0.000000e+000
    endloop
  endfacet
  facet normal 0.000000e+000 0.000000e+000 -1.000000e+000
    outer loop
      vertex   4.375000e+001 3.400000e+001 0.000000e+000
      vertex   4.636396e+001 2.763604e+001 0.000000e+000
      vertex   4.346455e+001 3.256494e+001 0.000000e+000
    endloop
  endfacet
  facet normal 8.687609e-001 -4.952317e-001 0.000000e+000
    outer loop
      vertex   3.653545e+001 3.543506e+001 4.500000e+000
      vertex   3.653545e+001 3.543506e+001 0.000000e+000
      vertex   3.700000e+001 3.625000e+001 0.000000e+000
    endloop
  endfacet
  facet normal 0.000000e+000 0.000000e+000 -1.000000e+000
    outer loop
      vertex   4.831491e+001 3.055585e+001 0.000000e+000
      vertex   4.636396e+001 2.763604e+001 0.000000e+000
      vertex   4.375000e+001 3.400000e+001 0.000000e+000
    endloop
  endfacet
  facet normal -9.807851e-001 1.950912e-001 0.000000e+000
    outer loop
      vertex   4.360728e+001 3.328247e+001 2.250000e+000
      vertex   4.346455e+001 3.256494e+001 0.000000e+000
      vertex   4.346455e+001 3.256494e+001 4.500000e+000
    endloop
  endfacet
  facet normal -0.000000e+000 -0.000000e+000 -1.000000e+000
    outer loop
      vertex   4.300000e+001 3.625000e+001 -0.000000e+000
      vertex   4.831491e+001 3.055585e+001 0.000000e+000
      vertex   4.346455e+001 3.543506e+001 0.000000e+000
    endloop
  endfacet
  facet normal -9.807855e-001 1.950892e-001 6.660430e-007
    outer loop
      vertex   4.360728e+001 3.328247e+001 2.250000e+000
      vertex   4.375000e+001 3.400000e+001 0.000000e+000
      vertex   4.346455e+001 3.256494e+001 0.000000e+000
    endloop
  endfacet
  facet normal 0.000000e+000 0.000000e+000 -1.000000e+000
    outer loop
      vertex   4.900000e+001 3.400000e+001 0.000000e+000
      vertex   4.831491e+001 3.055585e+001 0.000000e+000
      vertex   4.300000e+001 3.625000e+001 -0.000000e+000
    endloop
  endfacet
  facet normal -9.807858e-001 1.950872e-001 0.000000e+000
    outer loop
      vertex   4.360728e+001 3.328247e+001 2.250000e+000
      vertex   4.375000e+001 3.400000e+001 4.500000e+000
      vertex   4.375000e+001 3.400000e+001 0.000000e+000
    endloop
  endfacet
  facet normal 0.000000e+000 0.000000e+000 -1.000000e+000
    outer loop
      vertex   3.700000e+001 5.100000e+001 -0.000000e+000
      vertex   3.700000e+001 3.625000e+001 0.000000e+000
      vertex   3.100000e+001 3.400000e+001 0.000000e+000
    endloop
  endfacet
  facet normal 0.000000e+000 0.000000e+000 -1.000000e+000
    outer loop
      vertex   5.330675e+001 8.472395e+001 0.000000e+000
      vertex   4.900000e+001 3.400000e+001 0.000000e+000
      vertex   4.375000e+001 8.700000e+001 0.000000e+000
    endloop
  endfacet
  facet normal 0.000000e+000 0.000000e+000 -1.000000e+000
    outer loop
      vertex   4.300000e+001 5.100000e+001 -0.000000e+000
      vertex   4.900000e+001 3.400000e+001 0.000000e+000
      vertex   4.300000e+001 3.625000e+001 -0.000000e+000
    endloop
  endfacet
  facet normal 0.000000e+000 0.000000e+000 -1.000000e+000
    outer loop
      vertex   3.700000e+001 7.000000e+001 0.000000e+000
      vertex   4.900000e+001 3.400000e+001 0.000000e+000
      vertex   4.300000e+001 5.100000e+001 -0.000000e+000
    endloop
  endfacet
  facet normal 0.000000e+000 0.000000e+000 -1.000000e+000
    outer loop
      vertex   3.700000e+001 7.000000e+001 0.000000e+000
      vertex   4.300000e+001 5.100000e+001 -0.000000e+000
      vertex   3.700000e+001 5.100000e+001 -0.000000e+000
    endloop
  endfacet
  facet normal -8.314698e-001 5.555699e-001 0.000000e+000
    outer loop
      vertex   4.305810e+001 3.195664e+001 2.250000e+000
      vertex   4.265165e+001 3.134835e+001 0.000000e+000
      vertex   4.265165e+001 3.134835e+001 4.500000e+000
    endloop
  endfacet
  facet normal 1.950887e-001 9.807856e-001 -0.000000e+000
    outer loop
      vertex   3.928247e+001 3.039273e+001 2.250000e+000
      vertex   3.856494e+001 3.053545e+001 0.000000e+000
      vertex   3.856494e+001 3.053545e+001 4.500000e+000
    endloop
  endfacet
  facet normal 8.314691e-001 5.555711e-001 -4.693633e-007
    outer loop
      vertex   3.694190e+001 3.195664e+001 2.250000e+000
      vertex   3.734835e+001 3.134835e+001 0.000000e+000
      vertex   3.653545e+001 3.256494e+001 0.000000e+000
    endloop
  endfacet
  facet normal 9.807851e-001 -1.950912e-001 0.000000e+000
    outer loop
      vertex   3.639272e+001 3.471753e+001 2.250000e+000
      vertex   3.653545e+001 3.543506e+001 0.000000e+000
      vertex   3.653545e+001 3.543506e+001 4.500000e+000
    endloop
  endfacet
  facet normal -8.314691e-001 5.555711e-001 -4.693633e-007
    outer loop
      vertex   4.305810e+001 3.195664e+001 2.250000e+000
      vertex   4.346455e+001 3.256494e+001 0.000000e+000
      vertex   4.265165e+001 3.134835e+001 0.000000e+000
    endloop
  endfacet
  facet normal 9.807851e-001 1.950912e-001 0.000000e+000
    outer loop
      vertex   3.639272e+001 3.328247e+001 2.250000e+000
      vertex   3.653545e+001 3.256494e+001 4.500000e+000
      vertex   3.653545e+001 3.256494e+001 0.000000e+000
    endloop
  endfacet
  facet normal 9.807855e-001 1.950892e-001 6.660430e-007
    outer loop
      vertex   3.639272e+001 3.328247e+001 2.250000e+000
      vertex   3.653545e+001 3.256494e+001 0.000000e+000
      vertex   3.625000e+001 3.400000e+001 0.000000e+000
    endloop
  endfacet
  facet normal 9.807858e-001 1.950872e-001 -0.000000e+000
    outer loop
      vertex   3.639272e+001 3.328247e+001 2.250000e+000
      vertex   3.625000e+001 3.400000e+001 0.000000e+000
      vertex   3.625000e+001 3.400000e+001 4.500000e+000
    endloop
  endfacet
  facet normal -8.314682e-001 5.555723e-001 0.000000e+000
    outer loop
      vertex   4.305810e+001 3.195664e+001 2.250000e+000
      vertex   4.346455e+001 3.256494e+001 4.500000e+000
      vertex   4.346455e+001 3.256494e+001 0.000000e+000
    endloop
  endfacet
  facet normal 8.314698e-001 5.555699e-001 0.000000e+000
    outer loop
      vertex   3.694190e+001 3.195664e+001 2.250000e+000
      vertex   3.734835e+001 3.134835e+001 4.500000e+000
      vertex   3.734835e+001 3.134835e+001 0.000000e+000
    endloop
  endfacet
  facet normal 5.555699e-001 8.314698e-001 4.709624e-007
    outer loop
      vertex   3.795664e+001 3.094190e+001 2.250000e+000
      vertex   3.856494e+001 3.053545e+001 0.000000e+000
      vertex   3.734835e+001 3.134835e+001 0.000000e+000
    endloop
  endfacet
  facet normal 8.314682e-001 5.555723e-001 -0.000000e+000
    outer loop
      vertex   3.694190e+001 3.195664e+001 2.250000e+000
      vertex   3.653545e+001 3.256494e+001 0.000000e+000
      vertex   3.653545e+001 3.256494e+001 4.500000e+000
    endloop
  endfacet
  facet normal -5.555686e-001 8.314707e-001 0.000000e+000
    outer loop
      vertex   4.204336e+001 3.094190e+001 2.250000e+000
      vertex   4.143506e+001 3.053545e+001 0.000000e+000
      vertex   4.143506e+001 3.053545e+001 4.500000e+000
    endloop
  endfacet
  facet normal 5.555686e-001 8.314707e-001 0.000000e+000
    outer loop
      vertex   3.795664e+001 3.094190e+001 2.250000e+000
      vertex   3.856494e+001 3.053545e+001 4.500000e+000
      vertex   3.856494e+001 3.053545e+001 0.000000e+000
    endloop
  endfacet
  facet normal 5.555711e-001 8.314691e-001 -0.000000e+000
    outer loop
      vertex   3.795664e+001 3.094190e+001 2.250000e+000
      vertex   3.734835e+001 3.134835e+001 0.000000e+000
      vertex   3.734835e+001 3.134835e+001 4.500000e+000
    endloop
  endfacet
  facet normal -5.555699e-001 8.314698e-001 4.709624e-007
    outer loop
      vertex   4.204336e+001 3.094190e+001 2.250000e+000
      vertex   4.265165e+001 3.134835e+001 0.000000e+000
      vertex   4.143506e+001 3.053545e+001 0.000000e+000
    endloop
  endfacet
  facet normal 1.950922e-001 9.807849e-001 0.000000e+000
    outer loop
      vertex   3.928247e+001 3.039273e+001 2.250000e+000
      vertex   4.000000e+001 3.025000e+001 4.500000e+000
      vertex   4.000000e+001 3.025000e+001 0.000000e+000
    endloop
  endfacet
  facet normal 1.950905e-001 9.807853e-001 -5.810912e-007
    outer loop
      vertex   3.928247e+001 3.039273e+001 2.250000e+000
      vertex   4.000000e+001 3.025000e+001 0.000000e+000
      vertex   3.856494e+001 3.053545e+001 0.000000e+000
    endloop
  endfacet
  facet normal 1.000000e+000 0.000000e+000 0.000000e+000
    outer loop
      vertex   3.700000e+001 7.737500e+001 1.500000e+000
      vertex   3.700000e+001 8.475000e+001 3.000000e+000
      vertex   3.700000e+001 7.000000e+001 3.000000e+000
    endloop
  endfacet
  facet normal -0.000000e+000 1.000000e+000 0.000000e+000
    outer loop
      vertex   4.000000e+001 7.000000e+001 1.500000e+000
      vertex   3.700000e+001 7.000000e+001 3.000000e+000
      vertex   4.300000e+001 7.000000e+001 3.000000e+000
    endloop
  endfacet
  facet normal -1.000000e+000 0.000000e+000 0.000000e+000
    outer loop
      vertex   4.300000e+001 4.362500e+001 1.500000e+000
      vertex   4.300000e+001 3.625000e+001 3.000000e+000
      vertex   4.300000e+001 5.100000e+001 3.000000e+000
    endloop
  endfacet
  facet normal 1.000000e+000 0.000000e+000 0.000000e+000
    outer loop
      vertex   3.700000e+001 4.362500e+001 1.500000e+000
      vertex   3.700000e+001 5.100000e+001 3.000000e+000
      vertex   3.700000e+001 3.625000e+001 3.000000e+000
    endloop
  endfacet
  facet normal -1.000000e+000 0.000000e+000 0.000000e+000
    outer loop
      vertex   4.300000e+001 7.737500e+001 1.500000e+000
      vertex   4.300000e+001 7.000000e+001 3.000000e+000
      vertex   4.300000e+001 8.475000e+001 3.000000e+000
    endloop
  endfacet
  facet normal -0.000000e+000 -1.000000e+000 0.000000e+000
    outer loop
      vertex   4.000000e+001 5.100000e+001 1.500000e+000
      vertex   4.300000e+001 5.100000e+001 3.000000e+000
      vertex   3.700000e+001 5.100000e+001 3.000000e+000
    endloop
  endfacet
  facet normal -9.860245e-001 -1.666005e-001 -4.179317e-007
    outer loop
      vertex   2.668869e+001 8.475096e+001 2.250000e+000
      vertex   2.669325e+001 8.472395e+001 4.500000e+000
      vertex   2.668412e+001 8.477797e+001 4.500000e+000
    endloop
  endfacet
  facet normal -1.950905e-001 9.807853e-001 5.810912e-007
    outer loop
      vertex   4.071753e+001 3.039273e+001 2.250000e+000
      vertex   4.000000e+001 3.025000e+001 4.500000e+000
      vertex   4.143506e+001 3.053545e+001 4.500000e+000
    endloop
  endfacet
  facet normal 1.950905e-001 9.807853e-001 5.810912e-007
    outer loop
      vertex   3.928247e+001 3.039273e+001 2.250000e+000
      vertex   3.856494e+001 3.053545e+001 4.500000e+000
      vertex   4.000000e+001 3.025000e+001 4.500000e+000
    endloop
  endfacet
  facet normal 5.555699e-001 8.314698e-001 -4.709624e-007
    outer loop
      vertex   3.795664e+001 3.094190e+001 2.250000e+000
      vertex   3.734835e+001 3.134835e+001 4.500000e+000
      vertex   3.856494e+001 3.053545e+001 4.500000e+000
    endloop
  endfacet
  facet normal -8.314691e-001 5.555711e-001 4.693633e-007
    outer loop
      vertex   4.305810e+001 3.195664e+001 2.250000e+000
      vertex   4.265165e+001 3.134835e+001 4.500000e+000
      vertex   4.346455e+001 3.256494e+001 4.500000e+000
    endloop
  endfacet
  facet normal 8.314691e-001 5.555711e-001 4.693633e-007
    outer loop
      vertex   3.694190e+001 3.195664e+001 2.250000e+000
      vertex   3.653545e+001 3.256494e+001 4.500000e+000
      vertex   3.734835e+001 3.134835e+001 4.500000e+000
    endloop
  endfacet
  facet normal 9.807855e-001 1.950892e-001 -6.660430e-007
    outer loop
      vertex   3.639272e+001 3.328247e+001 2.250000e+000
      vertex   3.625000e+001 3.400000e+001 4.500000e+000
      vertex   3.653545e+001 3.256494e+001 4.500000e+000
    endloop
  endfacet
  facet normal 9.807855e-001 -1.950892e-001 -6.660430e-007
    outer loop
      vertex   3.639272e+001 3.471753e+001 2.250000e+000
      vertex   3.653545e+001 3.543506e+001 4.500000e+000
      vertex   3.625000e+001 3.400000e+001 4.500000e+000
    endloop
  endfacet
  facet normal -9.807855e-001 1.950892e-001 -6.660430e-007
    outer loop
      vertex   4.360728e+001 3.328247e+001 2.250000e+000
      vertex   4.346455e+001 3.256494e+001 4.500000e+000
      vertex   4.375000e+001 3.400000e+001 4.500000e+000
    endloop
  endfacet
  facet normal 8.314696e-001 -5.555703e-001 9.403269e-007
    outer loop
      vertex   4.733944e+001 2.909594e+001 2.250000e+000
      vertex   4.831491e+001 3.055585e+001 4.500000e+000
      vertex   4.636396e+001 2.763604e+001 4.500000e+000
    endloop
  endfacet
  facet normal 5.555704e-001 -8.314695e-001 -1.185402e-007
    outer loop
      vertex   4.490405e+001 2.666056e+001 2.250000e+000
      vertex   4.636396e+001 2.763604e+001 4.500000e+000
      vertex   4.344415e+001 2.568508e+001 4.500000e+000
    endloop
  endfacet
  facet normal 1.950902e-001 -9.807853e-001 5.810910e-007
    outer loop
      vertex   4.172208e+001 2.534254e+001 2.250000e+000
      vertex   4.344415e+001 2.568508e+001 4.500000e+000
      vertex   4.000000e+001 2.500000e+001 4.500000e+000
    endloop
  endfacet
  facet normal -1.950902e-001 -9.807853e-001 5.810910e-007
    outer loop
      vertex   3.827792e+001 2.534254e+001 2.250000e+000
      vertex   4.000000e+001 2.500000e+001 4.500000e+000
      vertex   3.655585e+001 2.568508e+001 4.500000e+000
    endloop
  endfacet
  facet normal -5.555704e-001 -8.314695e-001 -1.185402e-007
    outer loop
      vertex   3.509595e+001 2.666056e+001 2.250000e+000
      vertex   3.655585e+001 2.568508e+001 4.500000e+000
      vertex   3.363604e+001 2.763604e+001 4.500000e+000
    endloop
  endfacet
  facet normal -8.314694e-001 -5.555707e-001 5.879042e-007
    outer loop
      vertex   3.266056e+001 2.909594e+001 2.250000e+000
      vertex   3.363604e+001 2.763604e+001 4.500000e+000
      vertex   3.168508e+001 3.055585e+001 4.500000e+000
    endloop
  endfacet
  facet normal -9.807853e-001 -1.950901e-001 4.984010e-007
    outer loop
      vertex   3.134254e+001 3.227792e+001 2.250000e+000
      vertex   3.168508e+001 3.055585e+001 4.500000e+000
      vertex   3.100000e+001 3.400000e+001 4.500000e+000
    endloop
  endfacet
  facet normal -9.807855e-001 -1.950892e-001 -6.660430e-007
    outer loop
      vertex   4.360728e+001 3.471753e+001 2.250000e+000
      vertex   4.375000e+001 3.400000e+001 4.500000e+000
      vertex   4.346455e+001 3.543506e+001 4.500000e+000
    endloop
  endfacet
  facet normal -9.807856e-001 1.950887e-001 -5.006647e-007
    outer loop
      vertex   4.360728e+001 8.628247e+001 2.250000e+000
      vertex   4.346455e+001 8.556493e+001 4.500000e+000
      vertex   4.375000e+001 8.700000e+001 4.500000e+000
    endloop
  endfacet
  facet normal 9.964150e-001 -8.460105e-002 -8.446714e-007
    outer loop
      vertex   5.340337e+001 8.586198e+001 2.250000e+000
      vertex   5.350000e+001 8.700000e+001 4.500000e+000
      vertex   5.330675e+001 8.472395e+001 4.500000e+000
    endloop
  endfacet
  facet normal -5.555699e-001 8.314698e-001 -4.709624e-007
    outer loop
      vertex   4.204336e+001 3.094190e+001 2.250000e+000
      vertex   4.143506e+001 3.053545e+001 4.500000e+000
      vertex   4.265165e+001 3.134835e+001 4.500000e+000
    endloop
  endfacet
  facet normal -1.000000e+000 0.000000e+000 0.000000e+000
    outer loop
      vertex   2.668412e+001 8.700000e+001 2.250000e+000
      vertex   2.668412e+001 8.477797e+001 4.500000e+000
      vertex   2.668412e+001 8.922203e+001 4.500000e+000
    endloop
  endfacet
  facet normal 9.807856e-001 1.950887e-001 -5.006647e-007
    outer loop
      vertex   3.639272e+001 8.628247e+001 2.250000e+000
      vertex   3.625000e+001 8.700000e+001 4.500000e+000
      vertex   3.653545e+001 8.556493e+001 4.500000e+000
    endloop
  endfacet
  facet normal 9.807856e-001 -1.950887e-001 -5.006647e-007
    outer loop
      vertex   3.639272e+001 8.771753e+001 2.250000e+000
      vertex   3.653545e+001 8.843507e+001 4.500000e+000
      vertex   3.625000e+001 8.700000e+001 4.500000e+000
    endloop
  endfacet
  facet normal -9.458172e-001 3.246994e-001 0.000000e+000
    outer loop
      vertex   2.740561e+001 9.132366e+001 2.250000e+000
      vertex   2.668412e+001 8.922203e+001 4.500000e+000
      vertex   2.812710e+001 9.342529e+001 4.500000e+000
    endloop
  endfacet
  facet normal 8.314679e-001 -5.555729e-001 7.048440e-007
    outer loop
      vertex   3.694190e+001 8.904336e+001 2.250000e+000
      vertex   3.734835e+001 8.965165e+001 4.500000e+000
      vertex   3.653545e+001 8.843507e+001 4.500000e+000
    endloop
  endfacet
  facet normal 5.555699e-001 -8.314698e-001 -4.709624e-007
    outer loop
      vertex   3.795664e+001 9.005810e+001 2.250000e+000
      vertex   3.856494e+001 9.046455e+001 4.500000e+000
      vertex   3.734835e+001 8.965165e+001 4.500000e+000
    endloop
  endfacet
  facet normal -7.891402e-001 6.142130e-001 1.041350e-006
    outer loop
      vertex   2.949190e+001 9.517879e+001 2.250000e+000
      vertex   2.812710e+001 9.342529e+001 4.500000e+000
      vertex   3.085670e+001 9.693227e+001 4.500000e+000
    endloop
  endfacet
  facet normal 1.950917e-001 -9.807850e-001 1.828225e-006
    outer loop
      vertex   3.928247e+001 9.060727e+001 2.250000e+000
      vertex   4.000000e+001 9.075000e+001 4.500000e+000
      vertex   3.856494e+001 9.046455e+001 4.500000e+000
    endloop
  endfacet
  facet normal -1.950917e-001 -9.807850e-001 1.828225e-006
    outer loop
      vertex   4.071753e+001 9.060727e+001 2.250000e+000
      vertex   4.143506e+001 9.046455e+001 4.500000e+000
      vertex   4.000000e+001 9.075000e+001 4.500000e+000
    endloop
  endfacet
  facet normal -5.469478e-001 8.371667e-001 2.318267e-007
    outer loop
      vertex   3.271690e+001 9.814761e+001 2.250000e+000
      vertex   3.085670e+001 9.693227e+001 4.500000e+000
      vertex   3.457711e+001 9.936294e+001 4.500000e+000
    endloop
  endfacet
  facet normal -5.555699e-001 -8.314698e-001 -4.709624e-007
    outer loop
      vertex   4.204336e+001 9.005810e+001 2.250000e+000
      vertex   4.265165e+001 8.965165e+001 4.500000e+000
      vertex   4.143506e+001 9.046455e+001 4.500000e+000
    endloop
  endfacet
  facet normal -8.314679e-001 -5.555729e-001 7.048440e-007
    outer loop
      vertex   4.305810e+001 8.904336e+001 2.250000e+000
      vertex   4.346455e+001 8.843507e+001 4.500000e+000
      vertex   4.265165e+001 8.965165e+001 4.500000e+000
    endloop
  endfacet
  facet normal -9.807856e-001 -1.950887e-001 -5.006647e-007
    outer loop
      vertex   4.360728e+001 8.771753e+001 2.250000e+000
      vertex   4.375000e+001 8.700000e+001 4.500000e+000
      vertex   4.346455e+001 8.843507e+001 4.500000e+000
    endloop
  endfacet
  facet normal -9.964149e-001 -8.460128e-002 0.000000e+000
    outer loop
      vertex   2.884662e+001 5.936198e+001 2.250000e+000
      vertex   3.100000e+001 3.400000e+001 4.500000e+000
      vertex   2.669325e+001 8.472395e+001 4.500000e+000
    endloop
  endfacet
  facet normal 8.257811e-002 9.965846e-001 1.759633e-006
    outer loop
      vertex   4.109962e+001 1.002704e+002 2.250000e+000
      vertex   3.888518e+001 1.004539e+002 4.500000e+000
      vertex   4.331405e+001 1.000869e+002 4.500000e+000
    endloop
  endfacet
  facet normal 9.964149e-001 -8.460128e-002 -8.446714e-007
    outer loop
      vertex   5.115337e+001 5.936198e+001 2.250000e+000
      vertex   5.330675e+001 8.472395e+001 4.500000e+000
      vertex   4.900000e+001 3.400000e+001 4.500000e+000
    endloop
  endfacet
  facet normal 4.016953e-001 9.157734e-001 0.000000e+000
    outer loop
      vertex   4.534893e+001 9.919433e+001 2.250000e+000
      vertex   4.331405e+001 1.000869e+002 4.500000e+000
      vertex   4.738380e+001 9.830175e+001 4.500000e+000
    endloop
  endfacet
  facet normal 9.863613e-001 1.645947e-001 2.790573e-007
    outer loop
      vertex   5.313427e+001 8.919173e+001 2.250000e+000
      vertex   5.276853e+001 9.138345e+001 4.500000e+000
      vertex   5.350000e+001 8.700000e+001 4.500000e+000
    endloop
  endfacet
  facet normal 9.807853e-001 -1.950906e-001 -7.487318e-007
    outer loop
      vertex   4.865746e+001 3.227792e+001 2.250000e+000
      vertex   4.900000e+001 3.400000e+001 4.500000e+000
      vertex   4.831491e+001 3.055585e+001 4.500000e+000
    endloop
  endfacet
  facet normal 6.772822e-001 7.357234e-001 1.821500e-006
    outer loop
      vertex   4.901860e+001 9.679681e+001 2.250000e+000
      vertex   4.738380e+001 9.830175e+001 4.500000e+000
      vertex   5.065340e+001 9.529187e+001 4.500000e+000
    endloop
  endfacet
  facet normal 8.794736e-001 4.759477e-001 8.069317e-007
    outer loop
      vertex   5.171096e+001 9.333766e+001 2.250000e+000
      vertex   5.065340e+001 9.529187e+001 4.500000e+000
      vertex   5.276853e+001 9.138345e+001 4.500000e+000
    endloop
  endfacet
  facet normal -2.454853e-001 9.694003e-001 1.643542e-006
    outer loop
      vertex   3.673114e+001 9.990842e+001 2.250000e+000
      vertex   3.457711e+001 9.936294e+001 4.500000e+000
      vertex   3.888518e+001 1.004539e+002 4.500000e+000
    endloop
  endfacet
  facet normal -1.950872e-001 -9.807859e-001 -0.000000e+000
    outer loop
      vertex   4.071753e+001 3.760728e+001 3.750000e+000
      vertex   4.000000e+001 3.775000e+001 4.500000e+000
      vertex   4.000000e+001 3.775000e+001 3.000000e+000
    endloop
  endfacet
  facet normal 7.554523e-001 6.552036e-001 -0.000000e+000
    outer loop
      vertex   3.734835e+001 8.434835e+001 4.500000e+000
      vertex   3.734835e+001 8.434835e+001 3.000000e+000
      vertex   3.700000e+001 8.475000e+001 3.000000e+000
    endloop
  endfacet
  facet normal -8.306521e-001 5.550278e-001 -4.428764e-002
    outer loop
      vertex   4.346455e+001 8.556493e+001 4.500000e+000
      vertex   4.300000e+001 8.475000e+001 3.000000e+000
      vertex   4.265165e+001 8.434835e+001 4.500000e+000
    endloop
  endfacet
  facet normal -7.554523e-001 6.552036e-001 0.000000e+000
    outer loop
      vertex   4.265165e+001 8.434835e+001 4.500000e+000
      vertex   4.300000e+001 8.475000e+001 3.000000e+000
      vertex   4.265165e+001 8.434835e+001 3.000000e+000
    endloop
  endfacet
  facet normal -8.314687e-001 -5.555717e-001 0.000000e+000
    outer loop
      vertex   4.265165e+001 3.665165e+001 4.500000e+000
      vertex   4.265165e+001 3.665165e+001 3.000000e+000
      vertex   4.346455e+001 3.543506e+001 4.500000e+000
    endloop
  endfacet
  facet normal -7.498919e-001 -6.503811e-001 -1.211052e-001
    outer loop
      vertex   4.346455e+001 3.543506e+001 4.500000e+000
      vertex   4.265165e+001 3.665165e+001 3.000000e+000
      vertex   4.300000e+001 3.625000e+001 3.000000e+000
    endloop
  endfacet
  facet normal 8.314687e-001 -5.555717e-001 0.000000e+000
    outer loop
      vertex   3.734835e+001 3.665165e+001 4.500000e+000
      vertex   3.653545e+001 3.543506e+001 4.500000e+000
      vertex   3.734835e+001 3.665165e+001 3.000000e+000
    endloop
  endfacet
  facet normal 7.498919e-001 -6.503811e-001 -1.211052e-001
    outer loop
      vertex   3.734835e+001 3.665165e+001 3.000000e+000
      vertex   3.653545e+001 3.543506e+001 4.500000e+000
      vertex   3.700000e+001 3.625000e+001 3.000000e+000
    endloop
  endfacet
  facet normal 5.555723e-001 -8.314682e-001 0.000000e+000
    outer loop
      vertex   3.795664e+001 3.705810e+001 3.750000e+000
      vertex   3.856494e+001 3.746455e+001 3.000000e+000
      vertex   3.856494e+001 3.746455e+001 4.500000e+000
    endloop
  endfacet
  facet normal 5.555717e-001 -8.314687e-001 -7.016423e-007
    outer loop
      vertex   3.795664e+001 3.705810e+001 3.750000e+000
      vertex   3.734835e+001 3.665165e+001 3.000000e+000
      vertex   3.856494e+001 3.746455e+001 3.000000e+000
    endloop
  endfacet
  facet normal 5.555711e-001 -8.314691e-001 0.000000e+000
    outer loop
      vertex   3.795664e+001 3.705810e+001 3.750000e+000
      vertex   3.734835e+001 3.665165e+001 4.500000e+000
      vertex   3.734835e+001 3.665165e+001 3.000000e+000
    endloop
  endfacet
  facet normal 1.950872e-001 -9.807859e-001 0.000000e+000
    outer loop
      vertex   3.928247e+001 3.760728e+001 3.750000e+000
      vertex   4.000000e+001 3.775000e+001 3.000000e+000
      vertex   4.000000e+001 3.775000e+001 4.500000e+000
    endloop
  endfacet
  facet normal 1.950912e-001 -9.807851e-001 0.000000e+000
    outer loop
      vertex   3.928247e+001 3.760728e+001 3.750000e+000
      vertex   3.856494e+001 3.746455e+001 4.500000e+000
      vertex   3.856494e+001 3.746455e+001 3.000000e+000
    endloop
  endfacet
  facet normal -1.950912e-001 -9.807851e-001 0.000000e+000
    outer loop
      vertex   4.071753e+001 3.760728e+001 3.750000e+000
      vertex   4.143506e+001 3.746455e+001 3.000000e+000
      vertex   4.143506e+001 3.746455e+001 4.500000e+000
    endloop
  endfacet
  facet normal -1.950892e-001 -9.807855e-001 1.998129e-006
    outer loop
      vertex   4.071753e+001 3.760728e+001 3.750000e+000
      vertex   4.000000e+001 3.775000e+001 3.000000e+000
      vertex   4.143506e+001 3.746455e+001 3.000000e+000
    endloop
  endfacet
  facet normal 8.306521e-001 5.550278e-001 -4.428764e-002
    outer loop
      vertex   3.653545e+001 8.556493e+001 4.500000e+000
      vertex   3.734835e+001 8.434835e+001 4.500000e+000
      vertex   3.700000e+001 8.475000e+001 3.000000e+000
    endloop
  endfacet
  facet normal -5.555711e-001 -8.314691e-001 0.000000e+000
    outer loop
      vertex   4.204336e+001 3.705810e+001 3.750000e+000
      vertex   4.265165e+001 3.665165e+001 3.000000e+000
      vertex   4.265165e+001 3.665165e+001 4.500000e+000
    endloop
  endfacet
  facet normal -5.555717e-001 -8.314687e-001 -7.016423e-007
    outer loop
      vertex   4.204336e+001 3.705810e+001 3.750000e+000
      vertex   4.143506e+001 3.746455e+001 3.000000e+000
      vertex   4.265165e+001 3.665165e+001 3.000000e+000
    endloop
  endfacet
  facet normal -5.555723e-001 -8.314682e-001 -0.000000e+000
    outer loop
      vertex   4.204336e+001 3.705810e+001 3.750000e+000
      vertex   4.143506e+001 3.746455e+001 4.500000e+000
      vertex   4.143506e+001 3.746455e+001 3.000000e+000
    endloop
  endfacet
  facet normal -5.555686e-001 8.314707e-001 0.000000e+000
    outer loop
      vertex   4.204336e+001 8.394190e+001 3.750000e+000
      vertex   4.143506e+001 8.353545e+001 3.000000e+000
      vertex   4.143506e+001 8.353545e+001 4.500000e+000
    endloop
  endfacet
  facet normal -5.555699e-001 8.314698e-001 1.412887e-006
    outer loop
      vertex   4.204336e+001 8.394190e+001 3.750000e+000
      vertex   4.265165e+001 8.434835e+001 3.000000e+000
      vertex   4.143506e+001 8.353545e+001 3.000000e+000
    endloop
  endfacet
  facet normal -5.555711e-001 8.314691e-001 0.000000e+000
    outer loop
      vertex   4.204336e+001 8.394190e+001 3.750000e+000
      vertex   4.265165e+001 8.434835e+001 4.500000e+000
      vertex   4.265165e+001 8.434835e+001 3.000000e+000
    endloop
  endfacet
  facet normal -1.950972e-001 9.807839e-001 0.000000e+000
    outer loop
      vertex   4.071753e+001 8.339273e+001 3.750000e+000
      vertex   4.000000e+001 8.325000e+001 3.000000e+000
      vertex   4.000000e+001 8.325000e+001 4.500000e+000
    endloop
  endfacet
  facet normal -1.950917e-001 9.807850e-001 -5.484675e-006
    outer loop
      vertex   4.071753e+001 8.339273e+001 3.750000e+000
      vertex   4.143506e+001 8.353545e+001 3.000000e+000
      vertex   4.000000e+001 8.325000e+001 3.000000e+000
    endloop
  endfacet
  facet normal -1.950862e-001 9.807861e-001 0.000000e+000
    outer loop
      vertex   4.071753e+001 8.339273e+001 3.750000e+000
      vertex   4.143506e+001 8.353545e+001 4.500000e+000
      vertex   4.143506e+001 8.353545e+001 3.000000e+000
    endloop
  endfacet
  facet normal 1.950862e-001 9.807861e-001 -0.000000e+000
    outer loop
      vertex   3.928247e+001 8.339273e+001 3.750000e+000
      vertex   3.856494e+001 8.353545e+001 3.000000e+000
      vertex   3.856494e+001 8.353545e+001 4.500000e+000
    endloop
  endfacet
  facet normal 1.950917e-001 9.807850e-001 -5.484675e-006
    outer loop
      vertex   3.928247e+001 8.339273e+001 3.750000e+000
      vertex   4.000000e+001 8.325000e+001 3.000000e+000
      vertex   3.856494e+001 8.353545e+001 3.000000e+000
    endloop
  endfacet
  facet normal 1.950972e-001 9.807839e-001 0.000000e+000
    outer loop
      vertex   3.928247e+001 8.339273e+001 3.750000e+000
      vertex   4.000000e+001 8.325000e+001 4.500000e+000
      vertex   4.000000e+001 8.325000e+001 3.000000e+000
    endloop
  endfacet
  facet normal 5.555711e-001 8.314691e-001 -0.000000e+000
    outer loop
      vertex   3.795664e+001 8.394190e+001 3.750000e+000
      vertex   3.734835e+001 8.434835e+001 3.000000e+000
      vertex   3.734835e+001 8.434835e+001 4.500000e+000
    endloop
  endfacet
  facet normal 5.555699e-001 8.314698e-001 1.412887e-006
    outer loop
      vertex   3.795664e+001 8.394190e+001 3.750000e+000
      vertex   3.856494e+001 8.353545e+001 3.000000e+000
      vertex   3.734835e+001 8.434835e+001 3.000000e+000
    endloop
  endfacet
  facet normal 5.555686e-001 8.314707e-001 0.000000e+000
    outer loop
      vertex   3.795664e+001 8.394190e+001 3.750000e+000
      vertex   3.856494e+001 8.353545e+001 4.500000e+000
      vertex   3.856494e+001 8.353545e+001 3.000000e+000
    endloop
  endfacet
  facet normal 1.950892e-001 -9.807855e-001 1.998129e-006
    outer loop
      vertex   3.928247e+001 3.760728e+001 3.750000e+000
      vertex   3.856494e+001 3.746455e+001 3.000000e+000
      vertex   4.000000e+001 3.775000e+001 3.000000e+000
    endloop
  endfacet
  facet normal 0.000000e+000 0.000000e+000 -1.000000e+000
    outer loop
      vertex   4.300000e+001 5.100000e+001 3.000000e+000
      vertex   4.300000e+001 3.625000e+001 3.000000e+000
      vertex   3.700000e+001 5.100000e+001 3.000000e+000
    endloop
  endfacet
  facet normal -0.000000e+000 0.000000e+000 -1.000000e+000
    outer loop
      vertex   3.700000e+001 5.100000e+001 3.000000e+000
      vertex   3.734835e+001 3.665165e+001 3.000000e+000
      vertex   3.700000e+001 3.625000e+001 3.000000e+000
    endloop
  endfacet
  facet normal -0.000000e+000 0.000000e+000 -1.000000e+000
    outer loop
      vertex   3.700000e+001 5.100000e+001 3.000000e+000
      vertex   3.856494e+001 3.746455e+001 3.000000e+000
      vertex   3.734835e+001 3.665165e+001 3.000000e+000
    endloop
  endfacet
  facet normal -0.000000e+000 0.000000e+000 -1.000000e+000
    outer loop
      vertex   3.700000e+001 5.100000e+001 3.000000e+000
      vertex   4.000000e+001 3.775000e+001 3.000000e+000
      vertex   3.856494e+001 3.746455e+001 3.000000e+000
    endloop
  endfacet
  facet normal 0.000000e+000 0.000000e+000 -1.000000e+000
    outer loop
      vertex   3.700000e+001 5.100000e+001 3.000000e+000
      vertex   4.143506e+001 3.746455e+001 3.000000e+000
      vertex   4.000000e+001 3.775000e+001 3.000000e+000
    endloop
  endfacet
  facet normal 0.000000e+000 0.000000e+000 -1.000000e+000
    outer loop
      vertex   3.700000e+001 5.100000e+001 3.000000e+000
      vertex   4.265165e+001 3.665165e+001 3.000000e+000
      vertex   4.143506e+001 3.746455e+001 3.000000e+000
    endloop
  endfacet
  facet normal 0.000000e+000 0.000000e+000 -1.000000e+000
    outer loop
      vertex   3.700000e+001 5.100000e+001 3.000000e+000
      vertex   4.300000e+001 3.625000e+001 3.000000e+000
      vertex   4.265165e+001 3.665165e+001 3.000000e+000
    endloop
  endfacet
  facet normal 0.000000e+000 0.000000e+000 -1.000000e+000
    outer loop
      vertex   4.300000e+001 8.475000e+001 3.000000e+000
      vertex   4.300000e+001 7.000000e+001 3.000000e+000
      vertex   4.265165e+001 8.434835e+001 3.000000e+000
    endloop
  endfacet
  facet normal 0.000000e+000 0.000000e+000 -1.000000e+000
    outer loop
      vertex   4.265165e+001 8.434835e+001 3.000000e+000
      vertex   4.300000e+001 7.000000e+001 3.000000e+000
      vertex   4.143506e+001 8.353545e+001 3.000000e+000
    endloop
  endfacet
  facet normal 0.000000e+000 0.000000e+000 -1.000000e+000
    outer loop
      vertex   4.143506e+001 8.353545e+001 3.000000e+000
      vertex   4.300000e+001 7.000000e+001 3.000000e+000
      vertex   4.000000e+001 8.325000e+001 3.000000e+000
    endloop
  endfacet
  facet normal 0.000000e+000 0.000000e+000 -1.000000e+000
    outer loop
      vertex   4.000000e+001 8.325000e+001 3.000000e+000
      vertex   4.300000e+001 7.000000e+001 3.000000e+000
      vertex   3.856494e+001 8.353545e+001 3.000000e+000
    endloop
  endfacet
  facet normal 0.000000e+000 0.000000e+000 -1.000000e+000
    outer loop
      vertex   3.856494e+001 8.353545e+001 3.000000e+000
      vertex   4.300000e+001 7.000000e+001 3.000000e+000
      vertex   3.734835e+001 8.434835e+001 3.000000e+000
    endloop
  endfacet
  facet normal 0.000000e+000 0.000000e+000 -1.000000e+000
    outer loop
      vertex   3.734835e+001 8.434835e+001 3.000000e+000
      vertex   4.300000e+001 7.000000e+001 3.000000e+000
      vertex   3.700000e+001 8.475000e+001 3.000000e+000
    endloop
  endfacet
  facet normal 0.000000e+000 0.000000e+000 -1.000000e+000
    outer loop
      vertex   3.700000e+001 8.475000e+001 3.000000e+000
      vertex   4.300000e+001 7.000000e+001 3.000000e+000
      vertex   3.700000e+001 7.000000e+001 3.000000e+000
    endloop
  endfacet
  facet normal 5.555699e-001 8.314698e-001 -1.412887e-006
    outer loop
      vertex   3.795664e+001 8.394190e+001 3.750000e+000
      vertex   3.734835e+001 8.434835e+001 4.500000e+000
      vertex   3.856494e+001 8.353545e+001 4.500000e+000
    endloop
  endfacet
  facet normal 1.950917e-001 9.807850e-001 5.484675e-006
    outer loop
      vertex   3.928247e+001 8.339273e+001 3.750000e+000
      vertex   3.856494e+001 8.353545e+001 4.500000e+000
      vertex   4.000000e+001 8.325000e+001 4.500000e+000
    endloop
  endfacet
  facet normal -1.950917e-001 9.807850e-001 5.484675e-006
    outer loop
      vertex   4.071753e+001 8.339273e+001 3.750000e+000
      vertex   4.000000e+001 8.325000e+001 4.500000e+000
      vertex   4.143506e+001 8.353545e+001 4.500000e+000
    endloop
  endfacet
  facet normal -5.555699e-001 8.314698e-001 -1.412887e-006
    outer loop
      vertex   4.204336e+001 8.394190e+001 3.750000e+000
      vertex   4.143506e+001 8.353545e+001 4.500000e+000
      vertex   4.265165e+001 8.434835e+001 4.500000e+000
    endloop
  endfacet
  facet normal -5.555717e-001 -8.314687e-001 7.016423e-007
    outer loop
      vertex   4.204336e+001 3.705810e+001 3.750000e+000
      vertex   4.265165e+001 3.665165e+001 4.500000e+000
      vertex   4.143506e+001 3.746455e+001 4.500000e+000
    endloop
  endfacet
  facet normal -1.950892e-001 -9.807855e-001 -1.998129e-006
    outer loop
      vertex   4.071753e+001 3.760728e+001 3.750000e+000
      vertex   4.143506e+001 3.746455e+001 4.500000e+000
      vertex   4.000000e+001 3.775000e+001 4.500000e+000
    endloop
  endfacet
  facet normal 1.950892e-001 -9.807855e-001 -1.998129e-006
    outer loop
      vertex   3.928247e+001 3.760728e+001 3.750000e+000
      vertex   4.000000e+001 3.775000e+001 4.500000e+000
      vertex   3.856494e+001 3.746455e+001 4.500000e+000
    endloop
  endfacet
  facet normal 5.555717e-001 -8.314687e-001 7.016423e-007
    outer loop
      vertex   3.795664e+001 3.705810e+001 3.750000e+000
      vertex   3.856494e+001 3.746455e+001 4.500000e+000
      vertex   3.734835e+001 3.665165e+001 4.500000e+000
    endloop
  endfacet
  facet normal 0.000000e+000 0.000000e+000 1.000000e+000
    outer loop
      vertex   3.653545e+001 8.843507e+001 4.500000e+000
      vertex   2.812710e+001 9.342529e+001 4.500000e+000
      vertex   3.625000e+001 8.700000e+001 4.500000e+000
    endloop
  endfacet
  facet normal 0.000000e+000 0.000000e+000 1.000000e+000
    outer loop
      vertex   3.625000e+001 8.700000e+001 4.500000e+000
      vertex   2.668412e+001 8.922203e+001 4.500000e+000
      vertex   3.653545e+001 8.556493e+001 4.500000e+000
    endloop
  endfacet
  facet normal 0.000000e+000 0.000000e+000 1.000000e+000
    outer loop
      vertex   4.000000e+001 8.325000e+001 4.500000e+000
      vertex   3.856494e+001 8.353545e+001 4.500000e+000
      vertex   4.900000e+001 3.400000e+001 4.500000e+000
    endloop
  endfacet
  facet normal 0.000000e+000 0.000000e+000 1.000000e+000
    outer loop
      vertex   3.653545e+001 8.556493e+001 4.500000e+000
      vertex   2.668412e+001 8.922203e+001 4.500000e+000
      vertex   3.734835e+001 8.434835e+001 4.500000e+000
    endloop
  endfacet
  facet normal 0.000000e+000 0.000000e+000 1.000000e+000
    outer loop
      vertex   3.856494e+001 8.353545e+001 4.500000e+000
      vertex   3.734835e+001 8.434835e+001 4.500000e+000
      vertex   4.900000e+001 3.400000e+001 4.500000e+000
    endloop
  endfacet
  facet normal 0.000000e+000 0.000000e+000 1.000000e+000
    outer loop
      vertex   3.734835e+001 8.434835e+001 4.500000e+000
      vertex   2.668412e+001 8.922203e+001 4.500000e+000
      vertex   4.900000e+001 3.400000e+001 4.500000e+000
    endloop
  endfacet
  facet normal -0.000000e+000 0.000000e+000 1.000000e+000
    outer loop
      vertex   2.668412e+001 8.922203e+001 4.500000e+000
      vertex   2.668412e+001 8.477797e+001 4.500000e+000
      vertex   4.900000e+001 3.400000e+001 4.500000e+000
    endloop
  endfacet
  facet normal -0.000000e+000 -0.000000e+000 1.000000e+000
    outer loop
      vertex   2.668412e+001 8.477797e+001 4.500000e+000
      vertex   2.669325e+001 8.472395e+001 4.500000e+000
      vertex   4.900000e+001 3.400000e+001 4.500000e+000
    endloop
  endfacet
  facet normal 0.000000e+000 -0.000000e+000 1.000000e+000
    outer loop
      vertex   2.669325e+001 8.472395e+001 4.500000e+000
      vertex   3.100000e+001 3.400000e+001 4.500000e+000
      vertex   3.856494e+001 3.746455e+001 4.500000e+000
    endloop
  endfacet
  facet normal 0.000000e+000 -0.000000e+000 1.000000e+000
    outer loop
      vertex   2.669325e+001 8.472395e+001 4.500000e+000
      vertex   3.856494e+001 3.746455e+001 4.500000e+000
      vertex   4.000000e+001 3.775000e+001 4.500000e+000
    endloop
  endfacet
  facet normal -0.000000e+000 -0.000000e+000 1.000000e+000
    outer loop
      vertex   2.669325e+001 8.472395e+001 4.500000e+000
      vertex   4.000000e+001 3.775000e+001 4.500000e+000
      vertex   4.143506e+001 3.746455e+001 4.500000e+000
    endloop
  endfacet
  facet normal -0.000000e+000 -0.000000e+000 1.000000e+000
    outer loop
      vertex   2.669325e+001 8.472395e+001 4.500000e+000
      vertex   4.143506e+001 3.746455e+001 4.500000e+000
      vertex   4.900000e+001 3.400000e+001 4.500000e+000
    endloop
  endfacet
  facet normal 0.000000e+000 0.000000e+000 1.000000e+000
    outer loop
      vertex   4.900000e+001 3.400000e+001 4.500000e+000
      vertex   4.265165e+001 3.665165e+001 4.500000e+000
      vertex   4.831491e+001 3.055585e+001 4.500000e+000
    endloop
  endfacet
  facet normal 0.000000e+000 0.000000e+000 1.000000e+000
    outer loop
      vertex   4.900000e+001 3.400000e+001 4.500000e+000
      vertex   4.143506e+001 3.746455e+001 4.500000e+000
      vertex   4.265165e+001 3.665165e+001 4.500000e+000
    endloop
  endfacet
  facet normal -0.000000e+000 -0.000000e+000 1.000000e+000
    outer loop
      vertex   4.265165e+001 3.665165e+001 4.500000e+000
      vertex   4.346455e+001 3.543506e+001 4.500000e+000
      vertex   4.831491e+001 3.055585e+001 4.500000e+000
    endloop
  endfacet
  facet normal -0.000000e+000 -0.000000e+000 1.000000e+000
    outer loop
      vertex   4.346455e+001 3.543506e+001 4.500000e+000
      vertex   4.375000e+001 3.400000e+001 4.500000e+000
      vertex   4.831491e+001 3.055585e+001 4.500000e+000
    endloop
  endfacet
  facet normal -0.000000e+000 0.000000e+000 1.000000e+000
    outer loop
      vertex   4.143506e+001 8.353545e+001 4.500000e+000
      vertex   4.000000e+001 8.325000e+001 4.500000e+000
      vertex   4.900000e+001 3.400000e+001 4.500000e+000
    endloop
  endfacet
  facet normal -0.000000e+000 0.000000e+000 1.000000e+000
    outer loop
      vertex   2.812710e+001 9.342529e+001 4.500000e+000
      vertex   2.668412e+001 8.922203e+001 4.500000e+000
      vertex   3.625000e+001 8.700000e+001 4.500000e+000
    endloop
  endfacet
  facet normal 0.000000e+000 0.000000e+000 1.000000e+000
    outer loop
      vertex   3.856494e+001 3.746455e+001 4.500000e+000
      vertex   3.100000e+001 3.400000e+001 4.500000e+000
      vertex   3.734835e+001 3.665165e+001 4.500000e+000
    endloop
  endfacet
  facet normal -0.000000e+000 0.000000e+000 1.000000e+000
    outer loop
      vertex   4.346455e+001 3.256494e+001 4.500000e+000
      vertex   4.265165e+001 3.134835e+001 4.500000e+000
      vertex   4.636396e+001 2.763604e+001 4.500000e+000
    endloop
  endfacet
  facet normal 0.000000e+000 0.000000e+000 1.000000e+000
    outer loop
      vertex   3.734835e+001 3.665165e+001 4.500000e+000
      vertex   3.100000e+001 3.400000e+001 4.500000e+000
      vertex   3.653545e+001 3.543506e+001 4.500000e+000
    endloop
  endfacet
  facet normal -0.000000e+000 0.000000e+000 1.000000e+000
    outer loop
      vertex   4.265165e+001 3.134835e+001 4.500000e+000
      vertex   4.143506e+001 3.053545e+001 4.500000e+000
      vertex   4.636396e+001 2.763604e+001 4.500000e+000
    endloop
  endfacet
  facet normal 0.000000e+000 0.000000e+000 1.000000e+000
    outer loop
      vertex   3.653545e+001 3.543506e+001 4.500000e+000
      vertex   3.100000e+001 3.400000e+001 4.500000e+000
      vertex   3.625000e+001 3.400000e+001 4.500000e+000
    endloop
  endfacet
  facet normal 0.000000e+000 0.000000e+000 1.000000e+000
    outer loop
      vertex   4.636396e+001 2.763604e+001 4.500000e+000
      vertex   4.143506e+001 3.053545e+001 4.500000e+000
      vertex   4.344415e+001 2.568508e+001 4.500000e+000
    endloop
  endfacet
  facet normal -0.000000e+000 0.000000e+000 1.000000e+000
    outer loop
      vertex   4.143506e+001 3.053545e+001 4.500000e+000
      vertex   4.000000e+001 3.025000e+001 4.500000e+000
      vertex   4.344415e+001 2.568508e+001 4.500000e+000
    endloop
  endfacet
  facet normal -0.000000e+000 0.000000e+000 1.000000e+000
    outer loop
      vertex   3.625000e+001 3.400000e+001 4.500000e+000
      vertex   3.100000e+001 3.400000e+001 4.500000e+000
      vertex   3.653545e+001 3.256494e+001 4.500000e+000
    endloop
  endfacet
  facet normal 0.000000e+000 0.000000e+000 1.000000e+000
    outer loop
      vertex   4.000000e+001 3.025000e+001 4.500000e+000
      vertex   3.856494e+001 3.053545e+001 4.500000e+000
      vertex   4.344415e+001 2.568508e+001 4.500000e+000
    endloop
  endfacet
  facet normal 0.000000e+000 0.000000e+000 1.000000e+000
    outer loop
      vertex   3.653545e+001 3.256494e+001 4.500000e+000
      vertex   3.100000e+001 3.400000e+001 4.500000e+000
      vertex   3.734835e+001 3.134835e+001 4.500000e+000
    endloop
  endfacet
  facet normal 0.000000e+000 0.000000e+000 1.000000e+000
    outer loop
      vertex   3.856494e+001 3.053545e+001 4.500000e+000
      vertex   3.734835e+001 3.134835e+001 4.500000e+000
      vertex   4.344415e+001 2.568508e+001 4.500000e+000
    endloop
  endfacet
  facet normal 0.000000e+000 0.000000e+000 1.000000e+000
    outer loop
      vertex   3.734835e+001 3.134835e+001 4.500000e+000
      vertex   3.100000e+001 3.400000e+001 4.500000e+000
      vertex   4.344415e+001 2.568508e+001 4.500000e+000
    endloop
  endfacet
  facet normal 0.000000e+000 0.000000e+000 1.000000e+000
    outer loop
      vertex   4.344415e+001 2.568508e+001 4.500000e+000
      vertex   3.100000e+001 3.400000e+001 4.500000e+000
      vertex   4.000000e+001 2.500000e+001 4.500000e+000
    endloop
  endfacet
  facet normal -0.000000e+000 -0.000000e+000 1.000000e+000
    outer loop
      vertex   3.100000e+001 3.400000e+001 4.500000e+000
      vertex   3.168508e+001 3.055585e+001 4.500000e+000
      vertex   4.000000e+001 2.500000e+001 4.500000e+000
    endloop
  endfacet
  facet normal 0.000000e+000 0.000000e+000 1.000000e+000
    outer loop
      vertex   4.000000e+001 2.500000e+001 4.500000e+000
      vertex   3.168508e+001 3.055585e+001 4.500000e+000
      vertex   3.655585e+001 2.568508e+001 4.500000e+000
    endloop
  endfacet
  facet normal -0.000000e+000 -0.000000e+000 1.000000e+000
    outer loop
      vertex   3.168508e+001 3.055585e+001 4.500000e+000
      vertex   3.363604e+001 2.763604e+001 4.500000e+000
      vertex   3.655585e+001 2.568508e+001 4.500000e+000
    endloop
  endfacet
  facet normal -0.000000e+000 0.000000e+000 1.000000e+000
    outer loop
      vertex   4.265165e+001 8.434835e+001 4.500000e+000
      vertex   4.143506e+001 8.353545e+001 4.500000e+000
      vertex   4.900000e+001 3.400000e+001 4.500000e+000
    endloop
  endfacet
  facet normal 0.000000e+000 0.000000e+000 1.000000e+000
    outer loop
      vertex   3.734835e+001 8.965165e+001 4.500000e+000
      vertex   2.812710e+001 9.342529e+001 4.500000e+000
      vertex   3.653545e+001 8.843507e+001 4.500000e+000
    endloop
  endfacet
  facet normal -0.000000e+000 0.000000e+000 1.000000e+000
    outer loop
      vertex   4.346455e+001 8.556493e+001 4.500000e+000
      vertex   4.265165e+001 8.434835e+001 4.500000e+000
      vertex   4.900000e+001 3.400000e+001 4.500000e+000
    endloop
  endfacet
  facet normal 0.000000e+000 0.000000e+000 1.000000e+000
    outer loop
      vertex   3.856494e+001 9.046455e+001 4.500000e+000
      vertex   2.812710e+001 9.342529e+001 4.500000e+000
      vertex   3.734835e+001 8.965165e+001 4.500000e+000
    endloop
  endfacet
  facet normal -0.000000e+000 0.000000e+000 1.000000e+000
    outer loop
      vertex   3.085670e+001 9.693227e+001 4.500000e+000
      vertex   2.812710e+001 9.342529e+001 4.500000e+000
      vertex   3.856494e+001 9.046455e+001 4.500000e+000
    endloop
  endfacet
  facet normal -0.000000e+000 0.000000e+000 1.000000e+000
    outer loop
      vertex   4.375000e+001 8.700000e+001 4.500000e+000
      vertex   4.346455e+001 8.556493e+001 4.500000e+000
      vertex   4.900000e+001 3.400000e+001 4.500000e+000
    endloop
  endfacet
  facet normal 0.000000e+000 0.000000e+000 1.000000e+000
    outer loop
      vertex   4.000000e+001 9.075000e+001 4.500000e+000
      vertex   3.085670e+001 9.693227e+001 4.500000e+000
      vertex   3.856494e+001 9.046455e+001 4.500000e+000
    endloop
  endfacet
  facet normal 0.000000e+000 0.000000e+000 1.000000e+000
    outer loop
      vertex   4.143506e+001 9.046455e+001 4.500000e+000
      vertex   3.085670e+001 9.693227e+001 4.500000e+000
      vertex   4.000000e+001 9.075000e+001 4.500000e+000
    endloop
  endfacet
  facet normal 0.000000e+000 0.000000e+000 1.000000e+000
    outer loop
      vertex   5.330675e+001 8.472395e+001 4.500000e+000
      vertex   4.143506e+001 9.046455e+001 4.500000e+000
      vertex   4.265165e+001 8.965165e+001 4.500000e+000
    endloop
  endfacet
  facet normal 0.000000e+000 0.000000e+000 1.000000e+000
    outer loop
      vertex   5.330675e+001 8.472395e+001 4.500000e+000
      vertex   3.085670e+001 9.693227e+001 4.500000e+000
      vertex   4.143506e+001 9.046455e+001 4.500000e+000
    endloop
  endfacet
  facet normal 0.000000e+000 0.000000e+000 1.000000e+000
    outer loop
      vertex   4.738380e+001 9.830175e+001 4.500000e+000
      vertex   4.331405e+001 1.000869e+002 4.500000e+000
      vertex   5.065340e+001 9.529187e+001 4.500000e+000
    endloop
  endfacet
  facet normal 0.000000e+000 0.000000e+000 1.000000e+000
    outer loop
      vertex   5.065340e+001 9.529187e+001 4.500000e+000
      vertex   4.331405e+001 1.000869e+002 4.500000e+000
      vertex   5.276853e+001 9.138345e+001 4.500000e+000
    endloop
  endfacet
  facet normal 0.000000e+000 0.000000e+000 1.000000e+000
    outer loop
      vertex   4.331405e+001 1.000869e+002 4.500000e+000
      vertex   3.888518e+001 1.004539e+002 4.500000e+000
      vertex   5.276853e+001 9.138345e+001 4.500000e+000
    endloop
  endfacet
  facet normal 0.000000e+000 0.000000e+000 1.000000e+000
    outer loop
      vertex   5.276853e+001 9.138345e+001 4.500000e+000
      vertex   3.888518e+001 1.004539e+002 4.500000e+000
      vertex   5.350000e+001 8.700000e+001 4.500000e+000
    endloop
  endfacet
  facet normal -0.000000e+000 0.000000e+000 1.000000e+000
    outer loop
      vertex   3.888518e+001 1.004539e+002 4.500000e+000
      vertex   3.457711e+001 9.936294e+001 4.500000e+000
      vertex   5.350000e+001 8.700000e+001 4.500000e+000
    endloop
  endfacet
  facet normal 0.000000e+000 0.000000e+000 1.000000e+000
    outer loop
      vertex   5.350000e+001 8.700000e+001 4.500000e+000
      vertex   3.457711e+001 9.936294e+001 4.500000e+000
      vertex   5.330675e+001 8.472395e+001 4.500000e+000
    endloop
  endfacet
  facet normal -0.000000e+000 0.000000e+000 1.000000e+000
    outer loop
      vertex   3.457711e+001 9.936294e+001 4.500000e+000
      vertex   3.085670e+001 9.693227e+001 4.500000e+000
      vertex   5.330675e+001 8.472395e+001 4.500000e+000
    endloop
  endfacet
  facet normal 0.000000e+000 0.000000e+000 1.000000e+000
    outer loop
      vertex   5.330675e+001 8.472395e+001 4.500000e+000
      vertex   4.375000e+001 8.700000e+001 4.500000e+000
      vertex   4.900000e+001 3.400000e+001 4.500000e+000
    endloop
  endfacet
  facet normal 0.000000e+000 0.000000e+000 1.000000e+000
    outer loop
      vertex   5.330675e+001 8.472395e+001 4.500000e+000
      vertex   4.346455e+001 8.843507e+001 4.500000e+000
      vertex   4.375000e+001 8.700000e+001 4.500000e+000
    endloop
  endfacet
  facet normal 0.000000e+000 0.000000e+000 1.000000e+000
    outer loop
      vertex   5.330675e+001 8.472395e+001 4.500000e+000
      vertex   4.265165e+001 8.965165e+001 4.500000e+000
      vertex   4.346455e+001 8.843507e+001 4.500000e+000
    endloop
  endfacet
  facet normal 0.000000e+000 0.000000e+000 1.000000e+000
    outer loop
      vertex   4.831491e+001 3.055585e+001 4.500000e+000
      vertex   4.375000e+001 3.400000e+001 4.500000e+000
      vertex   4.636396e+001 2.763604e+001 4.500000e+000
    endloop
  endfacet
  facet normal -0.000000e+000 0.000000e+000 1.000000e+000
    outer loop
      vertex   4.375000e+001 3.400000e+001 4.500000e+000
      vertex   4.346455e+001 3.256494e+001 4.500000e+000
      vertex   4.636396e+001 2.763604e+001 4.500000e+000
    endloop
  endfacet
endsolid
