solid ascii
  facet normal -8.314698e-001 5.555700e-001 -5.375942e-007
    outer loop
      vertex   4.454648e+001 2.136531e+001 5.950000e+000
      vertex   4.487164e+001 2.185195e+001 3.000000e+000
      vertex   4.422132e+001 2.087868e+001 3.000000e+000
    endloop
  endfacet
  facet normal 0.000000e+000 -1.000000e+000 0.000000e+000
    outer loop
      vertex   4.687500e+001 1.600000e+001 5.950000e+000
      vertex   4.195000e+001 1.600000e+001 3.000000e+000
      vertex   5.180000e+001 1.600000e+001 3.000000e+000
    endloop
  endfacet
  facet normal 0.000000e+000 -1.000000e+000 0.000000e+000
    outer loop
      vertex   4.687500e+001 1.600000e+001 5.950000e+000
      vertex   5.180000e+001 1.600000e+001 3.000000e+000
      vertex   5.180000e+001 1.600000e+001 8.900000e+000
    endloop
  endfacet
  facet normal 5.555716e-001 8.314688e-001 0.000000e+000
    outer loop
      vertex   4.046532e+001 2.055352e+001 5.950000e+000
      vertex   4.095195e+001 2.022836e+001 8.900000e+000
      vertex   4.095195e+001 2.022836e+001 3.000000e+000
    endloop
  endfacet
  facet normal 0.000000e+000 -1.000000e+000 0.000000e+000
    outer loop
      vertex   1.625000e+001 1.600000e+001 5.950000e+000
      vertex   1.150000e+001 1.600000e+001 3.000000e+000
      vertex   2.100000e+001 1.600000e+001 3.000000e+000
    endloop
  endfacet
  facet normal 0.000000e+000 -1.000000e+000 0.000000e+000
    outer loop
      vertex   1.625000e+001 1.600000e+001 5.950000e+000
      vertex   2.100000e+001 1.600000e+001 3.000000e+000
      vertex   2.100000e+001 1.600000e+001 8.900000e+000
    endloop
  endfacet
  facet normal 1.950904e-001 9.807853e-001 -3.170677e-007
    outer loop
      vertex   4.152597e+001 2.011418e+001 5.950000e+000
      vertex   4.210000e+001 2.000000e+001 3.000000e+000
      vertex   4.095195e+001 2.022836e+001 3.000000e+000
    endloop
  endfacet
  facet normal 0.000000e+000 -1.000000e+000 0.000000e+000
    outer loop
      vertex   1.625000e+001 1.600000e+001 5.950000e+000
      vertex   1.150000e+001 1.600000e+001 8.900000e+000
      vertex   1.150000e+001 1.600000e+001 3.000000e+000
    endloop
  endfacet
  facet normal -1.000000e+000 0.000000e+000 0.000000e+000
    outer loop
      vertex   1.150000e+001 2.200000e+001 5.950000e+000
      vertex   1.150000e+001 2.800000e+001 3.000000e+000
      vertex   1.150000e+001 1.600000e+001 3.000000e+000
    endloop
  endfacet
  facet normal -1.000000e+000 0.000000e+000 0.000000e+000
    outer loop
      vertex   1.150000e+001 2.200000e+001 5.950000e+000
      vertex   1.150000e+001 1.600000e+001 3.000000e+000
      vertex   1.150000e+001 1.600000e+001 8.900000e+000
    endloop
  endfacet
  facet normal 1.950888e-001 9.807856e-001 -0.000000e+000
    outer loop
      vertex   4.152597e+001 2.011418e+001 5.950000e+000
      vertex   4.095195e+001 2.022836e+001 3.000000e+000
      vertex   4.095195e+001 2.022836e+001 8.900000e+000
    endloop
  endfacet
  facet normal -1.000000e+000 0.000000e+000 -0.000000e+000
    outer loop
      vertex   1.150000e+001 2.200000e+001 5.950000e+000
      vertex   1.150000e+001 2.800000e+001 8.900000e+000
      vertex   1.150000e+001 2.800000e+001 3.000000e+000
    endloop
  endfacet
  facet normal 0.000000e+000 1.000000e+000 0.000000e+000
    outer loop
      vertex   3.165000e+001 2.900000e+001 5.950000e+000
      vertex   1.250000e+001 2.900000e+001 3.000000e+000
      vertex   1.250000e+001 2.900000e+001 8.900000e+000
    endloop
  endfacet
  facet normal 1.950920e-001 9.807850e-001 0.000000e+000
    outer loop
      vertex   4.152597e+001 2.011418e+001 5.950000e+000
      vertex   4.210000e+001 2.000000e+001 8.900000e+000
      vertex   4.210000e+001 2.000000e+001 3.000000e+000
    endloop
  endfacet
  facet normal 0.000000e+000 1.000000e+000 0.000000e+000
    outer loop
      vertex   3.165000e+001 2.900000e+001 5.950000e+000
      vertex   5.080000e+001 2.900000e+001 8.900000e+000
      vertex   5.080000e+001 2.900000e+001 3.000000e+000
    endloop
  endfacet
  facet normal 0.000000e+000 1.000000e+000 0.000000e+000
    outer loop
      vertex   3.165000e+001 2.900000e+001 5.950000e+000
      vertex   5.080000e+001 2.900000e+001 3.000000e+000
      vertex   1.250000e+001 2.900000e+001 3.000000e+000
    endloop
  endfacet
  facet normal 1.000000e+000 0.000000e+000 -0.000000e+000
    outer loop
      vertex   5.180000e+001 2.200000e+001 5.950000e+000
      vertex   5.180000e+001 2.800000e+001 3.000000e+000
      vertex   5.180000e+001 2.800000e+001 8.900000e+000
    endloop
  endfacet
  facet normal -1.950907e-001 9.807852e-001 0.000000e+000
    outer loop
      vertex   4.267403e+001 2.011418e+001 5.950000e+000
      vertex   4.210000e+001 2.000000e+001 3.000000e+000
      vertex   4.210000e+001 2.000000e+001 8.900000e+000
    endloop
  endfacet
  facet normal 1.000000e+000 0.000000e+000 0.000000e+000
    outer loop
      vertex   5.180000e+001 2.200000e+001 5.950000e+000
      vertex   5.180000e+001 1.600000e+001 8.900000e+000
      vertex   5.180000e+001 1.600000e+001 3.000000e+000
    endloop
  endfacet
  facet normal 1.000000e+000 0.000000e+000 0.000000e+000
    outer loop
      vertex   5.180000e+001 2.200000e+001 5.950000e+000
      vertex   5.180000e+001 1.600000e+001 3.000000e+000
      vertex   5.180000e+001 2.800000e+001 3.000000e+000
    endloop
  endfacet
  facet normal 7.071068e-001 7.071068e-001 0.000000e+000
    outer loop
      vertex   5.130000e+001 2.850000e+001 5.950000e+000
      vertex   5.180000e+001 2.800000e+001 8.900000e+000
      vertex   5.180000e+001 2.800000e+001 3.000000e+000
    endloop
  endfacet
  facet normal 7.071068e-001 7.071068e-001 0.000000e+000
    outer loop
      vertex   5.130000e+001 2.850000e+001 5.950000e+000
      vertex   5.180000e+001 2.800000e+001 3.000000e+000
      vertex   5.080000e+001 2.900000e+001 3.000000e+000
    endloop
  endfacet
  facet normal 7.071068e-001 7.071068e-001 -0.000000e+000
    outer loop
      vertex   5.130000e+001 2.850000e+001 5.950000e+000
      vertex   5.080000e+001 2.900000e+001 3.000000e+000
      vertex   5.080000e+001 2.900000e+001 8.900000e+000
    endloop
  endfacet
  facet normal -5.555700e-001 8.314698e-001 3.592087e-007
    outer loop
      vertex   4.373469e+001 2.055352e+001 5.950000e+000
      vertex   4.422132e+001 2.087868e+001 3.000000e+000
      vertex   4.324805e+001 2.022836e+001 3.000000e+000
    endloop
  endfacet
  facet normal -7.071068e-001 7.071068e-001 0.000000e+000
    outer loop
      vertex   1.200000e+001 2.850000e+001 5.950000e+000
      vertex   1.250000e+001 2.900000e+001 8.900000e+000
      vertex   1.250000e+001 2.900000e+001 3.000000e+000
    endloop
  endfacet
  facet normal -7.071068e-001 7.071068e-001 0.000000e+000
    outer loop
      vertex   1.200000e+001 2.850000e+001 5.950000e+000
      vertex   1.250000e+001 2.900000e+001 3.000000e+000
      vertex   1.150000e+001 2.800000e+001 3.000000e+000
    endloop
  endfacet
  facet normal -7.071068e-001 7.071068e-001 0.000000e+000
    outer loop
      vertex   1.200000e+001 2.850000e+001 5.950000e+000
      vertex   1.150000e+001 2.800000e+001 3.000000e+000
      vertex   1.150000e+001 2.800000e+001 8.900000e+000
    endloop
  endfacet
  facet normal -5.555685e-001 8.314708e-001 0.000000e+000
    outer loop
      vertex   4.373469e+001 2.055352e+001 5.950000e+000
      vertex   4.324805e+001 2.022836e+001 3.000000e+000
      vertex   4.324805e+001 2.022836e+001 8.900000e+000
    endloop
  endfacet
  facet normal 0.000000e+000 -1.000000e+000 0.000000e+000
    outer loop
      vertex   3.147500e+001 -4.000000e+000 5.950000e+000
      vertex   2.100000e+001 -4.000000e+000 3.000000e+000
      vertex   4.195000e+001 -4.000000e+000 3.000000e+000
    endloop
  endfacet
  facet normal 0.000000e+000 -1.000000e+000 0.000000e+000
    outer loop
      vertex   3.147500e+001 -4.000000e+000 5.950000e+000
      vertex   4.195000e+001 -4.000000e+000 3.000000e+000
      vertex   4.195000e+001 -4.000000e+000 8.900000e+000
    endloop
  endfacet
  facet normal -5.555716e-001 8.314688e-001 0.000000e+000
    outer loop
      vertex   4.373469e+001 2.055352e+001 5.950000e+000
      vertex   4.422132e+001 2.087868e+001 8.900000e+000
      vertex   4.422132e+001 2.087868e+001 3.000000e+000
    endloop
  endfacet
  facet normal 0.000000e+000 -1.000000e+000 0.000000e+000
    outer loop
      vertex   3.147500e+001 -4.000000e+000 5.950000e+000
      vertex   2.100000e+001 -4.000000e+000 8.900000e+000
      vertex   2.100000e+001 -4.000000e+000 3.000000e+000
    endloop
  endfacet
  facet normal -9.807853e-001 -1.950901e-001 -3.801364e-007
    outer loop
      vertex   2.388582e+001 2.357402e+001 5.950000e+000
      vertex   2.377164e+001 2.414805e+001 3.000000e+000
      vertex   2.400000e+001 2.300000e+001 3.000000e+000
    endloop
  endfacet
  facet normal -9.807850e-001 -1.950920e-001 0.000000e+000
    outer loop
      vertex   2.388582e+001 2.357402e+001 5.950000e+000
      vertex   2.400000e+001 2.300000e+001 3.000000e+000
      vertex   2.400000e+001 2.300000e+001 8.900000e+000
    endloop
  endfacet
  facet normal -8.314713e-001 5.555677e-001 0.000000e+000
    outer loop
      vertex   4.454648e+001 2.136531e+001 5.950000e+000
      vertex   4.422132e+001 2.087868e+001 3.000000e+000
      vertex   4.422132e+001 2.087868e+001 8.900000e+000
    endloop
  endfacet
  facet normal -9.807857e-001 -1.950882e-001 -0.000000e+000
    outer loop
      vertex   2.388582e+001 2.357402e+001 5.950000e+000
      vertex   2.377164e+001 2.414805e+001 8.900000e+000
      vertex   2.377164e+001 2.414805e+001 3.000000e+000
    endloop
  endfacet
  facet normal -8.314698e-001 -5.555700e-001 0.000000e+000
    outer loop
      vertex   2.344648e+001 2.463469e+001 5.950000e+000
      vertex   2.312132e+001 2.512132e+001 3.000000e+000
      vertex   2.377164e+001 2.414805e+001 3.000000e+000
    endloop
  endfacet
  facet normal -8.314698e-001 -5.555700e-001 0.000000e+000
    outer loop
      vertex   2.344648e+001 2.463469e+001 5.950000e+000
      vertex   2.377164e+001 2.414805e+001 3.000000e+000
      vertex   2.377164e+001 2.414805e+001 8.900000e+000
    endloop
  endfacet
  facet normal -8.314683e-001 5.555723e-001 0.000000e+000
    outer loop
      vertex   4.454648e+001 2.136531e+001 5.950000e+000
      vertex   4.487164e+001 2.185195e+001 8.900000e+000
      vertex   4.487164e+001 2.185195e+001 3.000000e+000
    endloop
  endfacet
  facet normal -8.314698e-001 -5.555700e-001 -0.000000e+000
    outer loop
      vertex   2.344648e+001 2.463469e+001 5.950000e+000
      vertex   2.312132e+001 2.512132e+001 8.900000e+000
      vertex   2.312132e+001 2.512132e+001 3.000000e+000
    endloop
  endfacet
  facet normal -5.555700e-001 -8.314698e-001 0.000000e+000
    outer loop
      vertex   2.263469e+001 2.544648e+001 5.950000e+000
      vertex   2.214805e+001 2.577164e+001 3.000000e+000
      vertex   2.312132e+001 2.512132e+001 3.000000e+000
    endloop
  endfacet
  facet normal -5.555700e-001 -8.314698e-001 0.000000e+000
    outer loop
      vertex   2.263469e+001 2.544648e+001 5.950000e+000
      vertex   2.312132e+001 2.512132e+001 3.000000e+000
      vertex   2.312132e+001 2.512132e+001 8.900000e+000
    endloop
  endfacet
  facet normal -9.807864e-001 1.950851e-001 0.000000e+000
    outer loop
      vertex   4.498582e+001 2.242598e+001 5.950000e+000
      vertex   4.487164e+001 2.185195e+001 3.000000e+000
      vertex   4.487164e+001 2.185195e+001 8.900000e+000
    endloop
  endfacet
  facet normal -5.555700e-001 -8.314698e-001 -0.000000e+000
    outer loop
      vertex   2.263469e+001 2.544648e+001 5.950000e+000
      vertex   2.214805e+001 2.577164e+001 8.900000e+000
      vertex   2.214805e+001 2.577164e+001 3.000000e+000
    endloop
  endfacet
  facet normal -1.950901e-001 -9.807853e-001 -3.801364e-007
    outer loop
      vertex   2.157402e+001 2.588582e+001 5.950000e+000
      vertex   2.100000e+001 2.600000e+001 3.000000e+000
      vertex   2.214805e+001 2.577164e+001 3.000000e+000
    endloop
  endfacet
  facet normal -1.950882e-001 -9.807857e-001 0.000000e+000
    outer loop
      vertex   2.157402e+001 2.588582e+001 5.950000e+000
      vertex   2.214805e+001 2.577164e+001 3.000000e+000
      vertex   2.214805e+001 2.577164e+001 8.900000e+000
    endloop
  endfacet
  facet normal -9.807850e-001 1.950920e-001 0.000000e+000
    outer loop
      vertex   4.498582e+001 2.242598e+001 5.950000e+000
      vertex   4.510000e+001 2.300000e+001 8.900000e+000
      vertex   4.510000e+001 2.300000e+001 3.000000e+000
    endloop
  endfacet
  facet normal -1.950920e-001 -9.807850e-001 -0.000000e+000
    outer loop
      vertex   2.157402e+001 2.588582e+001 5.950000e+000
      vertex   2.100000e+001 2.600000e+001 8.900000e+000
      vertex   2.100000e+001 2.600000e+001 3.000000e+000
    endloop
  endfacet
  facet normal 1.950901e-001 -9.807853e-001 -2.539991e-007
    outer loop
      vertex   2.042597e+001 2.588582e+001 5.950000e+000
      vertex   1.985195e+001 2.577164e+001 3.000000e+000
      vertex   2.100000e+001 2.600000e+001 3.000000e+000
    endloop
  endfacet
  facet normal 1.950913e-001 -9.807851e-001 0.000000e+000
    outer loop
      vertex   2.042597e+001 2.588582e+001 5.950000e+000
      vertex   2.100000e+001 2.600000e+001 3.000000e+000
      vertex   2.100000e+001 2.600000e+001 8.900000e+000
    endloop
  endfacet
  facet normal 1.000000e+000 0.000000e+000 0.000000e+000
    outer loop
      vertex   4.195000e+001 1.600000e+001 3.000000e+000
      vertex   4.195000e+001 1.570595e+000 5.299438e+000
      vertex   4.195000e+001 1.202080e+000 4.747919e+000
    endloop
  endfacet
  facet normal 1.950888e-001 -9.807856e-001 0.000000e+000
    outer loop
      vertex   2.042597e+001 2.588582e+001 5.950000e+000
      vertex   1.985195e+001 2.577164e+001 8.900000e+000
      vertex   1.985195e+001 2.577164e+001 3.000000e+000
    endloop
  endfacet
  facet normal 5.555700e-001 -8.314698e-001 0.000000e+000
    outer loop
      vertex   1.936531e+001 2.544648e+001 5.950000e+000
      vertex   1.887868e+001 2.512132e+001 3.000000e+000
      vertex   1.985195e+001 2.577164e+001 3.000000e+000
    endloop
  endfacet
  facet normal 5.555700e-001 -8.314698e-001 0.000000e+000
    outer loop
      vertex   1.936531e+001 2.544648e+001 5.950000e+000
      vertex   1.985195e+001 2.577164e+001 3.000000e+000
      vertex   1.985195e+001 2.577164e+001 8.900000e+000
    endloop
  endfacet
  facet normal 0.000000e+000 0.000000e+000 -1.000000e+000
    outer loop
      vertex   2.377164e+001 2.185195e+001 3.000000e+000
      vertex   4.195000e+001 -4.000000e+000 3.000000e+000
      vertex   2.312132e+001 2.087868e+001 3.000000e+000
    endloop
  endfacet
  facet normal 5.555700e-001 -8.314698e-001 0.000000e+000
    outer loop
      vertex   1.936531e+001 2.544648e+001 5.950000e+000
      vertex   1.887868e+001 2.512132e+001 8.900000e+000
      vertex   1.887868e+001 2.512132e+001 3.000000e+000
    endloop
  endfacet
  facet normal 8.314698e-001 -5.555700e-001 0.000000e+000
    outer loop
      vertex   1.855352e+001 2.463469e+001 5.950000e+000
      vertex   1.822836e+001 2.414805e+001 3.000000e+000
      vertex   1.887868e+001 2.512132e+001 3.000000e+000
    endloop
  endfacet
  facet normal 8.314698e-001 -5.555700e-001 0.000000e+000
    outer loop
      vertex   1.855352e+001 2.463469e+001 5.950000e+000
      vertex   1.887868e+001 2.512132e+001 3.000000e+000
      vertex   1.887868e+001 2.512132e+001 8.900000e+000
    endloop
  endfacet
  facet normal 1.000000e+000 0.000000e+000 0.000000e+000
    outer loop
      vertex   4.195000e+001 1.600000e+001 3.000000e+000
      vertex   4.195000e+001 1.700001e+000 5.950000e+000
      vertex   4.195000e+001 1.570595e+000 5.299438e+000
    endloop
  endfacet
  facet normal 8.314698e-001 -5.555700e-001 0.000000e+000
    outer loop
      vertex   1.855352e+001 2.463469e+001 5.950000e+000
      vertex   1.822836e+001 2.414805e+001 8.900000e+000
      vertex   1.822836e+001 2.414805e+001 3.000000e+000
    endloop
  endfacet
  facet normal 9.807853e-001 -1.950901e-001 2.539991e-007
    outer loop
      vertex   1.811418e+001 2.357402e+001 5.950000e+000
      vertex   1.800000e+001 2.300000e+001 3.000000e+000
      vertex   1.822836e+001 2.414805e+001 3.000000e+000
    endloop
  endfacet
  facet normal 9.807851e-001 -1.950913e-001 0.000000e+000
    outer loop
      vertex   1.811418e+001 2.357402e+001 5.950000e+000
      vertex   1.822836e+001 2.414805e+001 3.000000e+000
      vertex   1.822836e+001 2.414805e+001 8.900000e+000
    endloop
  endfacet
  facet normal 1.000000e+000 0.000000e+000 0.000000e+000
    outer loop
      vertex   4.195000e+001 1.600000e+001 3.000000e+000
      vertex   4.195000e+001 1.202080e+000 7.152081e+000
      vertex   4.195000e+001 1.570595e+000 6.600562e+000
    endloop
  endfacet
  facet normal 9.807856e-001 -1.950888e-001 0.000000e+000
    outer loop
      vertex   1.811418e+001 2.357402e+001 5.950000e+000
      vertex   1.800000e+001 2.300000e+001 8.900000e+000
      vertex   1.800000e+001 2.300000e+001 3.000000e+000
    endloop
  endfacet
  facet normal 9.807853e-001 1.950901e-001 2.539991e-007
    outer loop
      vertex   1.811418e+001 2.242598e+001 5.950000e+000
      vertex   1.822836e+001 2.185195e+001 3.000000e+000
      vertex   1.800000e+001 2.300000e+001 3.000000e+000
    endloop
  endfacet
  facet normal 9.807856e-001 1.950888e-001 -0.000000e+000
    outer loop
      vertex   1.811418e+001 2.242598e+001 5.950000e+000
      vertex   1.800000e+001 2.300000e+001 3.000000e+000
      vertex   1.800000e+001 2.300000e+001 8.900000e+000
    endloop
  endfacet
  facet normal 1.000000e+000 0.000000e+000 0.000000e+000
    outer loop
      vertex   4.195000e+001 1.600000e+001 3.000000e+000
      vertex   4.195000e+001 -4.000000e+000 8.900000e+000
      vertex   4.195000e+001 6.505623e-001 7.520595e+000
    endloop
  endfacet
  facet normal 9.807851e-001 1.950913e-001 0.000000e+000
    outer loop
      vertex   1.811418e+001 2.242598e+001 5.950000e+000
      vertex   1.822836e+001 2.185195e+001 8.900000e+000
      vertex   1.822836e+001 2.185195e+001 3.000000e+000
    endloop
  endfacet
  facet normal 8.314698e-001 5.555700e-001 0.000000e+000
    outer loop
      vertex   1.855352e+001 2.136531e+001 5.950000e+000
      vertex   1.887868e+001 2.087868e+001 3.000000e+000
      vertex   1.822836e+001 2.185195e+001 3.000000e+000
    endloop
  endfacet
  facet normal 8.314698e-001 5.555700e-001 -0.000000e+000
    outer loop
      vertex   1.855352e+001 2.136531e+001 5.950000e+000
      vertex   1.822836e+001 2.185195e+001 3.000000e+000
      vertex   1.822836e+001 2.185195e+001 8.900000e+000
    endloop
  endfacet
  facet normal 1.000000e+000 0.000000e+000 0.000000e+000
    outer loop
      vertex   4.195000e+001 -1.202080e+000 7.152081e+000
      vertex   4.195000e+001 -4.000000e+000 3.000000e+000
      vertex   4.195000e+001 -1.570595e+000 6.600562e+000
    endloop
  endfacet
  facet normal 8.314698e-001 5.555700e-001 0.000000e+000
    outer loop
      vertex   1.855352e+001 2.136531e+001 5.950000e+000
      vertex   1.887868e+001 2.087868e+001 8.900000e+000
      vertex   1.887868e+001 2.087868e+001 3.000000e+000
    endloop
  endfacet
  facet normal 5.555700e-001 8.314698e-001 0.000000e+000
    outer loop
      vertex   1.936531e+001 2.055352e+001 5.950000e+000
      vertex   1.985195e+001 2.022836e+001 3.000000e+000
      vertex   1.887868e+001 2.087868e+001 3.000000e+000
    endloop
  endfacet
  facet normal 5.555700e-001 8.314698e-001 -0.000000e+000
    outer loop
      vertex   1.936531e+001 2.055352e+001 5.950000e+000
      vertex   1.887868e+001 2.087868e+001 3.000000e+000
      vertex   1.887868e+001 2.087868e+001 8.900000e+000
    endloop
  endfacet
  facet normal 1.000000e+000 0.000000e+000 0.000000e+000
    outer loop
      vertex   4.195000e+001 -1.700001e+000 5.950000e+000
      vertex   4.195000e+001 -4.000000e+000 3.000000e+000
      vertex   4.195000e+001 -1.570595e+000 5.299438e+000
    endloop
  endfacet
  facet normal 5.555700e-001 8.314698e-001 0.000000e+000
    outer loop
      vertex   1.936531e+001 2.055352e+001 5.950000e+000
      vertex   1.985195e+001 2.022836e+001 8.900000e+000
      vertex   1.985195e+001 2.022836e+001 3.000000e+000
    endloop
  endfacet
  facet normal 1.950901e-001 9.807853e-001 -2.539991e-007
    outer loop
      vertex   2.042597e+001 2.011418e+001 5.950000e+000
      vertex   2.100000e+001 2.000000e+001 3.000000e+000
      vertex   1.985195e+001 2.022836e+001 3.000000e+000
    endloop
  endfacet
  facet normal 1.950888e-001 9.807856e-001 -0.000000e+000
    outer loop
      vertex   2.042597e+001 2.011418e+001 5.950000e+000
      vertex   1.985195e+001 2.022836e+001 3.000000e+000
      vertex   1.985195e+001 2.022836e+001 8.900000e+000
    endloop
  endfacet
  facet normal 1.000000e+000 -0.000000e+000 0.000000e+000
    outer loop
      vertex   4.195000e+001 6.505623e-001 4.379405e+000
      vertex   4.195000e+001 0.000000e+000 4.250000e+000
      vertex   4.195000e+001 -4.000000e+000 3.000000e+000
    endloop
  endfacet
  facet normal 1.950913e-001 9.807851e-001 0.000000e+000
    outer loop
      vertex   2.042597e+001 2.011418e+001 5.950000e+000
      vertex   2.100000e+001 2.000000e+001 8.900000e+000
      vertex   2.100000e+001 2.000000e+001 3.000000e+000
    endloop
  endfacet
  facet normal -1.950901e-001 9.807853e-001 -3.801364e-007
    outer loop
      vertex   2.157402e+001 2.011418e+001 5.950000e+000
      vertex   2.214805e+001 2.022836e+001 3.000000e+000
      vertex   2.100000e+001 2.000000e+001 3.000000e+000
    endloop
  endfacet
  facet normal -1.950920e-001 9.807850e-001 0.000000e+000
    outer loop
      vertex   2.157402e+001 2.011418e+001 5.950000e+000
      vertex   2.100000e+001 2.000000e+001 3.000000e+000
      vertex   2.100000e+001 2.000000e+001 8.900000e+000
    endloop
  endfacet
  facet normal 0.000000e+000 -1.000000e+000 0.000000e+000
    outer loop
      vertex   4.687500e+001 1.600000e+001 5.950000e+000
      vertex   4.195000e+001 1.600000e+001 8.900000e+000
      vertex   4.195000e+001 1.600000e+001 3.000000e+000
    endloop
  endfacet
  facet normal -1.950882e-001 9.807857e-001 0.000000e+000
    outer loop
      vertex   2.157402e+001 2.011418e+001 5.950000e+000
      vertex   2.214805e+001 2.022836e+001 8.900000e+000
      vertex   2.214805e+001 2.022836e+001 3.000000e+000
    endloop
  endfacet
  facet normal -5.555700e-001 8.314698e-001 0.000000e+000
    outer loop
      vertex   2.263469e+001 2.055352e+001 5.950000e+000
      vertex   2.312132e+001 2.087868e+001 3.000000e+000
      vertex   2.214805e+001 2.022836e+001 3.000000e+000
    endloop
  endfacet
  facet normal -5.555700e-001 8.314698e-001 0.000000e+000
    outer loop
      vertex   2.263469e+001 2.055352e+001 5.950000e+000
      vertex   2.214805e+001 2.022836e+001 3.000000e+000
      vertex   2.214805e+001 2.022836e+001 8.900000e+000
    endloop
  endfacet
  facet normal 1.000000e+000 0.000000e+000 0.000000e+000
    outer loop
      vertex   4.195000e+001 -1.202080e+000 4.747919e+000
      vertex   4.195000e+001 -4.000000e+000 3.000000e+000
      vertex   4.195000e+001 -6.505623e-001 4.379405e+000
    endloop
  endfacet
  facet normal -5.555700e-001 8.314698e-001 0.000000e+000
    outer loop
      vertex   2.263469e+001 2.055352e+001 5.950000e+000
      vertex   2.312132e+001 2.087868e+001 8.900000e+000
      vertex   2.312132e+001 2.087868e+001 3.000000e+000
    endloop
  endfacet
  facet normal -8.314698e-001 5.555700e-001 0.000000e+000
    outer loop
      vertex   2.344648e+001 2.136531e+001 5.950000e+000
      vertex   2.377164e+001 2.185195e+001 3.000000e+000
      vertex   2.312132e+001 2.087868e+001 3.000000e+000
    endloop
  endfacet
  facet normal -8.314698e-001 5.555700e-001 0.000000e+000
    outer loop
      vertex   2.344648e+001 2.136531e+001 5.950000e+000
      vertex   2.312132e+001 2.087868e+001 3.000000e+000
      vertex   2.312132e+001 2.087868e+001 8.900000e+000
    endloop
  endfacet
  facet normal 1.000000e+000 0.000000e+000 0.000000e+000
    outer loop
      vertex   4.195000e+001 1.600000e+001 3.000000e+000
      vertex   4.195000e+001 6.505623e-001 4.379405e+000
      vertex   4.195000e+001 -4.000000e+000 3.000000e+000
    endloop
  endfacet
  facet normal -8.314698e-001 5.555700e-001 0.000000e+000
    outer loop
      vertex   2.344648e+001 2.136531e+001 5.950000e+000
      vertex   2.377164e+001 2.185195e+001 8.900000e+000
      vertex   2.377164e+001 2.185195e+001 3.000000e+000
    endloop
  endfacet
  facet normal -9.807853e-001 1.950901e-001 -3.801364e-007
    outer loop
      vertex   2.388582e+001 2.242598e+001 5.950000e+000
      vertex   2.400000e+001 2.300000e+001 3.000000e+000
      vertex   2.377164e+001 2.185195e+001 3.000000e+000
    endloop
  endfacet
  facet normal -9.807857e-001 1.950882e-001 0.000000e+000
    outer loop
      vertex   2.388582e+001 2.242598e+001 5.950000e+000
      vertex   2.377164e+001 2.185195e+001 3.000000e+000
      vertex   2.377164e+001 2.185195e+001 8.900000e+000
    endloop
  endfacet
  facet normal 0.000000e+000 0.000000e+000 -1.000000e+000
    outer loop
      vertex   1.150000e+001 2.800000e+001 3.000000e+000
      vertex   2.100000e+001 1.600000e+001 3.000000e+000
      vertex   1.150000e+001 1.600000e+001 3.000000e+000
    endloop
  endfacet
  facet normal -9.807850e-001 1.950920e-001 0.000000e+000
    outer loop
      vertex   2.388582e+001 2.242598e+001 5.950000e+000
      vertex   2.400000e+001 2.300000e+001 8.900000e+000
      vertex   2.400000e+001 2.300000e+001 3.000000e+000
    endloop
  endfacet
  facet normal -9.807857e-001 -1.950885e-001 -6.972038e-007
    outer loop
      vertex   4.498582e+001 2.357402e+001 5.950000e+000
      vertex   4.487164e+001 2.414805e+001 3.000000e+000
      vertex   4.510000e+001 2.300000e+001 3.000000e+000
    endloop
  endfacet
  facet normal -9.807850e-001 -1.950920e-001 0.000000e+000
    outer loop
      vertex   4.498582e+001 2.357402e+001 5.950000e+000
      vertex   4.510000e+001 2.300000e+001 3.000000e+000
      vertex   4.510000e+001 2.300000e+001 8.900000e+000
    endloop
  endfacet
  facet normal 0.000000e+000 0.000000e+000 -1.000000e+000
    outer loop
      vertex   1.822836e+001 2.185195e+001 3.000000e+000
      vertex   1.887868e+001 2.087868e+001 3.000000e+000
      vertex   1.150000e+001 2.800000e+001 3.000000e+000
    endloop
  endfacet
  facet normal -9.807864e-001 -1.950851e-001 -0.000000e+000
    outer loop
      vertex   4.498582e+001 2.357402e+001 5.950000e+000
      vertex   4.487164e+001 2.414805e+001 8.900000e+000
      vertex   4.487164e+001 2.414805e+001 3.000000e+000
    endloop
  endfacet
  facet normal -8.314698e-001 -5.555700e-001 -5.375942e-007
    outer loop
      vertex   4.454648e+001 2.463469e+001 5.950000e+000
      vertex   4.422132e+001 2.512132e+001 3.000000e+000
      vertex   4.487164e+001 2.414805e+001 3.000000e+000
    endloop
  endfacet
  facet normal -8.314683e-001 -5.555723e-001 0.000000e+000
    outer loop
      vertex   4.454648e+001 2.463469e+001 5.950000e+000
      vertex   4.487164e+001 2.414805e+001 3.000000e+000
      vertex   4.487164e+001 2.414805e+001 8.900000e+000
    endloop
  endfacet
  facet normal 0.000000e+000 0.000000e+000 -1.000000e+000
    outer loop
      vertex   1.985195e+001 2.022836e+001 3.000000e+000
      vertex   2.100000e+001 1.600000e+001 3.000000e+000
      vertex   1.887868e+001 2.087868e+001 3.000000e+000
    endloop
  endfacet
  facet normal -8.314713e-001 -5.555677e-001 -0.000000e+000
    outer loop
      vertex   4.454648e+001 2.463469e+001 5.950000e+000
      vertex   4.422132e+001 2.512132e+001 8.900000e+000
      vertex   4.422132e+001 2.512132e+001 3.000000e+000
    endloop
  endfacet
  facet normal -5.555700e-001 -8.314698e-001 3.592087e-007
    outer loop
      vertex   4.373469e+001 2.544648e+001 5.950000e+000
      vertex   4.324805e+001 2.577164e+001 3.000000e+000
      vertex   4.422132e+001 2.512132e+001 3.000000e+000
    endloop
  endfacet
  facet normal -5.555716e-001 -8.314688e-001 0.000000e+000
    outer loop
      vertex   4.373469e+001 2.544648e+001 5.950000e+000
      vertex   4.422132e+001 2.512132e+001 3.000000e+000
      vertex   4.422132e+001 2.512132e+001 8.900000e+000
    endloop
  endfacet
  facet normal 0.000000e+000 0.000000e+000 -1.000000e+000
    outer loop
      vertex   1.800000e+001 2.300000e+001 3.000000e+000
      vertex   1.822836e+001 2.185195e+001 3.000000e+000
      vertex   1.250000e+001 2.900000e+001 3.000000e+000
    endloop
  endfacet
  facet normal -5.555685e-001 -8.314708e-001 -0.000000e+000
    outer loop
      vertex   4.373469e+001 2.544648e+001 5.950000e+000
      vertex   4.324805e+001 2.577164e+001 8.900000e+000
      vertex   4.324805e+001 2.577164e+001 3.000000e+000
    endloop
  endfacet
  facet normal -1.950898e-001 -9.807854e-001 -1.909307e-007
    outer loop
      vertex   4.267403e+001 2.588582e+001 5.950000e+000
      vertex   4.210000e+001 2.600000e+001 3.000000e+000
      vertex   4.324805e+001 2.577164e+001 3.000000e+000
    endloop
  endfacet
  facet normal -1.950888e-001 -9.807856e-001 0.000000e+000
    outer loop
      vertex   4.267403e+001 2.588582e+001 5.950000e+000
      vertex   4.324805e+001 2.577164e+001 3.000000e+000
      vertex   4.324805e+001 2.577164e+001 8.900000e+000
    endloop
  endfacet
  facet normal 0.000000e+000 0.000000e+000 -1.000000e+000
    outer loop
      vertex   2.377164e+001 2.414805e+001 3.000000e+000
      vertex   4.195000e+001 -4.000000e+000 3.000000e+000
      vertex   2.400000e+001 2.300000e+001 3.000000e+000
    endloop
  endfacet
  facet normal -1.950907e-001 -9.807852e-001 -0.000000e+000
    outer loop
      vertex   4.267403e+001 2.588582e+001 5.950000e+000
      vertex   4.210000e+001 2.600000e+001 8.900000e+000
      vertex   4.210000e+001 2.600000e+001 3.000000e+000
    endloop
  endfacet
  facet normal 1.950904e-001 -9.807853e-001 -3.170677e-007
    outer loop
      vertex   4.152597e+001 2.588582e+001 5.950000e+000
      vertex   4.095195e+001 2.577164e+001 3.000000e+000
      vertex   4.210000e+001 2.600000e+001 3.000000e+000
    endloop
  endfacet
  facet normal 1.950920e-001 -9.807850e-001 0.000000e+000
    outer loop
      vertex   4.152597e+001 2.588582e+001 5.950000e+000
      vertex   4.210000e+001 2.600000e+001 3.000000e+000
      vertex   4.210000e+001 2.600000e+001 8.900000e+000
    endloop
  endfacet
  facet normal 0.000000e+000 0.000000e+000 -1.000000e+000
    outer loop
      vertex   2.214805e+001 2.577164e+001 3.000000e+000
      vertex   2.100000e+001 2.600000e+001 3.000000e+000
      vertex   1.250000e+001 2.900000e+001 3.000000e+000
    endloop
  endfacet
  facet normal 1.950888e-001 -9.807856e-001 0.000000e+000
    outer loop
      vertex   4.152597e+001 2.588582e+001 5.950000e+000
      vertex   4.095195e+001 2.577164e+001 8.900000e+000
      vertex   4.095195e+001 2.577164e+001 3.000000e+000
    endloop
  endfacet
  facet normal 5.555700e-001 -8.314698e-001 -3.592087e-007
    outer loop
      vertex   4.046532e+001 2.544648e+001 5.950000e+000
      vertex   3.997868e+001 2.512132e+001 3.000000e+000
      vertex   4.095195e+001 2.577164e+001 3.000000e+000
    endloop
  endfacet
  facet normal 5.555716e-001 -8.314688e-001 0.000000e+000
    outer loop
      vertex   4.046532e+001 2.544648e+001 5.950000e+000
      vertex   4.095195e+001 2.577164e+001 3.000000e+000
      vertex   4.095195e+001 2.577164e+001 8.900000e+000
    endloop
  endfacet
  facet normal 0.000000e+000 0.000000e+000 -1.000000e+000
    outer loop
      vertex   2.100000e+001 2.000000e+001 3.000000e+000
      vertex   2.100000e+001 1.600000e+001 3.000000e+000
      vertex   1.985195e+001 2.022836e+001 3.000000e+000
    endloop
  endfacet
  facet normal 5.555685e-001 -8.314708e-001 0.000000e+000
    outer loop
      vertex   4.046532e+001 2.544648e+001 5.950000e+000
      vertex   3.997868e+001 2.512132e+001 8.900000e+000
      vertex   3.997868e+001 2.512132e+001 3.000000e+000
    endloop
  endfacet
  facet normal 8.314698e-001 -5.555700e-001 5.375942e-007
    outer loop
      vertex   3.965352e+001 2.463469e+001 5.950000e+000
      vertex   3.932836e+001 2.414805e+001 3.000000e+000
      vertex   3.997868e+001 2.512132e+001 3.000000e+000
    endloop
  endfacet
  facet normal 8.314683e-001 -5.555723e-001 0.000000e+000
    outer loop
      vertex   3.965352e+001 2.463469e+001 5.950000e+000
      vertex   3.997868e+001 2.512132e+001 3.000000e+000
      vertex   3.997868e+001 2.512132e+001 8.900000e+000
    endloop
  endfacet
  facet normal -1.000000e+000 0.000000e+000 0.000000e+000
    outer loop
      vertex   2.100000e+001 1.600000e+001 3.000000e+000
      vertex   2.100000e+001 1.570595e+000 5.299438e+000
      vertex   2.100000e+001 1.700001e+000 5.950000e+000
    endloop
  endfacet
  facet normal 8.314713e-001 -5.555677e-001 0.000000e+000
    outer loop
      vertex   3.965352e+001 2.463469e+001 5.950000e+000
      vertex   3.932836e+001 2.414805e+001 8.900000e+000
      vertex   3.932836e+001 2.414805e+001 3.000000e+000
    endloop
  endfacet
  facet normal 9.807850e-001 -1.950917e-001 -6.306913e-008
    outer loop
      vertex   3.921418e+001 2.357402e+001 5.950000e+000
      vertex   3.910000e+001 2.300000e+001 3.000000e+000
      vertex   3.932836e+001 2.414805e+001 3.000000e+000
    endloop
  endfacet
  facet normal 9.807851e-001 -1.950913e-001 0.000000e+000
    outer loop
      vertex   3.921418e+001 2.357402e+001 5.950000e+000
      vertex   3.932836e+001 2.414805e+001 3.000000e+000
      vertex   3.932836e+001 2.414805e+001 8.900000e+000
    endloop
  endfacet
  facet normal 0.000000e+000 0.000000e+000 -1.000000e+000
    outer loop
      vertex   4.195000e+001 1.600000e+001 3.000000e+000
      vertex   4.195000e+001 -4.000000e+000 3.000000e+000
      vertex   2.377164e+001 2.414805e+001 3.000000e+000
    endloop
  endfacet
  facet normal 9.807850e-001 -1.950920e-001 0.000000e+000
    outer loop
      vertex   3.921418e+001 2.357402e+001 5.950000e+000
      vertex   3.910000e+001 2.300000e+001 8.900000e+000
      vertex   3.910000e+001 2.300000e+001 3.000000e+000
    endloop
  endfacet
  facet normal 9.807850e-001 1.950917e-001 -6.306913e-008
    outer loop
      vertex   3.921418e+001 2.242598e+001 5.950000e+000
      vertex   3.932836e+001 2.185195e+001 3.000000e+000
      vertex   3.910000e+001 2.300000e+001 3.000000e+000
    endloop
  endfacet
  facet normal 9.807850e-001 1.950920e-001 -0.000000e+000
    outer loop
      vertex   3.921418e+001 2.242598e+001 5.950000e+000
      vertex   3.910000e+001 2.300000e+001 3.000000e+000
      vertex   3.910000e+001 2.300000e+001 8.900000e+000
    endloop
  endfacet
  facet normal 0.000000e+000 0.000000e+000 -1.000000e+000
    outer loop
      vertex   3.997868e+001 2.087868e+001 3.000000e+000
      vertex   4.195000e+001 1.600000e+001 3.000000e+000
      vertex   2.214805e+001 2.577164e+001 3.000000e+000
    endloop
  endfacet
  facet normal 9.807851e-001 1.950913e-001 0.000000e+000
    outer loop
      vertex   3.921418e+001 2.242598e+001 5.950000e+000
      vertex   3.932836e+001 2.185195e+001 8.900000e+000
      vertex   3.932836e+001 2.185195e+001 3.000000e+000
    endloop
  endfacet
  facet normal 8.314698e-001 5.555700e-001 5.375942e-007
    outer loop
      vertex   3.965352e+001 2.136531e+001 5.950000e+000
      vertex   3.997868e+001 2.087868e+001 3.000000e+000
      vertex   3.932836e+001 2.185195e+001 3.000000e+000
    endloop
  endfacet
  facet normal 8.314713e-001 5.555677e-001 -0.000000e+000
    outer loop
      vertex   3.965352e+001 2.136531e+001 5.950000e+000
      vertex   3.932836e+001 2.185195e+001 3.000000e+000
      vertex   3.932836e+001 2.185195e+001 8.900000e+000
    endloop
  endfacet
  facet normal 0.000000e+000 0.000000e+000 -1.000000e+000
    outer loop
      vertex   3.997868e+001 2.087868e+001 3.000000e+000
      vertex   2.214805e+001 2.577164e+001 3.000000e+000
      vertex   1.250000e+001 2.900000e+001 3.000000e+000
    endloop
  endfacet
  facet normal 8.314683e-001 5.555723e-001 0.000000e+000
    outer loop
      vertex   3.965352e+001 2.136531e+001 5.950000e+000
      vertex   3.997868e+001 2.087868e+001 8.900000e+000
      vertex   3.997868e+001 2.087868e+001 3.000000e+000
    endloop
  endfacet
  facet normal 5.555700e-001 8.314698e-001 -3.592087e-007
    outer loop
      vertex   4.046532e+001 2.055352e+001 5.950000e+000
      vertex   4.095195e+001 2.022836e+001 3.000000e+000
      vertex   3.997868e+001 2.087868e+001 3.000000e+000
    endloop
  endfacet
  facet normal 5.555685e-001 8.314708e-001 -0.000000e+000
    outer loop
      vertex   4.046532e+001 2.055352e+001 5.950000e+000
      vertex   3.997868e+001 2.087868e+001 3.000000e+000
      vertex   3.997868e+001 2.087868e+001 8.900000e+000
    endloop
  endfacet
  facet normal 0.000000e+000 0.000000e+000 -1.000000e+000
    outer loop
      vertex   3.932836e+001 2.185195e+001 3.000000e+000
      vertex   3.997868e+001 2.087868e+001 3.000000e+000
      vertex   1.250000e+001 2.900000e+001 3.000000e+000
    endloop
  endfacet
  facet normal 0.000000e+000 0.000000e+000 -1.000000e+000
    outer loop
      vertex   4.195000e+001 -4.000000e+000 3.000000e+000
      vertex   2.100000e+001 -4.000000e+000 3.000000e+000
      vertex   2.214805e+001 2.022836e+001 3.000000e+000
    endloop
  endfacet
  facet normal 0.000000e+000 0.000000e+000 -1.000000e+000
    outer loop
      vertex   4.095195e+001 2.022836e+001 3.000000e+000
      vertex   4.195000e+001 1.600000e+001 3.000000e+000
      vertex   3.997868e+001 2.087868e+001 3.000000e+000
    endloop
  endfacet
  facet normal 0.000000e+000 0.000000e+000 -1.000000e+000
    outer loop
      vertex   2.312132e+001 2.087868e+001 3.000000e+000
      vertex   4.195000e+001 -4.000000e+000 3.000000e+000
      vertex   2.214805e+001 2.022836e+001 3.000000e+000
    endloop
  endfacet
  facet normal 0.000000e+000 0.000000e+000 -1.000000e+000
    outer loop
      vertex   1.887868e+001 2.512132e+001 3.000000e+000
      vertex   1.822836e+001 2.414805e+001 3.000000e+000
      vertex   1.250000e+001 2.900000e+001 3.000000e+000
    endloop
  endfacet
  facet normal 0.000000e+000 0.000000e+000 -1.000000e+000
    outer loop
      vertex   3.910000e+001 2.300000e+001 3.000000e+000
      vertex   3.932836e+001 2.185195e+001 3.000000e+000
      vertex   1.250000e+001 2.900000e+001 3.000000e+000
    endloop
  endfacet
  facet normal -1.950898e-001 9.807854e-001 -1.909307e-007
    outer loop
      vertex   4.267403e+001 2.011418e+001 5.950000e+000
      vertex   4.324805e+001 2.022836e+001 3.000000e+000
      vertex   4.210000e+001 2.000000e+001 3.000000e+000
    endloop
  endfacet
  facet normal 0.000000e+000 0.000000e+000 -1.000000e+000
    outer loop
      vertex   4.210000e+001 2.000000e+001 3.000000e+000
      vertex   4.195000e+001 1.600000e+001 3.000000e+000
      vertex   4.095195e+001 2.022836e+001 3.000000e+000
    endloop
  endfacet
  facet normal 0.000000e+000 0.000000e+000 -1.000000e+000
    outer loop
      vertex   3.932836e+001 2.414805e+001 3.000000e+000
      vertex   3.910000e+001 2.300000e+001 3.000000e+000
      vertex   1.250000e+001 2.900000e+001 3.000000e+000
    endloop
  endfacet
  facet normal -1.950888e-001 9.807856e-001 0.000000e+000
    outer loop
      vertex   4.267403e+001 2.011418e+001 5.950000e+000
      vertex   4.324805e+001 2.022836e+001 8.900000e+000
      vertex   4.324805e+001 2.022836e+001 3.000000e+000
    endloop
  endfacet
  facet normal 0.000000e+000 0.000000e+000 -1.000000e+000
    outer loop
      vertex   4.324805e+001 2.022836e+001 3.000000e+000
      vertex   4.195000e+001 1.600000e+001 3.000000e+000
      vertex   4.210000e+001 2.000000e+001 3.000000e+000
    endloop
  endfacet
  facet normal 0.000000e+000 0.000000e+000 -1.000000e+000
    outer loop
      vertex   1.985195e+001 2.577164e+001 3.000000e+000
      vertex   1.887868e+001 2.512132e+001 3.000000e+000
      vertex   1.250000e+001 2.900000e+001 3.000000e+000
    endloop
  endfacet
  facet normal 0.000000e+000 0.000000e+000 -1.000000e+000
    outer loop
      vertex   3.997868e+001 2.512132e+001 3.000000e+000
      vertex   3.932836e+001 2.414805e+001 3.000000e+000
      vertex   1.250000e+001 2.900000e+001 3.000000e+000
    endloop
  endfacet
  facet normal 0.000000e+000 0.000000e+000 -1.000000e+000
    outer loop
      vertex   4.422132e+001 2.087868e+001 3.000000e+000
      vertex   4.195000e+001 1.600000e+001 3.000000e+000
      vertex   4.324805e+001 2.022836e+001 3.000000e+000
    endloop
  endfacet
  facet normal 1.000000e+000 0.000000e+000 0.000000e+000
    outer loop
      vertex   4.195000e+001 1.600000e+001 3.000000e+000
      vertex   4.195000e+001 1.202080e+000 4.747919e+000
      vertex   4.195000e+001 6.505623e-001 4.379405e+000
    endloop
  endfacet
  facet normal 0.000000e+000 0.000000e+000 -1.000000e+000
    outer loop
      vertex   4.095195e+001 2.577164e+001 3.000000e+000
      vertex   3.997868e+001 2.512132e+001 3.000000e+000
      vertex   1.250000e+001 2.900000e+001 3.000000e+000
    endloop
  endfacet
  facet normal 0.000000e+000 0.000000e+000 -1.000000e+000
    outer loop
      vertex   4.487164e+001 2.185195e+001 3.000000e+000
      vertex   4.195000e+001 1.600000e+001 3.000000e+000
      vertex   4.422132e+001 2.087868e+001 3.000000e+000
    endloop
  endfacet
  facet normal 0.000000e+000 0.000000e+000 -1.000000e+000
    outer loop
      vertex   4.210000e+001 2.600000e+001 3.000000e+000
      vertex   4.095195e+001 2.577164e+001 3.000000e+000
      vertex   1.250000e+001 2.900000e+001 3.000000e+000
    endloop
  endfacet
  facet normal -9.807857e-001 1.950885e-001 -6.972038e-007
    outer loop
      vertex   4.498582e+001 2.242598e+001 5.950000e+000
      vertex   4.510000e+001 2.300000e+001 3.000000e+000
      vertex   4.487164e+001 2.185195e+001 3.000000e+000
    endloop
  endfacet
  facet normal 0.000000e+000 0.000000e+000 -1.000000e+000
    outer loop
      vertex   5.180000e+001 1.600000e+001 3.000000e+000
      vertex   4.487164e+001 2.414805e+001 3.000000e+000
      vertex   4.422132e+001 2.512132e+001 3.000000e+000
    endloop
  endfacet
  facet normal 0.000000e+000 0.000000e+000 -1.000000e+000
    outer loop
      vertex   5.180000e+001 1.600000e+001 3.000000e+000
      vertex   4.510000e+001 2.300000e+001 3.000000e+000
      vertex   4.487164e+001 2.414805e+001 3.000000e+000
    endloop
  endfacet
  facet normal 0.000000e+000 0.000000e+000 -1.000000e+000
    outer loop
      vertex   5.180000e+001 1.600000e+001 3.000000e+000
      vertex   4.487164e+001 2.185195e+001 3.000000e+000
      vertex   4.510000e+001 2.300000e+001 3.000000e+000
    endloop
  endfacet
  facet normal 0.000000e+000 0.000000e+000 -1.000000e+000
    outer loop
      vertex   5.180000e+001 1.600000e+001 3.000000e+000
      vertex   4.195000e+001 1.600000e+001 3.000000e+000
      vertex   4.487164e+001 2.185195e+001 3.000000e+000
    endloop
  endfacet
  facet normal 0.000000e+000 0.000000e+000 -1.000000e+000
    outer loop
      vertex   5.080000e+001 2.900000e+001 3.000000e+000
      vertex   5.180000e+001 1.600000e+001 3.000000e+000
      vertex   4.422132e+001 2.512132e+001 3.000000e+000
    endloop
  endfacet
  facet normal 0.000000e+000 0.000000e+000 -1.000000e+000
    outer loop
      vertex   2.100000e+001 2.600000e+001 3.000000e+000
      vertex   1.985195e+001 2.577164e+001 3.000000e+000
      vertex   1.250000e+001 2.900000e+001 3.000000e+000
    endloop
  endfacet
  facet normal 0.000000e+000 0.000000e+000 -1.000000e+000
    outer loop
      vertex   5.080000e+001 2.900000e+001 3.000000e+000
      vertex   4.422132e+001 2.512132e+001 3.000000e+000
      vertex   4.324805e+001 2.577164e+001 3.000000e+000
    endloop
  endfacet
  facet normal 0.000000e+000 0.000000e+000 -1.000000e+000
    outer loop
      vertex   5.080000e+001 2.900000e+001 3.000000e+000
      vertex   4.324805e+001 2.577164e+001 3.000000e+000
      vertex   4.210000e+001 2.600000e+001 3.000000e+000
    endloop
  endfacet
  facet normal 1.000000e+000 0.000000e+000 0.000000e+000
    outer loop
      vertex   4.195000e+001 1.600000e+001 3.000000e+000
      vertex   4.195000e+001 1.570595e+000 6.600562e+000
      vertex   4.195000e+001 1.700001e+000 5.950000e+000
    endloop
  endfacet
  facet normal -1.000000e+000 0.000000e+000 0.000000e+000
    outer loop
      vertex   2.100000e+001 1.600000e+001 8.900000e+000
      vertex   2.100000e+001 1.600000e+001 3.000000e+000
      vertex   2.100000e+001 -4.000000e+000 8.900000e+000
    endloop
  endfacet
  facet normal 1.000000e+000 0.000000e+000 0.000000e+000
    outer loop
      vertex   4.195000e+001 1.600000e+001 3.000000e+000
      vertex   4.195000e+001 6.505623e-001 7.520595e+000
      vertex   4.195000e+001 1.202080e+000 7.152081e+000
    endloop
  endfacet
  facet normal -1.000000e+000 0.000000e+000 0.000000e+000
    outer loop
      vertex   2.100000e+001 1.600000e+001 3.000000e+000
      vertex   2.100000e+001 -4.000000e+000 3.000000e+000
      vertex   2.100000e+001 6.505623e-001 4.379405e+000
    endloop
  endfacet
  facet normal 1.000000e+000 0.000000e+000 0.000000e+000
    outer loop
      vertex   4.195000e+001 -4.000000e+000 8.900000e+000
      vertex   4.195000e+001 -4.000000e+000 3.000000e+000
      vertex   4.195000e+001 -1.202080e+000 7.152081e+000
    endloop
  endfacet
  facet normal -1.000000e+000 0.000000e+000 0.000000e+000
    outer loop
      vertex   2.100000e+001 1.600000e+001 3.000000e+000
      vertex   2.100000e+001 6.505623e-001 4.379405e+000
      vertex   2.100000e+001 1.202080e+000 4.747919e+000
    endloop
  endfacet
  facet normal 1.000000e+000 0.000000e+000 0.000000e+000
    outer loop
      vertex   4.195000e+001 -1.570595e+000 6.600562e+000
      vertex   4.195000e+001 -4.000000e+000 3.000000e+000
      vertex   4.195000e+001 -1.700001e+000 5.950000e+000
    endloop
  endfacet
  facet normal -1.000000e+000 0.000000e+000 0.000000e+000
    outer loop
      vertex   2.100000e+001 1.600000e+001 3.000000e+000
      vertex   2.100000e+001 1.202080e+000 4.747919e+000
      vertex   2.100000e+001 1.570595e+000 5.299438e+000
    endloop
  endfacet
  facet normal 0.000000e+000 0.000000e+000 -1.000000e+000
    outer loop
      vertex   5.180000e+001 2.800000e+001 3.000000e+000
      vertex   5.180000e+001 1.600000e+001 3.000000e+000
      vertex   5.080000e+001 2.900000e+001 3.000000e+000
    endloop
  endfacet
  facet normal -1.000000e+000 0.000000e+000 0.000000e+000
    outer loop
      vertex   2.100000e+001 6.505623e-001 4.379405e+000
      vertex   2.100000e+001 -4.000000e+000 3.000000e+000
      vertex   2.100000e+001 0.000000e+000 4.250000e+000
    endloop
  endfacet
  facet normal 1.000000e+000 0.000000e+000 0.000000e+000
    outer loop
      vertex   4.195000e+001 -1.570595e+000 5.299438e+000
      vertex   4.195000e+001 -4.000000e+000 3.000000e+000
      vertex   4.195000e+001 -1.202080e+000 4.747919e+000
    endloop
  endfacet
  facet normal -1.000000e+000 0.000000e+000 0.000000e+000
    outer loop
      vertex   2.100000e+001 1.600000e+001 3.000000e+000
      vertex   2.100000e+001 1.700001e+000 5.950000e+000
      vertex   2.100000e+001 1.570595e+000 6.600562e+000
    endloop
  endfacet
  facet normal 1.000000e+000 0.000000e+000 0.000000e+000
    outer loop
      vertex   4.195000e+001 0.000000e+000 4.250000e+000
      vertex   4.195000e+001 -6.505623e-001 4.379405e+000
      vertex   4.195000e+001 -4.000000e+000 3.000000e+000
    endloop
  endfacet
  facet normal -1.000000e+000 0.000000e+000 0.000000e+000
    outer loop
      vertex   2.100000e+001 1.600000e+001 3.000000e+000
      vertex   2.100000e+001 1.570595e+000 6.600562e+000
      vertex   2.100000e+001 1.202080e+000 7.152081e+000
    endloop
  endfacet
  facet normal 0.000000e+000 0.000000e+000 -1.000000e+000
    outer loop
      vertex   5.080000e+001 2.900000e+001 3.000000e+000
      vertex   4.210000e+001 2.600000e+001 3.000000e+000
      vertex   1.250000e+001 2.900000e+001 3.000000e+000
    endloop
  endfacet
  facet normal -1.000000e+000 0.000000e+000 0.000000e+000
    outer loop
      vertex   2.100000e+001 1.600000e+001 3.000000e+000
      vertex   2.100000e+001 1.202080e+000 7.152081e+000
      vertex   2.100000e+001 6.505623e-001 7.520595e+000
    endloop
  endfacet
  facet normal 1.000000e+000 -0.000000e+000 0.000000e+000
    outer loop
      vertex   4.195000e+001 1.600000e+001 8.900000e+000
      vertex   4.195000e+001 -4.000000e+000 8.900000e+000
      vertex   4.195000e+001 1.600000e+001 3.000000e+000
    endloop
  endfacet
  facet normal -1.000000e+000 0.000000e+000 0.000000e+000
    outer loop
      vertex   2.100000e+001 1.600000e+001 3.000000e+000
      vertex   2.100000e+001 6.505623e-001 7.520595e+000
      vertex   2.100000e+001 -4.000000e+000 8.900000e+000
    endloop
  endfacet
  facet normal 0.000000e+000 0.000000e+000 -1.000000e+000
    outer loop
      vertex   1.887868e+001 2.087868e+001 3.000000e+000
      vertex   2.100000e+001 1.600000e+001 3.000000e+000
      vertex   1.150000e+001 2.800000e+001 3.000000e+000
    endloop
  endfacet
  facet normal 0.000000e+000 0.000000e+000 -1.000000e+000
    outer loop
      vertex   2.214805e+001 2.022836e+001 3.000000e+000
      vertex   2.100000e+001 -4.000000e+000 3.000000e+000
      vertex   2.100000e+001 1.600000e+001 3.000000e+000
    endloop
  endfacet
  facet normal 0.000000e+000 0.000000e+000 -1.000000e+000
    outer loop
      vertex   1.250000e+001 2.900000e+001 3.000000e+000
      vertex   1.822836e+001 2.185195e+001 3.000000e+000
      vertex   1.150000e+001 2.800000e+001 3.000000e+000
    endloop
  endfacet
  facet normal 0.000000e+000 0.000000e+000 -1.000000e+000
    outer loop
      vertex   2.214805e+001 2.022836e+001 3.000000e+000
      vertex   2.100000e+001 1.600000e+001 3.000000e+000
      vertex   2.100000e+001 2.000000e+001 3.000000e+000
    endloop
  endfacet
  facet normal 0.000000e+000 0.000000e+000 -1.000000e+000
    outer loop
      vertex   2.400000e+001 2.300000e+001 3.000000e+000
      vertex   4.195000e+001 -4.000000e+000 3.000000e+000
      vertex   2.377164e+001 2.185195e+001 3.000000e+000
    endloop
  endfacet
  facet normal 0.000000e+000 0.000000e+000 -1.000000e+000
    outer loop
      vertex   4.195000e+001 1.600000e+001 3.000000e+000
      vertex   2.312132e+001 2.512132e+001 3.000000e+000
      vertex   2.214805e+001 2.577164e+001 3.000000e+000
    endloop
  endfacet
  facet normal 0.000000e+000 0.000000e+000 -1.000000e+000
    outer loop
      vertex   4.195000e+001 1.600000e+001 3.000000e+000
      vertex   2.377164e+001 2.414805e+001 3.000000e+000
      vertex   2.312132e+001 2.512132e+001 3.000000e+000
    endloop
  endfacet
  facet normal 0.000000e+000 0.000000e+000 -1.000000e+000
    outer loop
      vertex   1.822836e+001 2.414805e+001 3.000000e+000
      vertex   1.800000e+001 2.300000e+001 3.000000e+000
      vertex   1.250000e+001 2.900000e+001 3.000000e+000
    endloop
  endfacet
  facet normal -1.000000e+000 -0.000000e+000 0.000000e+000
    outer loop
      vertex   2.100000e+001 -4.000000e+000 8.900000e+000
      vertex   2.100000e+001 -1.202080e+000 7.152081e+000
      vertex   2.100000e+001 -4.000000e+000 3.000000e+000
    endloop
  endfacet
  facet normal -1.000000e+000 -0.000000e+000 0.000000e+000
    outer loop
      vertex   2.100000e+001 -1.700001e+000 5.950000e+000
      vertex   2.100000e+001 -1.570595e+000 5.299438e+000
      vertex   2.100000e+001 -4.000000e+000 3.000000e+000
    endloop
  endfacet
  facet normal -1.000000e+000 -0.000000e+000 0.000000e+000
    outer loop
      vertex   2.100000e+001 -1.202080e+000 7.152081e+000
      vertex   2.100000e+001 -1.570595e+000 6.600562e+000
      vertex   2.100000e+001 -4.000000e+000 3.000000e+000
    endloop
  endfacet
  facet normal -1.000000e+000 -0.000000e+000 0.000000e+000
    outer loop
      vertex   2.100000e+001 -1.570595e+000 5.299438e+000
      vertex   2.100000e+001 -1.202080e+000 4.747919e+000
      vertex   2.100000e+001 -4.000000e+000 3.000000e+000
    endloop
  endfacet
  facet normal -1.000000e+000 -0.000000e+000 0.000000e+000
    outer loop
      vertex   2.100000e+001 -1.570595e+000 6.600562e+000
      vertex   2.100000e+001 -1.700001e+000 5.950000e+000
      vertex   2.100000e+001 -4.000000e+000 3.000000e+000
    endloop
  endfacet
  facet normal -1.000000e+000 0.000000e+000 0.000000e+000
    outer loop
      vertex   2.100000e+001 0.000000e+000 4.250000e+000
      vertex   2.100000e+001 -4.000000e+000 3.000000e+000
      vertex   2.100000e+001 -6.505623e-001 4.379405e+000
    endloop
  endfacet
  facet normal -1.000000e+000 -0.000000e+000 0.000000e+000
    outer loop
      vertex   2.100000e+001 -1.202080e+000 4.747919e+000
      vertex   2.100000e+001 -6.505623e-001 4.379405e+000
      vertex   2.100000e+001 -4.000000e+000 3.000000e+000
    endloop
  endfacet
  facet normal 0.000000e+000 1.950916e-001 9.807850e-001
    outer loop
      vertex   3.147500e+001 -3.252792e-001 4.314703e+000
      vertex   4.195000e+001 0.000000e+000 4.250000e+000
      vertex   2.100000e+001 0.000000e+000 4.250000e+000
    endloop
  endfacet
  facet normal 3.552321e-008 1.950905e-001 9.807852e-001
    outer loop
      vertex   3.147500e+001 -3.252792e-001 4.314703e+000
      vertex   4.195000e+001 -6.505623e-001 4.379405e+000
      vertex   4.195000e+001 0.000000e+000 4.250000e+000
    endloop
  endfacet
  facet normal -3.552321e-008 1.950905e-001 9.807852e-001
    outer loop
      vertex   3.147500e+001 -3.252792e-001 4.314703e+000
      vertex   2.100000e+001 0.000000e+000 4.250000e+000
      vertex   2.100000e+001 -6.505623e-001 4.379405e+000
    endloop
  endfacet
  facet normal 3.552321e-008 -1.950905e-001 9.807852e-001
    outer loop
      vertex   3.147500e+001 3.252792e-001 4.314703e+000
      vertex   4.195000e+001 0.000000e+000 4.250000e+000
      vertex   4.195000e+001 6.505623e-001 4.379405e+000
    endloop
  endfacet
  facet normal 0.000000e+000 -1.950916e-001 9.807850e-001
    outer loop
      vertex   3.147500e+001 3.252792e-001 4.314703e+000
      vertex   2.100000e+001 0.000000e+000 4.250000e+000
      vertex   4.195000e+001 0.000000e+000 4.250000e+000
    endloop
  endfacet
  facet normal -3.552321e-008 -1.950905e-001 9.807852e-001
    outer loop
      vertex   3.147500e+001 3.252792e-001 4.314703e+000
      vertex   2.100000e+001 6.505623e-001 4.379405e+000
      vertex   2.100000e+001 0.000000e+000 4.250000e+000
    endloop
  endfacet
  facet normal -0.000000e+000 1.950894e-001 9.807854e-001
    outer loop
      vertex   3.147500e+001 -3.252792e-001 4.314703e+000
      vertex   2.100000e+001 -6.505623e-001 4.379405e+000
      vertex   4.195000e+001 -6.505623e-001 4.379405e+000
    endloop
  endfacet
  facet normal 0.000000e+000 -1.950894e-001 9.807854e-001
    outer loop
      vertex   3.147500e+001 3.252792e-001 4.314703e+000
      vertex   4.195000e+001 6.505623e-001 4.379405e+000
      vertex   2.100000e+001 6.505623e-001 4.379405e+000
    endloop
  endfacet
  facet normal -1.200865e-007 -5.555717e-001 8.314687e-001
    outer loop
      vertex   3.147500e+001 9.263229e-001 4.563662e+000
      vertex   4.195000e+001 6.505623e-001 4.379405e+000
      vertex   4.195000e+001 1.202080e+000 4.747919e+000
    endloop
  endfacet
  facet normal 0.000000e+000 -5.555685e-001 8.314707e-001
    outer loop
      vertex   3.147500e+001 9.263229e-001 4.563662e+000
      vertex   2.100000e+001 6.505623e-001 4.379405e+000
      vertex   4.195000e+001 6.505623e-001 4.379405e+000
    endloop
  endfacet
  facet normal -1.200865e-007 5.555717e-001 8.314687e-001
    outer loop
      vertex   3.147500e+001 -9.263229e-001 4.563662e+000
      vertex   4.195000e+001 -1.202080e+000 4.747919e+000
      vertex   4.195000e+001 -6.505623e-001 4.379405e+000
    endloop
  endfacet
  facet normal 1.200865e-007 -5.555717e-001 8.314687e-001
    outer loop
      vertex   3.147500e+001 9.263229e-001 4.563662e+000
      vertex   2.100000e+001 1.202080e+000 4.747919e+000
      vertex   2.100000e+001 6.505623e-001 4.379405e+000
    endloop
  endfacet
  facet normal 0.000000e+000 5.555685e-001 8.314707e-001
    outer loop
      vertex   3.147500e+001 -9.263229e-001 4.563662e+000
      vertex   4.195000e+001 -6.505623e-001 4.379405e+000
      vertex   2.100000e+001 -6.505623e-001 4.379405e+000
    endloop
  endfacet
  facet normal 1.200865e-007 5.555717e-001 8.314687e-001
    outer loop
      vertex   3.147500e+001 -9.263229e-001 4.563662e+000
      vertex   2.100000e+001 -6.505623e-001 4.379405e+000
      vertex   2.100000e+001 -1.202080e+000 4.747919e+000
    endloop
  endfacet
  facet normal 0.000000e+000 -5.555748e-001 8.314666e-001
    outer loop
      vertex   3.147500e+001 9.263229e-001 4.563662e+000
      vertex   4.195000e+001 1.202080e+000 4.747919e+000
      vertex   2.100000e+001 1.202080e+000 4.747919e+000
    endloop
  endfacet
  facet normal -0.000000e+000 5.555748e-001 8.314666e-001
    outer loop
      vertex   3.147500e+001 -9.263229e-001 4.563662e+000
      vertex   2.100000e+001 -1.202080e+000 4.747919e+000
      vertex   4.195000e+001 -1.202080e+000 4.747919e+000
    endloop
  endfacet
  facet normal 1.264521e-008 8.314688e-001 5.555716e-001
    outer loop
      vertex   3.147500e+001 -1.386337e+000 5.023678e+000
      vertex   2.100000e+001 -1.202080e+000 4.747919e+000
      vertex   2.100000e+001 -1.570595e+000 5.299438e+000
    endloop
  endfacet
  facet normal -1.264521e-008 -8.314688e-001 5.555716e-001
    outer loop
      vertex   3.147500e+001 1.386337e+000 5.023678e+000
      vertex   4.195000e+001 1.202080e+000 4.747919e+000
      vertex   4.195000e+001 1.570595e+000 5.299438e+000
    endloop
  endfacet
  facet normal 1.264521e-008 -8.314688e-001 5.555716e-001
    outer loop
      vertex   3.147500e+001 1.386337e+000 5.023678e+000
      vertex   2.100000e+001 1.570595e+000 5.299438e+000
      vertex   2.100000e+001 1.202080e+000 4.747919e+000
    endloop
  endfacet
  facet normal -1.264521e-008 8.314688e-001 5.555716e-001
    outer loop
      vertex   3.147500e+001 -1.386337e+000 5.023678e+000
      vertex   4.195000e+001 -1.570595e+000 5.299438e+000
      vertex   4.195000e+001 -1.202080e+000 4.747919e+000
    endloop
  endfacet
  facet normal 0.000000e+000 8.314685e-001 5.555719e-001
    outer loop
      vertex   3.147500e+001 -1.386337e+000 5.023678e+000
      vertex   4.195000e+001 -1.202080e+000 4.747919e+000
      vertex   2.100000e+001 -1.202080e+000 4.747919e+000
    endloop
  endfacet
  facet normal 0.000000e+000 -8.314685e-001 5.555719e-001
    outer loop
      vertex   3.147500e+001 1.386337e+000 5.023678e+000
      vertex   2.100000e+001 1.202080e+000 4.747919e+000
      vertex   4.195000e+001 1.202080e+000 4.747919e+000
    endloop
  endfacet
  facet normal -0.000000e+000 8.314689e-001 5.555711e-001
    outer loop
      vertex   3.147500e+001 -1.386337e+000 5.023678e+000
      vertex   2.100000e+001 -1.570595e+000 5.299438e+000
      vertex   4.195000e+001 -1.570595e+000 5.299438e+000
    endloop
  endfacet
  facet normal 0.000000e+000 -8.314689e-001 5.555711e-001
    outer loop
      vertex   3.147500e+001 1.386337e+000 5.023678e+000
      vertex   4.195000e+001 1.570595e+000 5.299438e+000
      vertex   2.100000e+001 1.570595e+000 5.299438e+000
    endloop
  endfacet
  facet normal 0.000000e+000 9.807838e-001 1.950977e-001
    outer loop
      vertex   3.147500e+001 -1.635300e+000 5.624719e+000
      vertex   4.195000e+001 -1.570595e+000 5.299438e+000
      vertex   2.100000e+001 -1.570595e+000 5.299438e+000
    endloop
  endfacet
  facet normal 1.785870e-007 -9.807849e-001 1.950922e-001
    outer loop
      vertex   3.147500e+001 1.635300e+000 5.624719e+000
      vertex   2.100000e+001 1.700001e+000 5.950000e+000
      vertex   2.100000e+001 1.570595e+000 5.299438e+000
    endloop
  endfacet
  facet normal 1.785870e-007 9.807849e-001 1.950922e-001
    outer loop
      vertex   3.147500e+001 -1.635300e+000 5.624719e+000
      vertex   2.100000e+001 -1.570595e+000 5.299438e+000
      vertex   2.100000e+001 -1.700001e+000 5.950000e+000
    endloop
  endfacet
  facet normal -1.785870e-007 -9.807849e-001 1.950922e-001
    outer loop
      vertex   3.147500e+001 1.635300e+000 5.624719e+000
      vertex   4.195000e+001 1.570595e+000 5.299438e+000
      vertex   4.195000e+001 1.700001e+000 5.950000e+000
    endloop
  endfacet
  facet normal -1.785870e-007 9.807849e-001 1.950922e-001
    outer loop
      vertex   3.147500e+001 -1.635300e+000 5.624719e+000
      vertex   4.195000e+001 -1.700001e+000 5.950000e+000
      vertex   4.195000e+001 -1.570595e+000 5.299438e+000
    endloop
  endfacet
  facet normal 0.000000e+000 -9.807838e-001 1.950977e-001
    outer loop
      vertex   3.147500e+001 1.635300e+000 5.624719e+000
      vertex   2.100000e+001 1.570595e+000 5.299438e+000
      vertex   4.195000e+001 1.570595e+000 5.299438e+000
    endloop
  endfacet
  facet normal 0.000000e+000 -9.807860e-001 1.950866e-001
    outer loop
      vertex   3.147500e+001 1.635300e+000 5.624719e+000
      vertex   4.195000e+001 1.700001e+000 5.950000e+000
      vertex   2.100000e+001 1.700001e+000 5.950000e+000
    endloop
  endfacet
  facet normal -0.000000e+000 9.807860e-001 1.950866e-001
    outer loop
      vertex   3.147500e+001 -1.635300e+000 5.624719e+000
      vertex   2.100000e+001 -1.700001e+000 5.950000e+000
      vertex   4.195000e+001 -1.700001e+000 5.950000e+000
    endloop
  endfacet
  facet normal 5.555700e-001 -8.314698e-001 3.592087e-007
    outer loop
      vertex   4.046532e+001 2.544648e+001 5.950000e+000
      vertex   4.095195e+001 2.577164e+001 8.900000e+000
      vertex   3.997868e+001 2.512132e+001 8.900000e+000
    endloop
  endfacet
  facet normal 8.314698e-001 -5.555700e-001 -5.375942e-007
    outer loop
      vertex   3.965352e+001 2.463469e+001 5.950000e+000
      vertex   3.997868e+001 2.512132e+001 8.900000e+000
      vertex   3.932836e+001 2.414805e+001 8.900000e+000
    endloop
  endfacet
  facet normal 1.950904e-001 -9.807853e-001 3.170677e-007
    outer loop
      vertex   4.152597e+001 2.588582e+001 5.950000e+000
      vertex   4.210000e+001 2.600000e+001 8.900000e+000
      vertex   4.095195e+001 2.577164e+001 8.900000e+000
    endloop
  endfacet
  facet normal -8.314698e-001 -5.555700e-001 5.375942e-007
    outer loop
      vertex   4.454648e+001 2.463469e+001 5.950000e+000
      vertex   4.487164e+001 2.414805e+001 8.900000e+000
      vertex   4.422132e+001 2.512132e+001 8.900000e+000
    endloop
  endfacet
  facet normal -9.807857e-001 -1.950885e-001 6.972038e-007
    outer loop
      vertex   4.498582e+001 2.357402e+001 5.950000e+000
      vertex   4.510000e+001 2.300000e+001 8.900000e+000
      vertex   4.487164e+001 2.414805e+001 8.900000e+000
    endloop
  endfacet
  facet normal -9.807853e-001 1.950901e-001 3.801364e-007
    outer loop
      vertex   2.388582e+001 2.242598e+001 5.950000e+000
      vertex   2.377164e+001 2.185195e+001 8.900000e+000
      vertex   2.400000e+001 2.300000e+001 8.900000e+000
    endloop
  endfacet
  facet normal -8.314698e-001 5.555700e-001 0.000000e+000
    outer loop
      vertex   2.344648e+001 2.136531e+001 5.950000e+000
      vertex   2.312132e+001 2.087868e+001 8.900000e+000
      vertex   2.377164e+001 2.185195e+001 8.900000e+000
    endloop
  endfacet
  facet normal -5.555700e-001 8.314698e-001 0.000000e+000
    outer loop
      vertex   2.263469e+001 2.055352e+001 5.950000e+000
      vertex   2.214805e+001 2.022836e+001 8.900000e+000
      vertex   2.312132e+001 2.087868e+001 8.900000e+000
    endloop
  endfacet
  facet normal -1.950901e-001 9.807853e-001 3.801364e-007
    outer loop
      vertex   2.157402e+001 2.011418e+001 5.950000e+000
      vertex   2.100000e+001 2.000000e+001 8.900000e+000
      vertex   2.214805e+001 2.022836e+001 8.900000e+000
    endloop
  endfacet
  facet normal 1.950901e-001 9.807853e-001 2.539991e-007
    outer loop
      vertex   2.042597e+001 2.011418e+001 5.950000e+000
      vertex   1.985195e+001 2.022836e+001 8.900000e+000
      vertex   2.100000e+001 2.000000e+001 8.900000e+000
    endloop
  endfacet
  facet normal 5.555700e-001 8.314698e-001 0.000000e+000
    outer loop
      vertex   1.936531e+001 2.055352e+001 5.950000e+000
      vertex   1.887868e+001 2.087868e+001 8.900000e+000
      vertex   1.985195e+001 2.022836e+001 8.900000e+000
    endloop
  endfacet
  facet normal 8.314698e-001 5.555700e-001 0.000000e+000
    outer loop
      vertex   1.855352e+001 2.136531e+001 5.950000e+000
      vertex   1.822836e+001 2.185195e+001 8.900000e+000
      vertex   1.887868e+001 2.087868e+001 8.900000e+000
    endloop
  endfacet
  facet normal 9.807853e-001 1.950901e-001 -2.539991e-007
    outer loop
      vertex   1.811418e+001 2.242598e+001 5.950000e+000
      vertex   1.800000e+001 2.300000e+001 8.900000e+000
      vertex   1.822836e+001 2.185195e+001 8.900000e+000
    endloop
  endfacet
  facet normal 9.807853e-001 -1.950901e-001 -2.539991e-007
    outer loop
      vertex   1.811418e+001 2.357402e+001 5.950000e+000
      vertex   1.822836e+001 2.414805e+001 8.900000e+000
      vertex   1.800000e+001 2.300000e+001 8.900000e+000
    endloop
  endfacet
  facet normal 8.314698e-001 -5.555700e-001 0.000000e+000
    outer loop
      vertex   1.855352e+001 2.463469e+001 5.950000e+000
      vertex   1.887868e+001 2.512132e+001 8.900000e+000
      vertex   1.822836e+001 2.414805e+001 8.900000e+000
    endloop
  endfacet
  facet normal 5.555700e-001 -8.314698e-001 0.000000e+000
    outer loop
      vertex   1.936531e+001 2.544648e+001 5.950000e+000
      vertex   1.985195e+001 2.577164e+001 8.900000e+000
      vertex   1.887868e+001 2.512132e+001 8.900000e+000
    endloop
  endfacet
  facet normal 1.950901e-001 -9.807853e-001 2.539991e-007
    outer loop
      vertex   2.042597e+001 2.588582e+001 5.950000e+000
      vertex   2.100000e+001 2.600000e+001 8.900000e+000
      vertex   1.985195e+001 2.577164e+001 8.900000e+000
    endloop
  endfacet
  facet normal 1.785870e-007 9.807850e-001 -1.950919e-001
    outer loop
      vertex   3.147500e+001 -1.635300e+000 6.275281e+000
      vertex   2.100000e+001 -1.700001e+000 5.950000e+000
      vertex   2.100000e+001 -1.570595e+000 6.600562e+000
    endloop
  endfacet
  facet normal -1.950901e-001 -9.807853e-001 3.801364e-007
    outer loop
      vertex   2.157402e+001 2.588582e+001 5.950000e+000
      vertex   2.214805e+001 2.577164e+001 8.900000e+000
      vertex   2.100000e+001 2.600000e+001 8.900000e+000
    endloop
  endfacet
  facet normal -9.807857e-001 1.950885e-001 6.972038e-007
    outer loop
      vertex   4.498582e+001 2.242598e+001 5.950000e+000
      vertex   4.487164e+001 2.185195e+001 8.900000e+000
      vertex   4.510000e+001 2.300000e+001 8.900000e+000
    endloop
  endfacet
  facet normal -5.555700e-001 -8.314698e-001 0.000000e+000
    outer loop
      vertex   2.263469e+001 2.544648e+001 5.950000e+000
      vertex   2.312132e+001 2.512132e+001 8.900000e+000
      vertex   2.214805e+001 2.577164e+001 8.900000e+000
    endloop
  endfacet
  facet normal -8.314698e-001 -5.555700e-001 0.000000e+000
    outer loop
      vertex   2.344648e+001 2.463469e+001 5.950000e+000
      vertex   2.377164e+001 2.414805e+001 8.900000e+000
      vertex   2.312132e+001 2.512132e+001 8.900000e+000
    endloop
  endfacet
  facet normal -0.000000e+000 -1.000000e+000 0.000000e+000
    outer loop
      vertex   4.687500e+001 1.600000e+001 5.950000e+000
      vertex   5.180000e+001 1.600000e+001 8.900000e+000
      vertex   4.195000e+001 1.600000e+001 8.900000e+000
    endloop
  endfacet
  facet normal -9.807853e-001 -1.950901e-001 3.801364e-007
    outer loop
      vertex   2.388582e+001 2.357402e+001 5.950000e+000
      vertex   2.400000e+001 2.300000e+001 8.900000e+000
      vertex   2.377164e+001 2.414805e+001 8.900000e+000
    endloop
  endfacet
  facet normal -0.000000e+000 -1.000000e+000 0.000000e+000
    outer loop
      vertex   3.147500e+001 -4.000000e+000 5.950000e+000
      vertex   4.195000e+001 -4.000000e+000 8.900000e+000
      vertex   2.100000e+001 -4.000000e+000 8.900000e+000
    endloop
  endfacet
  facet normal -7.071068e-001 7.071068e-001 0.000000e+000
    outer loop
      vertex   1.200000e+001 2.850000e+001 5.950000e+000
      vertex   1.150000e+001 2.800000e+001 8.900000e+000
      vertex   1.250000e+001 2.900000e+001 8.900000e+000
    endloop
  endfacet
  facet normal 7.071068e-001 7.071068e-001 0.000000e+000
    outer loop
      vertex   5.130000e+001 2.850000e+001 5.950000e+000
      vertex   5.080000e+001 2.900000e+001 8.900000e+000
      vertex   5.180000e+001 2.800000e+001 8.900000e+000
    endloop
  endfacet
  facet normal -1.950898e-001 9.807854e-001 1.909307e-007
    outer loop
      vertex   4.267403e+001 2.011418e+001 5.950000e+000
      vertex   4.210000e+001 2.000000e+001 8.900000e+000
      vertex   4.324805e+001 2.022836e+001 8.900000e+000
    endloop
  endfacet
  facet normal 1.000000e+000 0.000000e+000 0.000000e+000
    outer loop
      vertex   5.180000e+001 2.200000e+001 5.950000e+000
      vertex   5.180000e+001 2.800000e+001 8.900000e+000
      vertex   5.180000e+001 1.600000e+001 8.900000e+000
    endloop
  endfacet
  facet normal -0.000000e+000 1.000000e+000 0.000000e+000
    outer loop
      vertex   3.165000e+001 2.900000e+001 5.950000e+000
      vertex   1.250000e+001 2.900000e+001 8.900000e+000
      vertex   5.080000e+001 2.900000e+001 8.900000e+000
    endloop
  endfacet
  facet normal -0.000000e+000 -1.000000e+000 0.000000e+000
    outer loop
      vertex   1.625000e+001 1.600000e+001 5.950000e+000
      vertex   2.100000e+001 1.600000e+001 8.900000e+000
      vertex   1.150000e+001 1.600000e+001 8.900000e+000
    endloop
  endfacet
  facet normal 5.555700e-001 8.314698e-001 3.592087e-007
    outer loop
      vertex   4.046532e+001 2.055352e+001 5.950000e+000
      vertex   3.997868e+001 2.087868e+001 8.900000e+000
      vertex   4.095195e+001 2.022836e+001 8.900000e+000
    endloop
  endfacet
  facet normal 8.314698e-001 5.555700e-001 -5.375942e-007
    outer loop
      vertex   3.965352e+001 2.136531e+001 5.950000e+000
      vertex   3.932836e+001 2.185195e+001 8.900000e+000
      vertex   3.997868e+001 2.087868e+001 8.900000e+000
    endloop
  endfacet
  facet normal 9.807850e-001 1.950917e-001 6.306913e-008
    outer loop
      vertex   3.921418e+001 2.242598e+001 5.950000e+000
      vertex   3.910000e+001 2.300000e+001 8.900000e+000
      vertex   3.932836e+001 2.185195e+001 8.900000e+000
    endloop
  endfacet
  facet normal 9.807850e-001 -1.950917e-001 6.306913e-008
    outer loop
      vertex   3.921418e+001 2.357402e+001 5.950000e+000
      vertex   3.932836e+001 2.414805e+001 8.900000e+000
      vertex   3.910000e+001 2.300000e+001 8.900000e+000
    endloop
  endfacet
  facet normal -1.785870e-007 -9.807850e-001 -1.950919e-001
    outer loop
      vertex   3.147500e+001 1.635300e+000 6.275281e+000
      vertex   4.195000e+001 1.700001e+000 5.950000e+000
      vertex   4.195000e+001 1.570595e+000 6.600562e+000
    endloop
  endfacet
  facet normal -5.555700e-001 -8.314698e-001 -3.592087e-007
    outer loop
      vertex   4.373469e+001 2.544648e+001 5.950000e+000
      vertex   4.422132e+001 2.512132e+001 8.900000e+000
      vertex   4.324805e+001 2.577164e+001 8.900000e+000
    endloop
  endfacet
  facet normal -1.950898e-001 -9.807854e-001 1.909307e-007
    outer loop
      vertex   4.267403e+001 2.588582e+001 5.950000e+000
      vertex   4.324805e+001 2.577164e+001 8.900000e+000
      vertex   4.210000e+001 2.600000e+001 8.900000e+000
    endloop
  endfacet
  facet normal 0.000000e+000 -9.807861e-001 -1.950864e-001
    outer loop
      vertex   3.147500e+001 1.635300e+000 6.275281e+000
      vertex   2.100000e+001 1.700001e+000 5.950000e+000
      vertex   4.195000e+001 1.700001e+000 5.950000e+000
    endloop
  endfacet
  facet normal 1.785870e-007 -9.807850e-001 -1.950919e-001
    outer loop
      vertex   3.147500e+001 1.635300e+000 6.275281e+000
      vertex   2.100000e+001 1.570595e+000 6.600562e+000
      vertex   2.100000e+001 1.700001e+000 5.950000e+000
    endloop
  endfacet
  facet normal -1.785870e-007 9.807850e-001 -1.950919e-001
    outer loop
      vertex   3.147500e+001 -1.635300e+000 6.275281e+000
      vertex   4.195000e+001 -1.570595e+000 6.600562e+000
      vertex   4.195000e+001 -1.700001e+000 5.950000e+000
    endloop
  endfacet
  facet normal 0.000000e+000 9.807861e-001 -1.950864e-001
    outer loop
      vertex   3.147500e+001 -1.635300e+000 6.275281e+000
      vertex   4.195000e+001 -1.700001e+000 5.950000e+000
      vertex   2.100000e+001 -1.700001e+000 5.950000e+000
    endloop
  endfacet
  facet normal -5.555700e-001 8.314698e-001 -3.592087e-007
    outer loop
      vertex   4.373469e+001 2.055352e+001 5.950000e+000
      vertex   4.324805e+001 2.022836e+001 8.900000e+000
      vertex   4.422132e+001 2.087868e+001 8.900000e+000
    endloop
  endfacet
  facet normal -1.000000e+000 0.000000e+000 0.000000e+000
    outer loop
      vertex   1.150000e+001 2.200000e+001 5.950000e+000
      vertex   1.150000e+001 1.600000e+001 8.900000e+000
      vertex   1.150000e+001 2.800000e+001 8.900000e+000
    endloop
  endfacet
  facet normal 1.950904e-001 9.807853e-001 3.170677e-007
    outer loop
      vertex   4.152597e+001 2.011418e+001 5.950000e+000
      vertex   4.095195e+001 2.022836e+001 8.900000e+000
      vertex   4.210000e+001 2.000000e+001 8.900000e+000
    endloop
  endfacet
  facet normal -8.314698e-001 5.555700e-001 5.375942e-007
    outer loop
      vertex   4.454648e+001 2.136531e+001 5.950000e+000
      vertex   4.422132e+001 2.087868e+001 8.900000e+000
      vertex   4.487164e+001 2.185195e+001 8.900000e+000
    endloop
  endfacet
  facet normal 0.000000e+000 9.807839e-001 -1.950974e-001
    outer loop
      vertex   3.147500e+001 -1.635300e+000 6.275281e+000
      vertex   2.100000e+001 -1.570595e+000 6.600562e+000
      vertex   4.195000e+001 -1.570595e+000 6.600562e+000
    endloop
  endfacet
  facet normal -0.000000e+000 -9.807839e-001 -1.950974e-001
    outer loop
      vertex   3.147500e+001 1.635300e+000 6.275281e+000
      vertex   4.195000e+001 1.570595e+000 6.600562e+000
      vertex   2.100000e+001 1.570595e+000 6.600562e+000
    endloop
  endfacet
  facet normal 0.000000e+000 8.314685e-001 -5.555719e-001
    outer loop
      vertex   3.147500e+001 -1.386337e+000 6.876322e+000
      vertex   2.100000e+001 -1.570595e+000 6.600562e+000
      vertex   2.100000e+001 -1.202080e+000 7.152081e+000
    endloop
  endfacet
  facet normal 0.000000e+000 8.314685e-001 -5.555719e-001
    outer loop
      vertex   3.147500e+001 -1.386337e+000 6.876322e+000
      vertex   4.195000e+001 -1.570595e+000 6.600562e+000
      vertex   2.100000e+001 -1.570595e+000 6.600562e+000
    endloop
  endfacet
  facet normal 0.000000e+000 -8.314685e-001 -5.555719e-001
    outer loop
      vertex   3.147500e+001 1.386337e+000 6.876322e+000
      vertex   4.195000e+001 1.570595e+000 6.600562e+000
      vertex   4.195000e+001 1.202080e+000 7.152081e+000
    endloop
  endfacet
  facet normal 0.000000e+000 -8.314685e-001 -5.555719e-001
    outer loop
      vertex   3.147500e+001 1.386337e+000 6.876322e+000
      vertex   2.100000e+001 1.570595e+000 6.600562e+000
      vertex   4.195000e+001 1.570595e+000 6.600562e+000
    endloop
  endfacet
  facet normal 0.000000e+000 -8.314685e-001 -5.555719e-001
    outer loop
      vertex   3.147500e+001 1.386337e+000 6.876322e+000
      vertex   2.100000e+001 1.202080e+000 7.152081e+000
      vertex   2.100000e+001 1.570595e+000 6.600562e+000
    endloop
  endfacet
  facet normal 0.000000e+000 8.314685e-001 -5.555719e-001
    outer loop
      vertex   3.147500e+001 -1.386337e+000 6.876322e+000
      vertex   4.195000e+001 -1.202080e+000 7.152081e+000
      vertex   4.195000e+001 -1.570595e+000 6.600562e+000
    endloop
  endfacet
  facet normal -0.000000e+000 -8.314685e-001 -5.555719e-001
    outer loop
      vertex   3.147500e+001 1.386337e+000 6.876322e+000
      vertex   4.195000e+001 1.202080e+000 7.152081e+000
      vertex   2.100000e+001 1.202080e+000 7.152081e+000
    endloop
  endfacet
  facet normal 0.000000e+000 8.314685e-001 -5.555719e-001
    outer loop
      vertex   3.147500e+001 -1.386337e+000 6.876322e+000
      vertex   2.100000e+001 -1.202080e+000 7.152081e+000
      vertex   4.195000e+001 -1.202080e+000 7.152081e+000
    endloop
  endfacet
  facet normal 8.223688e-008 -5.555717e-001 -8.314687e-001
    outer loop
      vertex   3.147500e+001 9.263229e-001 7.336338e+000
      vertex   2.100000e+001 6.505623e-001 7.520595e+000
      vertex   2.100000e+001 1.202080e+000 7.152081e+000
    endloop
  endfacet
  facet normal -8.223688e-008 -5.555717e-001 -8.314687e-001
    outer loop
      vertex   3.147500e+001 9.263229e-001 7.336338e+000
      vertex   4.195000e+001 1.202080e+000 7.152081e+000
      vertex   4.195000e+001 6.505623e-001 7.520595e+000
    endloop
  endfacet
  facet normal 0.000000e+000 -5.555738e-001 -8.314672e-001
    outer loop
      vertex   3.147500e+001 9.263229e-001 7.336338e+000
      vertex   2.100000e+001 1.202080e+000 7.152081e+000
      vertex   4.195000e+001 1.202080e+000 7.152081e+000
    endloop
  endfacet
  facet normal -1.000000e+000 0.000000e+000 0.000000e+000
    outer loop
      vertex   2.100000e+001 -6.505623e-001 7.520595e+000
      vertex   2.100000e+001 -1.202080e+000 7.152081e+000
      vertex   2.100000e+001 -4.000000e+000 8.900000e+000
    endloop
  endfacet
  facet normal 8.223688e-008 5.555717e-001 -8.314687e-001
    outer loop
      vertex   3.147500e+001 -9.263229e-001 7.336338e+000
      vertex   2.100000e+001 -1.202080e+000 7.152081e+000
      vertex   2.100000e+001 -6.505623e-001 7.520595e+000
    endloop
  endfacet
  facet normal 1.000000e+000 0.000000e+000 0.000000e+000
    outer loop
      vertex   4.195000e+001 -6.505623e-001 7.520595e+000
      vertex   4.195000e+001 -4.000000e+000 8.900000e+000
      vertex   4.195000e+001 -1.202080e+000 7.152081e+000
    endloop
  endfacet
  facet normal 0.000000e+000 5.555738e-001 -8.314672e-001
    outer loop
      vertex   3.147500e+001 -9.263229e-001 7.336338e+000
      vertex   4.195000e+001 -1.202080e+000 7.152081e+000
      vertex   2.100000e+001 -1.202080e+000 7.152081e+000
    endloop
  endfacet
  facet normal -8.223688e-008 5.555717e-001 -8.314687e-001
    outer loop
      vertex   3.147500e+001 -9.263229e-001 7.336338e+000
      vertex   4.195000e+001 -6.505623e-001 7.520595e+000
      vertex   4.195000e+001 -1.202080e+000 7.152081e+000
    endloop
  endfacet
  facet normal 0.000000e+000 5.555695e-001 -8.314701e-001
    outer loop
      vertex   3.147500e+001 -9.263229e-001 7.336338e+000
      vertex   2.100000e+001 -6.505623e-001 7.520595e+000
      vertex   4.195000e+001 -6.505623e-001 7.520595e+000
    endloop
  endfacet
  facet normal -0.000000e+000 -5.555695e-001 -8.314701e-001
    outer loop
      vertex   3.147500e+001 9.263229e-001 7.336338e+000
      vertex   4.195000e+001 6.505623e-001 7.520595e+000
      vertex   2.100000e+001 6.505623e-001 7.520595e+000
    endloop
  endfacet
  facet normal 1.000000e+000 0.000000e+000 0.000000e+000
    outer loop
      vertex   4.195000e+001 0.000000e+000 7.650000e+000
      vertex   4.195000e+001 -4.000000e+000 8.900000e+000
      vertex   4.195000e+001 -6.505623e-001 7.520595e+000
    endloop
  endfacet
  facet normal 1.000000e+000 0.000000e+000 0.000000e+000
    outer loop
      vertex   4.195000e+001 6.505623e-001 7.520595e+000
      vertex   4.195000e+001 -4.000000e+000 8.900000e+000
      vertex   4.195000e+001 0.000000e+000 7.650000e+000
    endloop
  endfacet
  facet normal 3.552321e-008 1.950905e-001 -9.807852e-001
    outer loop
      vertex   3.147500e+001 -3.252792e-001 7.585298e+000
      vertex   4.195000e+001 0.000000e+000 7.650000e+000
      vertex   4.195000e+001 -6.505623e-001 7.520595e+000
    endloop
  endfacet
  facet normal -3.552321e-008 1.950905e-001 -9.807852e-001
    outer loop
      vertex   3.147500e+001 -3.252792e-001 7.585298e+000
      vertex   2.100000e+001 -6.505623e-001 7.520595e+000
      vertex   2.100000e+001 0.000000e+000 7.650000e+000
    endloop
  endfacet
  facet normal 3.552321e-008 -1.950905e-001 -9.807852e-001
    outer loop
      vertex   3.147500e+001 3.252792e-001 7.585298e+000
      vertex   4.195000e+001 6.505623e-001 7.520595e+000
      vertex   4.195000e+001 0.000000e+000 7.650000e+000
    endloop
  endfacet
  facet normal -1.000000e+000 0.000000e+000 0.000000e+000
    outer loop
      vertex   2.100000e+001 0.000000e+000 7.650000e+000
      vertex   2.100000e+001 -6.505623e-001 7.520595e+000
      vertex   2.100000e+001 -4.000000e+000 8.900000e+000
    endloop
  endfacet
  facet normal 0.000000e+000 -1.950894e-001 -9.807854e-001
    outer loop
      vertex   3.147500e+001 3.252792e-001 7.585298e+000
      vertex   2.100000e+001 6.505623e-001 7.520595e+000
      vertex   4.195000e+001 6.505623e-001 7.520595e+000
    endloop
  endfacet
  facet normal -1.000000e+000 0.000000e+000 0.000000e+000
    outer loop
      vertex   2.100000e+001 6.505623e-001 7.520595e+000
      vertex   2.100000e+001 0.000000e+000 7.650000e+000
      vertex   2.100000e+001 -4.000000e+000 8.900000e+000
    endloop
  endfacet
  facet normal 0.000000e+000 1.950894e-001 -9.807854e-001
    outer loop
      vertex   3.147500e+001 -3.252792e-001 7.585298e+000
      vertex   4.195000e+001 -6.505623e-001 7.520595e+000
      vertex   2.100000e+001 -6.505623e-001 7.520595e+000
    endloop
  endfacet
  facet normal -3.552321e-008 -1.950905e-001 -9.807852e-001
    outer loop
      vertex   3.147500e+001 3.252792e-001 7.585298e+000
      vertex   2.100000e+001 0.000000e+000 7.650000e+000
      vertex   2.100000e+001 6.505623e-001 7.520595e+000
    endloop
  endfacet
  facet normal 0.000000e+000 1.950916e-001 -9.807850e-001
    outer loop
      vertex   3.147500e+001 -3.252792e-001 7.585298e+000
      vertex   2.100000e+001 0.000000e+000 7.650000e+000
      vertex   4.195000e+001 0.000000e+000 7.650000e+000
    endloop
  endfacet
  facet normal -0.000000e+000 -1.950916e-001 -9.807850e-001
    outer loop
      vertex   3.147500e+001 3.252792e-001 7.585298e+000
      vertex   4.195000e+001 0.000000e+000 7.650000e+000
      vertex   2.100000e+001 0.000000e+000 7.650000e+000
    endloop
  endfacet
  facet normal 0.000000e+000 0.000000e+000 1.000000e+000
    outer loop
      vertex   5.180000e+001 2.800000e+001 8.900000e+000
      vertex   5.080000e+001 2.900000e+001 8.900000e+000
      vertex   5.180000e+001 1.600000e+001 8.900000e+000
    endloop
  endfacet
  facet normal -0.000000e+000 0.000000e+000 1.000000e+000
    outer loop
      vertex   5.080000e+001 2.900000e+001 8.900000e+000
      vertex   4.324805e+001 2.577164e+001 8.900000e+000
      vertex   4.422132e+001 2.512132e+001 8.900000e+000
    endloop
  endfacet
  facet normal -0.000000e+000 0.000000e+000 1.000000e+000
    outer loop
      vertex   5.080000e+001 2.900000e+001 8.900000e+000
      vertex   4.422132e+001 2.512132e+001 8.900000e+000
      vertex   5.180000e+001 1.600000e+001 8.900000e+000
    endloop
  endfacet
  facet normal 0.000000e+000 0.000000e+000 1.000000e+000
    outer loop
      vertex   5.180000e+001 1.600000e+001 8.900000e+000
      vertex   4.487164e+001 2.185195e+001 8.900000e+000
      vertex   4.195000e+001 1.600000e+001 8.900000e+000
    endloop
  endfacet
  facet normal 0.000000e+000 0.000000e+000 1.000000e+000
    outer loop
      vertex   5.180000e+001 1.600000e+001 8.900000e+000
      vertex   4.510000e+001 2.300000e+001 8.900000e+000
      vertex   4.487164e+001 2.185195e+001 8.900000e+000
    endloop
  endfacet
  facet normal 0.000000e+000 0.000000e+000 1.000000e+000
    outer loop
      vertex   5.180000e+001 1.600000e+001 8.900000e+000
      vertex   4.487164e+001 2.414805e+001 8.900000e+000
      vertex   4.510000e+001 2.300000e+001 8.900000e+000
    endloop
  endfacet
  facet normal 0.000000e+000 0.000000e+000 1.000000e+000
    outer loop
      vertex   5.180000e+001 1.600000e+001 8.900000e+000
      vertex   4.422132e+001 2.512132e+001 8.900000e+000
      vertex   4.487164e+001 2.414805e+001 8.900000e+000
    endloop
  endfacet
  facet normal 0.000000e+000 0.000000e+000 1.000000e+000
    outer loop
      vertex   4.210000e+001 2.600000e+001 8.900000e+000
      vertex   1.250000e+001 2.900000e+001 8.900000e+000
      vertex   4.095195e+001 2.577164e+001 8.900000e+000
    endloop
  endfacet
  facet normal -0.000000e+000 0.000000e+000 1.000000e+000
    outer loop
      vertex   4.487164e+001 2.185195e+001 8.900000e+000
      vertex   4.422132e+001 2.087868e+001 8.900000e+000
      vertex   4.195000e+001 1.600000e+001 8.900000e+000
    endloop
  endfacet
  facet normal 0.000000e+000 0.000000e+000 1.000000e+000
    outer loop
      vertex   4.095195e+001 2.577164e+001 8.900000e+000
      vertex   1.250000e+001 2.900000e+001 8.900000e+000
      vertex   3.997868e+001 2.512132e+001 8.900000e+000
    endloop
  endfacet
  facet normal -0.000000e+000 0.000000e+000 1.000000e+000
    outer loop
      vertex   4.422132e+001 2.087868e+001 8.900000e+000
      vertex   4.324805e+001 2.022836e+001 8.900000e+000
      vertex   4.195000e+001 1.600000e+001 8.900000e+000
    endloop
  endfacet
  facet normal 0.000000e+000 0.000000e+000 1.000000e+000
    outer loop
      vertex   3.997868e+001 2.512132e+001 8.900000e+000
      vertex   1.250000e+001 2.900000e+001 8.900000e+000
      vertex   3.932836e+001 2.414805e+001 8.900000e+000
    endloop
  endfacet
  facet normal -0.000000e+000 0.000000e+000 1.000000e+000
    outer loop
      vertex   4.324805e+001 2.022836e+001 8.900000e+000
      vertex   4.210000e+001 2.000000e+001 8.900000e+000
      vertex   4.195000e+001 1.600000e+001 8.900000e+000
    endloop
  endfacet
  facet normal 0.000000e+000 0.000000e+000 1.000000e+000
    outer loop
      vertex   3.932836e+001 2.414805e+001 8.900000e+000
      vertex   1.250000e+001 2.900000e+001 8.900000e+000
      vertex   3.910000e+001 2.300000e+001 8.900000e+000
    endloop
  endfacet
  facet normal 0.000000e+000 0.000000e+000 1.000000e+000
    outer loop
      vertex   4.210000e+001 2.000000e+001 8.900000e+000
      vertex   4.095195e+001 2.022836e+001 8.900000e+000
      vertex   4.195000e+001 1.600000e+001 8.900000e+000
    endloop
  endfacet
  facet normal 0.000000e+000 0.000000e+000 1.000000e+000
    outer loop
      vertex   3.910000e+001 2.300000e+001 8.900000e+000
      vertex   1.250000e+001 2.900000e+001 8.900000e+000
      vertex   3.932836e+001 2.185195e+001 8.900000e+000
    endloop
  endfacet
  facet normal 0.000000e+000 0.000000e+000 1.000000e+000
    outer loop
      vertex   4.095195e+001 2.022836e+001 8.900000e+000
      vertex   3.997868e+001 2.087868e+001 8.900000e+000
      vertex   4.195000e+001 1.600000e+001 8.900000e+000
    endloop
  endfacet
  facet normal 0.000000e+000 0.000000e+000 1.000000e+000
    outer loop
      vertex   3.932836e+001 2.185195e+001 8.900000e+000
      vertex   1.250000e+001 2.900000e+001 8.900000e+000
      vertex   3.997868e+001 2.087868e+001 8.900000e+000
    endloop
  endfacet
  facet normal 0.000000e+000 0.000000e+000 1.000000e+000
    outer loop
      vertex   3.997868e+001 2.087868e+001 8.900000e+000
      vertex   1.250000e+001 2.900000e+001 8.900000e+000
      vertex   2.214805e+001 2.577164e+001 8.900000e+000
    endloop
  endfacet
  facet normal 0.000000e+000 0.000000e+000 1.000000e+000
    outer loop
      vertex   3.997868e+001 2.087868e+001 8.900000e+000
      vertex   2.214805e+001 2.577164e+001 8.900000e+000
      vertex   4.195000e+001 1.600000e+001 8.900000e+000
    endloop
  endfacet
  facet normal -0.000000e+000 0.000000e+000 1.000000e+000
    outer loop
      vertex   5.080000e+001 2.900000e+001 8.900000e+000
      vertex   1.250000e+001 2.900000e+001 8.900000e+000
      vertex   4.210000e+001 2.600000e+001 8.900000e+000
    endloop
  endfacet
  facet normal -0.000000e+000 0.000000e+000 1.000000e+000
    outer loop
      vertex   5.080000e+001 2.900000e+001 8.900000e+000
      vertex   4.210000e+001 2.600000e+001 8.900000e+000
      vertex   4.324805e+001 2.577164e+001 8.900000e+000
    endloop
  endfacet
  facet normal 0.000000e+000 0.000000e+000 1.000000e+000
    outer loop
      vertex   4.195000e+001 1.600000e+001 8.900000e+000
      vertex   2.214805e+001 2.577164e+001 8.900000e+000
      vertex   2.312132e+001 2.512132e+001 8.900000e+000
    endloop
  endfacet
  facet normal -0.000000e+000 -0.000000e+000 1.000000e+000
    outer loop
      vertex   2.377164e+001 2.414805e+001 8.900000e+000
      vertex   2.400000e+001 2.300000e+001 8.900000e+000
      vertex   4.195000e+001 -4.000000e+000 8.900000e+000
    endloop
  endfacet
  facet normal 0.000000e+000 0.000000e+000 1.000000e+000
    outer loop
      vertex   2.214805e+001 2.577164e+001 8.900000e+000
      vertex   1.250000e+001 2.900000e+001 8.900000e+000
      vertex   2.100000e+001 2.600000e+001 8.900000e+000
    endloop
  endfacet
  facet normal -0.000000e+000 0.000000e+000 1.000000e+000
    outer loop
      vertex   2.400000e+001 2.300000e+001 8.900000e+000
      vertex   2.377164e+001 2.185195e+001 8.900000e+000
      vertex   4.195000e+001 -4.000000e+000 8.900000e+000
    endloop
  endfacet
  facet normal 0.000000e+000 0.000000e+000 1.000000e+000
    outer loop
      vertex   2.100000e+001 2.600000e+001 8.900000e+000
      vertex   1.250000e+001 2.900000e+001 8.900000e+000
      vertex   1.985195e+001 2.577164e+001 8.900000e+000
    endloop
  endfacet
  facet normal -0.000000e+000 0.000000e+000 1.000000e+000
    outer loop
      vertex   2.377164e+001 2.185195e+001 8.900000e+000
      vertex   2.312132e+001 2.087868e+001 8.900000e+000
      vertex   4.195000e+001 -4.000000e+000 8.900000e+000
    endloop
  endfacet
  facet normal 0.000000e+000 0.000000e+000 1.000000e+000
    outer loop
      vertex   1.985195e+001 2.577164e+001 8.900000e+000
      vertex   1.250000e+001 2.900000e+001 8.900000e+000
      vertex   1.887868e+001 2.512132e+001 8.900000e+000
    endloop
  endfacet
  facet normal -0.000000e+000 0.000000e+000 1.000000e+000
    outer loop
      vertex   2.312132e+001 2.087868e+001 8.900000e+000
      vertex   2.214805e+001 2.022836e+001 8.900000e+000
      vertex   4.195000e+001 -4.000000e+000 8.900000e+000
    endloop
  endfacet
  facet normal 0.000000e+000 0.000000e+000 1.000000e+000
    outer loop
      vertex   1.887868e+001 2.512132e+001 8.900000e+000
      vertex   1.250000e+001 2.900000e+001 8.900000e+000
      vertex   1.822836e+001 2.414805e+001 8.900000e+000
    endloop
  endfacet
  facet normal 0.000000e+000 0.000000e+000 1.000000e+000
    outer loop
      vertex   4.195000e+001 -4.000000e+000 8.900000e+000
      vertex   2.214805e+001 2.022836e+001 8.900000e+000
      vertex   2.100000e+001 -4.000000e+000 8.900000e+000
    endloop
  endfacet
  facet normal -0.000000e+000 0.000000e+000 1.000000e+000
    outer loop
      vertex   2.214805e+001 2.022836e+001 8.900000e+000
      vertex   2.100000e+001 1.600000e+001 8.900000e+000
      vertex   2.100000e+001 -4.000000e+000 8.900000e+000
    endloop
  endfacet
  facet normal -0.000000e+000 0.000000e+000 1.000000e+000
    outer loop
      vertex   2.214805e+001 2.022836e+001 8.900000e+000
      vertex   2.100000e+001 2.000000e+001 8.900000e+000
      vertex   2.100000e+001 1.600000e+001 8.900000e+000
    endloop
  endfacet
  facet normal 0.000000e+000 0.000000e+000 1.000000e+000
    outer loop
      vertex   1.822836e+001 2.414805e+001 8.900000e+000
      vertex   1.250000e+001 2.900000e+001 8.900000e+000
      vertex   1.800000e+001 2.300000e+001 8.900000e+000
    endloop
  endfacet
  facet normal 0.000000e+000 0.000000e+000 1.000000e+000
    outer loop
      vertex   2.100000e+001 2.000000e+001 8.900000e+000
      vertex   1.985195e+001 2.022836e+001 8.900000e+000
      vertex   2.100000e+001 1.600000e+001 8.900000e+000
    endloop
  endfacet
  facet normal 0.000000e+000 0.000000e+000 1.000000e+000
    outer loop
      vertex   1.800000e+001 2.300000e+001 8.900000e+000
      vertex   1.250000e+001 2.900000e+001 8.900000e+000
      vertex   1.822836e+001 2.185195e+001 8.900000e+000
    endloop
  endfacet
  facet normal 0.000000e+000 0.000000e+000 1.000000e+000
    outer loop
      vertex   1.985195e+001 2.022836e+001 8.900000e+000
      vertex   1.887868e+001 2.087868e+001 8.900000e+000
      vertex   2.100000e+001 1.600000e+001 8.900000e+000
    endloop
  endfacet
  facet normal -0.000000e+000 0.000000e+000 1.000000e+000
    outer loop
      vertex   1.250000e+001 2.900000e+001 8.900000e+000
      vertex   1.150000e+001 2.800000e+001 8.900000e+000
      vertex   1.822836e+001 2.185195e+001 8.900000e+000
    endloop
  endfacet
  facet normal 0.000000e+000 0.000000e+000 1.000000e+000
    outer loop
      vertex   1.822836e+001 2.185195e+001 8.900000e+000
      vertex   1.150000e+001 2.800000e+001 8.900000e+000
      vertex   1.887868e+001 2.087868e+001 8.900000e+000
    endloop
  endfacet
  facet normal 0.000000e+000 0.000000e+000 1.000000e+000
    outer loop
      vertex   1.887868e+001 2.087868e+001 8.900000e+000
      vertex   1.150000e+001 2.800000e+001 8.900000e+000
      vertex   2.100000e+001 1.600000e+001 8.900000e+000
    endloop
  endfacet
  facet normal 0.000000e+000 0.000000e+000 1.000000e+000
    outer loop
      vertex   1.150000e+001 2.800000e+001 8.900000e+000
      vertex   1.150000e+001 1.600000e+001 8.900000e+000
      vertex   2.100000e+001 1.600000e+001 8.900000e+000
    endloop
  endfacet
  facet normal 0.000000e+000 0.000000e+000 1.000000e+000
    outer loop
      vertex   4.195000e+001 1.600000e+001 8.900000e+000
      vertex   2.377164e+001 2.414805e+001 8.900000e+000
      vertex   4.195000e+001 -4.000000e+000 8.900000e+000
    endloop
  endfacet
  facet normal 0.000000e+000 0.000000e+000 1.000000e+000
    outer loop
      vertex   4.195000e+001 1.600000e+001 8.900000e+000
      vertex   2.312132e+001 2.512132e+001 8.900000e+000
      vertex   2.377164e+001 2.414805e+001 8.900000e+000
    endloop
  endfacet
endsolid
