solid ascii
  facet normal 9.807850e-001 -1.950920e-001 -2.522769e-007
    outer loop
      vertex   3.921418e+001 6.757402e+001 5.950000e+000
      vertex   3.910000e+001 6.700000e+001 3.000000e+000
      vertex   3.932836e+001 6.814805e+001 3.000000e+000
    endloop
  endfacet
  facet normal 7.071068e-001 7.071068e-001 0.000000e+000
    outer loop
      vertex   5.130000e+001 7.250000e+001 5.950000e+000
      vertex   5.180000e+001 7.200000e+001 3.000000e+000
      vertex   5.080000e+001 7.300000e+001 3.000000e+000
    endloop
  endfacet
  facet normal 7.071068e-001 7.071068e-001 -0.000000e+000
    outer loop
      vertex   5.130000e+001 7.250000e+001 5.950000e+000
      vertex   5.080000e+001 7.300000e+001 3.000000e+000
      vertex   5.080000e+001 7.300000e+001 8.900000e+000
    endloop
  endfacet
  facet normal 9.807852e-001 -1.950907e-001 0.000000e+000
    outer loop
      vertex   3.921418e+001 6.757402e+001 5.950000e+000
      vertex   3.932836e+001 6.814805e+001 3.000000e+000
      vertex   3.932836e+001 6.814805e+001 8.900000e+000
    endloop
  endfacet
  facet normal -7.071068e-001 7.071068e-001 0.000000e+000
    outer loop
      vertex   1.200000e+001 7.250000e+001 5.950000e+000
      vertex   1.250000e+001 7.300000e+001 8.900000e+000
      vertex   1.250000e+001 7.300000e+001 3.000000e+000
    endloop
  endfacet
  facet normal -7.071068e-001 7.071068e-001 0.000000e+000
    outer loop
      vertex   1.200000e+001 7.250000e+001 5.950000e+000
      vertex   1.250000e+001 7.300000e+001 3.000000e+000
      vertex   1.150000e+001 7.200000e+001 3.000000e+000
    endloop
  endfacet
  facet normal -7.071068e-001 7.071068e-001 0.000000e+000
    outer loop
      vertex   1.200000e+001 7.250000e+001 5.950000e+000
      vertex   1.150000e+001 7.200000e+001 3.000000e+000
      vertex   1.150000e+001 7.200000e+001 8.900000e+000
    endloop
  endfacet
  facet normal 9.807848e-001 -1.950932e-001 0.000000e+000
    outer loop
      vertex   3.921418e+001 6.757402e+001 5.950000e+000
      vertex   3.910000e+001 6.700000e+001 8.900000e+000
      vertex   3.910000e+001 6.700000e+001 3.000000e+000
    endloop
  endfacet
  facet normal 0.000000e+000 1.000000e+000 0.000000e+000
    outer loop
      vertex   3.165000e+001 7.300000e+001 5.950000e+000
      vertex   1.250000e+001 7.300000e+001 3.000000e+000
      vertex   1.250000e+001 7.300000e+001 8.900000e+000
    endloop
  endfacet
  facet normal 9.807850e-001 1.950920e-001 -2.522769e-007
    outer loop
      vertex   3.921418e+001 6.642598e+001 5.950000e+000
      vertex   3.932836e+001 6.585195e+001 3.000000e+000
      vertex   3.910000e+001 6.700000e+001 3.000000e+000
    endloop
  endfacet
  facet normal 0.000000e+000 1.000000e+000 0.000000e+000
    outer loop
      vertex   3.165000e+001 7.300000e+001 5.950000e+000
      vertex   5.080000e+001 7.300000e+001 8.900000e+000
      vertex   5.080000e+001 7.300000e+001 3.000000e+000
    endloop
  endfacet
  facet normal 0.000000e+000 1.000000e+000 0.000000e+000
    outer loop
      vertex   3.165000e+001 7.300000e+001 5.950000e+000
      vertex   5.080000e+001 7.300000e+001 3.000000e+000
      vertex   1.250000e+001 7.300000e+001 3.000000e+000
    endloop
  endfacet
  facet normal 0.000000e+000 -1.000000e+000 0.000000e+000
    outer loop
      vertex   3.165000e+001 6.000000e+001 5.950000e+000
      vertex   1.150000e+001 6.000000e+001 3.000000e+000
      vertex   5.180000e+001 6.000000e+001 3.000000e+000
    endloop
  endfacet
  facet normal 0.000000e+000 -1.000000e+000 0.000000e+000
    outer loop
      vertex   3.165000e+001 6.000000e+001 5.950000e+000
      vertex   5.180000e+001 6.000000e+001 3.000000e+000
      vertex   5.180000e+001 6.000000e+001 8.900000e+000
    endloop
  endfacet
  facet normal 9.807852e-001 1.950907e-001 0.000000e+000
    outer loop
      vertex   3.921418e+001 6.642598e+001 5.950000e+000
      vertex   3.932836e+001 6.585195e+001 8.900000e+000
      vertex   3.932836e+001 6.585195e+001 3.000000e+000
    endloop
  endfacet
  facet normal 0.000000e+000 -1.000000e+000 0.000000e+000
    outer loop
      vertex   3.165000e+001 6.000000e+001 5.950000e+000
      vertex   1.150000e+001 6.000000e+001 8.900000e+000
      vertex   1.150000e+001 6.000000e+001 3.000000e+000
    endloop
  endfacet
  facet normal -1.000000e+000 0.000000e+000 0.000000e+000
    outer loop
      vertex   1.150000e+001 6.600000e+001 5.950000e+000
      vertex   1.150000e+001 7.200000e+001 3.000000e+000
      vertex   1.150000e+001 6.000000e+001 3.000000e+000
    endloop
  endfacet
  facet normal -1.000000e+000 0.000000e+000 0.000000e+000
    outer loop
      vertex   1.150000e+001 6.600000e+001 5.950000e+000
      vertex   1.150000e+001 6.000000e+001 3.000000e+000
      vertex   1.150000e+001 6.000000e+001 8.900000e+000
    endloop
  endfacet
  facet normal 8.314743e-001 5.555633e-001 -0.000000e+000
    outer loop
      vertex   3.965352e+001 6.536531e+001 5.950000e+000
      vertex   3.932836e+001 6.585195e+001 3.000000e+000
      vertex   3.932836e+001 6.585195e+001 8.900000e+000
    endloop
  endfacet
  facet normal -1.000000e+000 0.000000e+000 -0.000000e+000
    outer loop
      vertex   1.150000e+001 6.600000e+001 5.950000e+000
      vertex   1.150000e+001 7.200000e+001 8.900000e+000
      vertex   1.150000e+001 7.200000e+001 3.000000e+000
    endloop
  endfacet
  facet normal 1.000000e+000 0.000000e+000 -0.000000e+000
    outer loop
      vertex   5.180000e+001 6.600000e+001 5.950000e+000
      vertex   5.180000e+001 7.200000e+001 3.000000e+000
      vertex   5.180000e+001 7.200000e+001 8.900000e+000
    endloop
  endfacet
  facet normal 1.950920e-001 -9.807850e-001 0.000000e+000
    outer loop
      vertex   4.152597e+001 6.988582e+001 5.950000e+000
      vertex   4.210000e+001 7.000000e+001 3.000000e+000
      vertex   4.210000e+001 7.000000e+001 8.900000e+000
    endloop
  endfacet
  facet normal 1.000000e+000 0.000000e+000 0.000000e+000
    outer loop
      vertex   5.180000e+001 6.600000e+001 5.950000e+000
      vertex   5.180000e+001 6.000000e+001 8.900000e+000
      vertex   5.180000e+001 6.000000e+001 3.000000e+000
    endloop
  endfacet
  facet normal 1.000000e+000 0.000000e+000 0.000000e+000
    outer loop
      vertex   5.180000e+001 6.600000e+001 5.950000e+000
      vertex   5.180000e+001 6.000000e+001 3.000000e+000
      vertex   5.180000e+001 7.200000e+001 3.000000e+000
    endloop
  endfacet
  facet normal -9.807853e-001 -1.950904e-001 -5.693426e-007
    outer loop
      vertex   2.388582e+001 6.757402e+001 5.950000e+000
      vertex   2.377164e+001 6.814805e+001 3.000000e+000
      vertex   2.400000e+001 6.700000e+001 3.000000e+000
    endloop
  endfacet
  facet normal -9.807848e-001 -1.950932e-001 0.000000e+000
    outer loop
      vertex   2.388582e+001 6.757402e+001 5.950000e+000
      vertex   2.400000e+001 6.700000e+001 3.000000e+000
      vertex   2.400000e+001 6.700000e+001 8.900000e+000
    endloop
  endfacet
  facet normal 5.555677e-001 -8.314713e-001 -3.592073e-007
    outer loop
      vertex   4.046532e+001 6.944648e+001 5.950000e+000
      vertex   3.997868e+001 6.912132e+001 3.000000e+000
      vertex   4.095195e+001 6.977164e+001 3.000000e+000
    endloop
  endfacet
  facet normal -9.807858e-001 -1.950876e-001 -0.000000e+000
    outer loop
      vertex   2.388582e+001 6.757402e+001 5.950000e+000
      vertex   2.377164e+001 6.814805e+001 8.900000e+000
      vertex   2.377164e+001 6.814805e+001 3.000000e+000
    endloop
  endfacet
  facet normal -8.314708e-001 -5.555685e-001 7.184155e-007
    outer loop
      vertex   2.344648e+001 6.863469e+001 5.950000e+000
      vertex   2.312132e+001 6.912132e+001 3.000000e+000
      vertex   2.377164e+001 6.814805e+001 3.000000e+000
    endloop
  endfacet
  facet normal -8.314728e-001 -5.555655e-001 0.000000e+000
    outer loop
      vertex   2.344648e+001 6.863469e+001 5.950000e+000
      vertex   2.377164e+001 6.814805e+001 3.000000e+000
      vertex   2.377164e+001 6.814805e+001 8.900000e+000
    endloop
  endfacet
  facet normal 5.555693e-001 -8.314703e-001 0.000000e+000
    outer loop
      vertex   4.046532e+001 6.944648e+001 5.950000e+000
      vertex   4.095195e+001 6.977164e+001 3.000000e+000
      vertex   4.095195e+001 6.977164e+001 8.900000e+000
    endloop
  endfacet
  facet normal -8.314688e-001 -5.555716e-001 -0.000000e+000
    outer loop
      vertex   2.344648e+001 6.863469e+001 5.950000e+000
      vertex   2.312132e+001 6.912132e+001 8.900000e+000
      vertex   2.312132e+001 6.912132e+001 3.000000e+000
    endloop
  endfacet
  facet normal -5.555677e-001 -8.314713e-001 0.000000e+000
    outer loop
      vertex   2.263469e+001 6.944648e+001 5.950000e+000
      vertex   2.214805e+001 6.977164e+001 3.000000e+000
      vertex   2.312132e+001 6.912132e+001 3.000000e+000
    endloop
  endfacet
  facet normal -5.555677e-001 -8.314713e-001 0.000000e+000
    outer loop
      vertex   2.263469e+001 6.944648e+001 5.950000e+000
      vertex   2.312132e+001 6.912132e+001 3.000000e+000
      vertex   2.312132e+001 6.912132e+001 8.900000e+000
    endloop
  endfacet
  facet normal 5.555663e-001 -8.314723e-001 0.000000e+000
    outer loop
      vertex   4.046532e+001 6.944648e+001 5.950000e+000
      vertex   3.997868e+001 6.912132e+001 8.900000e+000
      vertex   3.997868e+001 6.912132e+001 3.000000e+000
    endloop
  endfacet
  facet normal -5.555677e-001 -8.314713e-001 -0.000000e+000
    outer loop
      vertex   2.263469e+001 6.944648e+001 5.950000e+000
      vertex   2.214805e+001 6.977164e+001 8.900000e+000
      vertex   2.214805e+001 6.977164e+001 3.000000e+000
    endloop
  endfacet
  facet normal -1.950917e-001 -9.807850e-001 -6.306913e-008
    outer loop
      vertex   2.157402e+001 6.988582e+001 5.950000e+000
      vertex   2.100000e+001 7.000000e+001 3.000000e+000
      vertex   2.214805e+001 6.977164e+001 3.000000e+000
    endloop
  endfacet
  facet normal -1.950913e-001 -9.807851e-001 0.000000e+000
    outer loop
      vertex   2.157402e+001 6.988582e+001 5.950000e+000
      vertex   2.214805e+001 6.977164e+001 3.000000e+000
      vertex   2.214805e+001 6.977164e+001 8.900000e+000
    endloop
  endfacet
  facet normal 8.314673e-001 -5.555738e-001 0.000000e+000
    outer loop
      vertex   3.965352e+001 6.863469e+001 5.950000e+000
      vertex   3.997868e+001 6.912132e+001 3.000000e+000
      vertex   3.997868e+001 6.912132e+001 8.900000e+000
    endloop
  endfacet
  facet normal -1.950920e-001 -9.807850e-001 -0.000000e+000
    outer loop
      vertex   2.157402e+001 6.988582e+001 5.950000e+000
      vertex   2.100000e+001 7.000000e+001 8.900000e+000
      vertex   2.100000e+001 7.000000e+001 3.000000e+000
    endloop
  endfacet
  facet normal 1.950917e-001 -9.807850e-001 6.306913e-008
    outer loop
      vertex   2.042597e+001 6.988582e+001 5.950000e+000
      vertex   1.985195e+001 6.977164e+001 3.000000e+000
      vertex   2.100000e+001 7.000000e+001 3.000000e+000
    endloop
  endfacet
  facet normal 1.950913e-001 -9.807851e-001 0.000000e+000
    outer loop
      vertex   2.042597e+001 6.988582e+001 5.950000e+000
      vertex   2.100000e+001 7.000000e+001 3.000000e+000
      vertex   2.100000e+001 7.000000e+001 8.900000e+000
    endloop
  endfacet
  facet normal 8.314743e-001 -5.555633e-001 0.000000e+000
    outer loop
      vertex   3.965352e+001 6.863469e+001 5.950000e+000
      vertex   3.932836e+001 6.814805e+001 8.900000e+000
      vertex   3.932836e+001 6.814805e+001 3.000000e+000
    endloop
  endfacet
  facet normal 1.950920e-001 -9.807850e-001 0.000000e+000
    outer loop
      vertex   2.042597e+001 6.988582e+001 5.950000e+000
      vertex   1.985195e+001 6.977164e+001 8.900000e+000
      vertex   1.985195e+001 6.977164e+001 3.000000e+000
    endloop
  endfacet
  facet normal 5.555677e-001 -8.314713e-001 0.000000e+000
    outer loop
      vertex   1.936531e+001 6.944648e+001 5.950000e+000
      vertex   1.887868e+001 6.912132e+001 3.000000e+000
      vertex   1.985195e+001 6.977164e+001 3.000000e+000
    endloop
  endfacet
  facet normal 5.555677e-001 -8.314713e-001 0.000000e+000
    outer loop
      vertex   1.936531e+001 6.944648e+001 5.950000e+000
      vertex   1.985195e+001 6.977164e+001 3.000000e+000
      vertex   1.985195e+001 6.977164e+001 8.900000e+000
    endloop
  endfacet
  facet normal 7.071068e-001 7.071068e-001 0.000000e+000
    outer loop
      vertex   5.130000e+001 7.250000e+001 5.950000e+000
      vertex   5.180000e+001 7.200000e+001 8.900000e+000
      vertex   5.180000e+001 7.200000e+001 3.000000e+000
    endloop
  endfacet
  facet normal 5.555677e-001 -8.314713e-001 0.000000e+000
    outer loop
      vertex   1.936531e+001 6.944648e+001 5.950000e+000
      vertex   1.887868e+001 6.912132e+001 8.900000e+000
      vertex   1.887868e+001 6.912132e+001 3.000000e+000
    endloop
  endfacet
  facet normal 8.314708e-001 -5.555685e-001 7.184155e-007
    outer loop
      vertex   1.855352e+001 6.863469e+001 5.950000e+000
      vertex   1.822836e+001 6.814805e+001 3.000000e+000
      vertex   1.887868e+001 6.912132e+001 3.000000e+000
    endloop
  endfacet
  facet normal 8.314688e-001 -5.555716e-001 0.000000e+000
    outer loop
      vertex   1.855352e+001 6.863469e+001 5.950000e+000
      vertex   1.887868e+001 6.912132e+001 3.000000e+000
      vertex   1.887868e+001 6.912132e+001 8.900000e+000
    endloop
  endfacet
  facet normal 0.000000e+000 0.000000e+000 -1.000000e+000
    outer loop
      vertex   5.080000e+001 7.300000e+001 3.000000e+000
      vertex   4.422132e+001 6.912132e+001 3.000000e+000
      vertex   4.324805e+001 6.977164e+001 3.000000e+000
    endloop
  endfacet
  facet normal 8.314728e-001 -5.555655e-001 0.000000e+000
    outer loop
      vertex   1.855352e+001 6.863469e+001 5.950000e+000
      vertex   1.822836e+001 6.814805e+001 8.900000e+000
      vertex   1.822836e+001 6.814805e+001 3.000000e+000
    endloop
  endfacet
  facet normal 9.807853e-001 -1.950904e-001 6.479284e-008
    outer loop
      vertex   1.811418e+001 6.757402e+001 5.950000e+000
      vertex   1.800000e+001 6.700000e+001 3.000000e+000
      vertex   1.822836e+001 6.814805e+001 3.000000e+000
    endloop
  endfacet
  facet normal 9.807852e-001 -1.950907e-001 0.000000e+000
    outer loop
      vertex   1.811418e+001 6.757402e+001 5.950000e+000
      vertex   1.822836e+001 6.814805e+001 3.000000e+000
      vertex   1.822836e+001 6.814805e+001 8.900000e+000
    endloop
  endfacet
  facet normal 0.000000e+000 0.000000e+000 -1.000000e+000
    outer loop
      vertex   5.180000e+001 6.000000e+001 3.000000e+000
      vertex   1.150000e+001 6.000000e+001 3.000000e+000
      vertex   4.210000e+001 6.400000e+001 3.000000e+000
    endloop
  endfacet
  facet normal 9.807854e-001 -1.950901e-001 0.000000e+000
    outer loop
      vertex   1.811418e+001 6.757402e+001 5.950000e+000
      vertex   1.800000e+001 6.700000e+001 8.900000e+000
      vertex   1.800000e+001 6.700000e+001 3.000000e+000
    endloop
  endfacet
  facet normal 9.807853e-001 1.950904e-001 6.479284e-008
    outer loop
      vertex   1.811418e+001 6.642598e+001 5.950000e+000
      vertex   1.822836e+001 6.585195e+001 3.000000e+000
      vertex   1.800000e+001 6.700000e+001 3.000000e+000
    endloop
  endfacet
  facet normal 9.807854e-001 1.950901e-001 -0.000000e+000
    outer loop
      vertex   1.811418e+001 6.642598e+001 5.950000e+000
      vertex   1.800000e+001 6.700000e+001 3.000000e+000
      vertex   1.800000e+001 6.700000e+001 8.900000e+000
    endloop
  endfacet
  facet normal 0.000000e+000 0.000000e+000 -1.000000e+000
    outer loop
      vertex   5.180000e+001 6.000000e+001 3.000000e+000
      vertex   4.324805e+001 6.422836e+001 3.000000e+000
      vertex   4.422132e+001 6.487868e+001 3.000000e+000
    endloop
  endfacet
  facet normal 9.807852e-001 1.950907e-001 0.000000e+000
    outer loop
      vertex   1.811418e+001 6.642598e+001 5.950000e+000
      vertex   1.822836e+001 6.585195e+001 8.900000e+000
      vertex   1.822836e+001 6.585195e+001 3.000000e+000
    endloop
  endfacet
  facet normal 8.314708e-001 5.555685e-001 7.184155e-007
    outer loop
      vertex   1.855352e+001 6.536531e+001 5.950000e+000
      vertex   1.887868e+001 6.487868e+001 3.000000e+000
      vertex   1.822836e+001 6.585195e+001 3.000000e+000
    endloop
  endfacet
  facet normal 8.314728e-001 5.555655e-001 -0.000000e+000
    outer loop
      vertex   1.855352e+001 6.536531e+001 5.950000e+000
      vertex   1.822836e+001 6.585195e+001 3.000000e+000
      vertex   1.822836e+001 6.585195e+001 8.900000e+000
    endloop
  endfacet
  facet normal 9.807848e-001 1.950932e-001 -0.000000e+000
    outer loop
      vertex   3.921418e+001 6.642598e+001 5.950000e+000
      vertex   3.910000e+001 6.700000e+001 3.000000e+000
      vertex   3.910000e+001 6.700000e+001 8.900000e+000
    endloop
  endfacet
  facet normal 8.314688e-001 5.555716e-001 0.000000e+000
    outer loop
      vertex   1.855352e+001 6.536531e+001 5.950000e+000
      vertex   1.887868e+001 6.487868e+001 8.900000e+000
      vertex   1.887868e+001 6.487868e+001 3.000000e+000
    endloop
  endfacet
  facet normal 5.555677e-001 8.314713e-001 0.000000e+000
    outer loop
      vertex   1.936531e+001 6.455352e+001 5.950000e+000
      vertex   1.985195e+001 6.422836e+001 3.000000e+000
      vertex   1.887868e+001 6.487868e+001 3.000000e+000
    endloop
  endfacet
  facet normal 5.555677e-001 8.314713e-001 -0.000000e+000
    outer loop
      vertex   1.936531e+001 6.455352e+001 5.950000e+000
      vertex   1.887868e+001 6.487868e+001 3.000000e+000
      vertex   1.887868e+001 6.487868e+001 8.900000e+000
    endloop
  endfacet
  facet normal 0.000000e+000 0.000000e+000 -1.000000e+000
    outer loop
      vertex   4.210000e+001 7.000000e+001 3.000000e+000
      vertex   4.095195e+001 6.977164e+001 3.000000e+000
      vertex   1.250000e+001 7.300000e+001 3.000000e+000
    endloop
  endfacet
  facet normal 5.555677e-001 8.314713e-001 0.000000e+000
    outer loop
      vertex   1.936531e+001 6.455352e+001 5.950000e+000
      vertex   1.985195e+001 6.422836e+001 8.900000e+000
      vertex   1.985195e+001 6.422836e+001 3.000000e+000
    endloop
  endfacet
  facet normal 1.950917e-001 9.807850e-001 6.306913e-008
    outer loop
      vertex   2.042597e+001 6.411418e+001 5.950000e+000
      vertex   2.100000e+001 6.400000e+001 3.000000e+000
      vertex   1.985195e+001 6.422836e+001 3.000000e+000
    endloop
  endfacet
  facet normal 1.950920e-001 9.807850e-001 -0.000000e+000
    outer loop
      vertex   2.042597e+001 6.411418e+001 5.950000e+000
      vertex   1.985195e+001 6.422836e+001 3.000000e+000
      vertex   1.985195e+001 6.422836e+001 8.900000e+000
    endloop
  endfacet
  facet normal 8.314708e-001 5.555685e-001 1.256010e-006
    outer loop
      vertex   3.965352e+001 6.536531e+001 5.950000e+000
      vertex   3.997868e+001 6.487868e+001 3.000000e+000
      vertex   3.932836e+001 6.585195e+001 3.000000e+000
    endloop
  endfacet
  facet normal 1.950913e-001 9.807851e-001 0.000000e+000
    outer loop
      vertex   2.042597e+001 6.411418e+001 5.950000e+000
      vertex   2.100000e+001 6.400000e+001 8.900000e+000
      vertex   2.100000e+001 6.400000e+001 3.000000e+000
    endloop
  endfacet
  facet normal -1.950917e-001 9.807850e-001 -6.306913e-008
    outer loop
      vertex   2.157402e+001 6.411418e+001 5.950000e+000
      vertex   2.214805e+001 6.422836e+001 3.000000e+000
      vertex   2.100000e+001 6.400000e+001 3.000000e+000
    endloop
  endfacet
  facet normal -1.950920e-001 9.807850e-001 0.000000e+000
    outer loop
      vertex   2.157402e+001 6.411418e+001 5.950000e+000
      vertex   2.100000e+001 6.400000e+001 3.000000e+000
      vertex   2.100000e+001 6.400000e+001 8.900000e+000
    endloop
  endfacet
  facet normal 0.000000e+000 0.000000e+000 -1.000000e+000
    outer loop
      vertex   3.997868e+001 6.912132e+001 3.000000e+000
      vertex   3.932836e+001 6.814805e+001 3.000000e+000
      vertex   1.250000e+001 7.300000e+001 3.000000e+000
    endloop
  endfacet
  facet normal -1.950913e-001 9.807851e-001 0.000000e+000
    outer loop
      vertex   2.157402e+001 6.411418e+001 5.950000e+000
      vertex   2.214805e+001 6.422836e+001 8.900000e+000
      vertex   2.214805e+001 6.422836e+001 3.000000e+000
    endloop
  endfacet
  facet normal -5.555677e-001 8.314713e-001 0.000000e+000
    outer loop
      vertex   2.263469e+001 6.455352e+001 5.950000e+000
      vertex   2.312132e+001 6.487868e+001 3.000000e+000
      vertex   2.214805e+001 6.422836e+001 3.000000e+000
    endloop
  endfacet
  facet normal -5.555677e-001 8.314713e-001 0.000000e+000
    outer loop
      vertex   2.263469e+001 6.455352e+001 5.950000e+000
      vertex   2.214805e+001 6.422836e+001 3.000000e+000
      vertex   2.214805e+001 6.422836e+001 8.900000e+000
    endloop
  endfacet
  facet normal 8.314673e-001 5.555738e-001 0.000000e+000
    outer loop
      vertex   3.965352e+001 6.536531e+001 5.950000e+000
      vertex   3.997868e+001 6.487868e+001 8.900000e+000
      vertex   3.997868e+001 6.487868e+001 3.000000e+000
    endloop
  endfacet
  facet normal -5.555677e-001 8.314713e-001 0.000000e+000
    outer loop
      vertex   2.263469e+001 6.455352e+001 5.950000e+000
      vertex   2.312132e+001 6.487868e+001 8.900000e+000
      vertex   2.312132e+001 6.487868e+001 3.000000e+000
    endloop
  endfacet
  facet normal -8.314708e-001 5.555685e-001 7.184155e-007
    outer loop
      vertex   2.344648e+001 6.536531e+001 5.950000e+000
      vertex   2.377164e+001 6.585195e+001 3.000000e+000
      vertex   2.312132e+001 6.487868e+001 3.000000e+000
    endloop
  endfacet
  facet normal -8.314688e-001 5.555716e-001 0.000000e+000
    outer loop
      vertex   2.344648e+001 6.536531e+001 5.950000e+000
      vertex   2.312132e+001 6.487868e+001 3.000000e+000
      vertex   2.312132e+001 6.487868e+001 8.900000e+000
    endloop
  endfacet
  facet normal 5.555663e-001 8.314723e-001 -0.000000e+000
    outer loop
      vertex   4.046532e+001 6.455352e+001 5.950000e+000
      vertex   3.997868e+001 6.487868e+001 3.000000e+000
      vertex   3.997868e+001 6.487868e+001 8.900000e+000
    endloop
  endfacet
  facet normal -8.314728e-001 5.555655e-001 0.000000e+000
    outer loop
      vertex   2.344648e+001 6.536531e+001 5.950000e+000
      vertex   2.377164e+001 6.585195e+001 8.900000e+000
      vertex   2.377164e+001 6.585195e+001 3.000000e+000
    endloop
  endfacet
  facet normal -9.807853e-001 1.950904e-001 -5.693426e-007
    outer loop
      vertex   2.388582e+001 6.642598e+001 5.950000e+000
      vertex   2.400000e+001 6.700000e+001 3.000000e+000
      vertex   2.377164e+001 6.585195e+001 3.000000e+000
    endloop
  endfacet
  facet normal -9.807858e-001 1.950876e-001 0.000000e+000
    outer loop
      vertex   2.388582e+001 6.642598e+001 5.950000e+000
      vertex   2.377164e+001 6.585195e+001 3.000000e+000
      vertex   2.377164e+001 6.585195e+001 8.900000e+000
    endloop
  endfacet
  facet normal 5.555693e-001 8.314703e-001 0.000000e+000
    outer loop
      vertex   4.046532e+001 6.455352e+001 5.950000e+000
      vertex   4.095195e+001 6.422836e+001 8.900000e+000
      vertex   4.095195e+001 6.422836e+001 3.000000e+000
    endloop
  endfacet
  facet normal -9.807848e-001 1.950932e-001 0.000000e+000
    outer loop
      vertex   2.388582e+001 6.642598e+001 5.950000e+000
      vertex   2.400000e+001 6.700000e+001 8.900000e+000
      vertex   2.400000e+001 6.700000e+001 3.000000e+000
    endloop
  endfacet
  facet normal -9.807856e-001 -1.950888e-001 -8.864085e-007
    outer loop
      vertex   4.498582e+001 6.757402e+001 5.950000e+000
      vertex   4.487164e+001 6.814805e+001 3.000000e+000
      vertex   4.510000e+001 6.700000e+001 3.000000e+000
    endloop
  endfacet
  facet normal -9.807848e-001 -1.950932e-001 0.000000e+000
    outer loop
      vertex   4.498582e+001 6.757402e+001 5.950000e+000
      vertex   4.510000e+001 6.700000e+001 3.000000e+000
      vertex   4.510000e+001 6.700000e+001 8.900000e+000
    endloop
  endfacet
  facet normal 1.950920e-001 9.807850e-001 -0.000000e+000
    outer loop
      vertex   4.152597e+001 6.411418e+001 5.950000e+000
      vertex   4.095195e+001 6.422836e+001 3.000000e+000
      vertex   4.095195e+001 6.422836e+001 8.900000e+000
    endloop
  endfacet
  facet normal -9.807864e-001 -1.950845e-001 -0.000000e+000
    outer loop
      vertex   4.498582e+001 6.757402e+001 5.950000e+000
      vertex   4.487164e+001 6.814805e+001 8.900000e+000
      vertex   4.487164e+001 6.814805e+001 3.000000e+000
    endloop
  endfacet
  facet normal -8.314708e-001 -5.555685e-001 1.808207e-007
    outer loop
      vertex   4.454648e+001 6.863469e+001 5.950000e+000
      vertex   4.422132e+001 6.912132e+001 3.000000e+000
      vertex   4.487164e+001 6.814805e+001 3.000000e+000
    endloop
  endfacet
  facet normal -8.314713e-001 -5.555678e-001 0.000000e+000
    outer loop
      vertex   4.454648e+001 6.863469e+001 5.950000e+000
      vertex   4.487164e+001 6.814805e+001 3.000000e+000
      vertex   4.487164e+001 6.814805e+001 8.900000e+000
    endloop
  endfacet
  facet normal 1.950920e-001 9.807850e-001 0.000000e+000
    outer loop
      vertex   4.152597e+001 6.411418e+001 5.950000e+000
      vertex   4.210000e+001 6.400000e+001 8.900000e+000
      vertex   4.210000e+001 6.400000e+001 3.000000e+000
    endloop
  endfacet
  facet normal -8.314703e-001 -5.555693e-001 -0.000000e+000
    outer loop
      vertex   4.454648e+001 6.863469e+001 5.950000e+000
      vertex   4.422132e+001 6.912132e+001 8.900000e+000
      vertex   4.422132e+001 6.912132e+001 3.000000e+000
    endloop
  endfacet
  facet normal -5.555677e-001 -8.314713e-001 3.592073e-007
    outer loop
      vertex   4.373469e+001 6.944648e+001 5.950000e+000
      vertex   4.324805e+001 6.977164e+001 3.000000e+000
      vertex   4.422132e+001 6.912132e+001 3.000000e+000
    endloop
  endfacet
  facet normal -5.555693e-001 -8.314703e-001 0.000000e+000
    outer loop
      vertex   4.373469e+001 6.944648e+001 5.950000e+000
      vertex   4.422132e+001 6.912132e+001 3.000000e+000
      vertex   4.422132e+001 6.912132e+001 8.900000e+000
    endloop
  endfacet
  facet normal -1.950907e-001 9.807852e-001 0.000000e+000
    outer loop
      vertex   4.267403e+001 6.411418e+001 5.950000e+000
      vertex   4.210000e+001 6.400000e+001 3.000000e+000
      vertex   4.210000e+001 6.400000e+001 8.900000e+000
    endloop
  endfacet
  facet normal -5.555663e-001 -8.314723e-001 -0.000000e+000
    outer loop
      vertex   4.373469e+001 6.944648e+001 5.950000e+000
      vertex   4.324805e+001 6.977164e+001 8.900000e+000
      vertex   4.324805e+001 6.977164e+001 3.000000e+000
    endloop
  endfacet
  facet normal -1.950913e-001 -9.807851e-001 1.261380e-007
    outer loop
      vertex   4.267403e+001 6.988582e+001 5.950000e+000
      vertex   4.210000e+001 7.000000e+001 3.000000e+000
      vertex   4.324805e+001 6.977164e+001 3.000000e+000
    endloop
  endfacet
  facet normal -1.950920e-001 -9.807850e-001 0.000000e+000
    outer loop
      vertex   4.267403e+001 6.988582e+001 5.950000e+000
      vertex   4.324805e+001 6.977164e+001 3.000000e+000
      vertex   4.324805e+001 6.977164e+001 8.900000e+000
    endloop
  endfacet
  facet normal -1.950920e-001 9.807850e-001 0.000000e+000
    outer loop
      vertex   4.267403e+001 6.411418e+001 5.950000e+000
      vertex   4.324805e+001 6.422836e+001 8.900000e+000
      vertex   4.324805e+001 6.422836e+001 3.000000e+000
    endloop
  endfacet
  facet normal -1.950907e-001 -9.807852e-001 -0.000000e+000
    outer loop
      vertex   4.267403e+001 6.988582e+001 5.950000e+000
      vertex   4.210000e+001 7.000000e+001 8.900000e+000
      vertex   4.210000e+001 7.000000e+001 3.000000e+000
    endloop
  endfacet
  facet normal 1.950920e-001 -9.807850e-001 0.000000e+000
    outer loop
      vertex   4.152597e+001 6.988582e+001 5.950000e+000
      vertex   4.095195e+001 6.977164e+001 3.000000e+000
      vertex   4.210000e+001 7.000000e+001 3.000000e+000
    endloop
  endfacet
  facet normal 0.000000e+000 0.000000e+000 -1.000000e+000
    outer loop
      vertex   5.080000e+001 7.300000e+001 3.000000e+000
      vertex   4.210000e+001 7.000000e+001 3.000000e+000
      vertex   1.250000e+001 7.300000e+001 3.000000e+000
    endloop
  endfacet
  facet normal 0.000000e+000 0.000000e+000 -1.000000e+000
    outer loop
      vertex   5.180000e+001 7.200000e+001 3.000000e+000
      vertex   5.180000e+001 6.000000e+001 3.000000e+000
      vertex   5.080000e+001 7.300000e+001 3.000000e+000
    endloop
  endfacet
  facet normal 1.950920e-001 -9.807850e-001 0.000000e+000
    outer loop
      vertex   4.152597e+001 6.988582e+001 5.950000e+000
      vertex   4.095195e+001 6.977164e+001 8.900000e+000
      vertex   4.095195e+001 6.977164e+001 3.000000e+000
    endloop
  endfacet
  facet normal -5.555663e-001 8.314723e-001 0.000000e+000
    outer loop
      vertex   4.373469e+001 6.455352e+001 5.950000e+000
      vertex   4.324805e+001 6.422836e+001 3.000000e+000
      vertex   4.324805e+001 6.422836e+001 8.900000e+000
    endloop
  endfacet
  facet normal 0.000000e+000 0.000000e+000 -1.000000e+000
    outer loop
      vertex   5.080000e+001 7.300000e+001 3.000000e+000
      vertex   4.324805e+001 6.977164e+001 3.000000e+000
      vertex   4.210000e+001 7.000000e+001 3.000000e+000
    endloop
  endfacet
  facet normal 0.000000e+000 0.000000e+000 -1.000000e+000
    outer loop
      vertex   4.210000e+001 6.400000e+001 3.000000e+000
      vertex   1.150000e+001 6.000000e+001 3.000000e+000
      vertex   4.095195e+001 6.422836e+001 3.000000e+000
    endloop
  endfacet
  facet normal 0.000000e+000 0.000000e+000 -1.000000e+000
    outer loop
      vertex   3.910000e+001 6.700000e+001 3.000000e+000
      vertex   3.932836e+001 6.585195e+001 3.000000e+000
      vertex   1.250000e+001 7.300000e+001 3.000000e+000
    endloop
  endfacet
  facet normal 8.314708e-001 -5.555685e-001 1.256010e-006
    outer loop
      vertex   3.965352e+001 6.863469e+001 5.950000e+000
      vertex   3.932836e+001 6.814805e+001 3.000000e+000
      vertex   3.997868e+001 6.912132e+001 3.000000e+000
    endloop
  endfacet
  facet normal -5.555693e-001 8.314703e-001 0.000000e+000
    outer loop
      vertex   4.373469e+001 6.455352e+001 5.950000e+000
      vertex   4.422132e+001 6.487868e+001 8.900000e+000
      vertex   4.422132e+001 6.487868e+001 3.000000e+000
    endloop
  endfacet
  facet normal 0.000000e+000 0.000000e+000 -1.000000e+000
    outer loop
      vertex   3.997868e+001 6.487868e+001 3.000000e+000
      vertex   2.214805e+001 6.977164e+001 3.000000e+000
      vertex   1.250000e+001 7.300000e+001 3.000000e+000
    endloop
  endfacet
  facet normal 0.000000e+000 0.000000e+000 -1.000000e+000
    outer loop
      vertex   3.997868e+001 6.487868e+001 3.000000e+000
      vertex   2.312132e+001 6.912132e+001 3.000000e+000
      vertex   2.214805e+001 6.977164e+001 3.000000e+000
    endloop
  endfacet
  facet normal 0.000000e+000 0.000000e+000 -1.000000e+000
    outer loop
      vertex   5.080000e+001 7.300000e+001 3.000000e+000
      vertex   5.180000e+001 6.000000e+001 3.000000e+000
      vertex   4.422132e+001 6.912132e+001 3.000000e+000
    endloop
  endfacet
  facet normal 0.000000e+000 0.000000e+000 -1.000000e+000
    outer loop
      vertex   5.180000e+001 6.000000e+001 3.000000e+000
      vertex   4.210000e+001 6.400000e+001 3.000000e+000
      vertex   4.324805e+001 6.422836e+001 3.000000e+000
    endloop
  endfacet
  facet normal 0.000000e+000 0.000000e+000 -1.000000e+000
    outer loop
      vertex   5.180000e+001 6.000000e+001 3.000000e+000
      vertex   4.422132e+001 6.487868e+001 3.000000e+000
      vertex   4.487164e+001 6.585195e+001 3.000000e+000
    endloop
  endfacet
  facet normal 0.000000e+000 0.000000e+000 -1.000000e+000
    outer loop
      vertex   5.180000e+001 6.000000e+001 3.000000e+000
      vertex   4.510000e+001 6.700000e+001 3.000000e+000
      vertex   4.487164e+001 6.814805e+001 3.000000e+000
    endloop
  endfacet
  facet normal 0.000000e+000 0.000000e+000 -1.000000e+000
    outer loop
      vertex   5.180000e+001 6.000000e+001 3.000000e+000
      vertex   4.487164e+001 6.585195e+001 3.000000e+000
      vertex   4.510000e+001 6.700000e+001 3.000000e+000
    endloop
  endfacet
  facet normal -8.314703e-001 5.555693e-001 0.000000e+000
    outer loop
      vertex   4.454648e+001 6.536531e+001 5.950000e+000
      vertex   4.422132e+001 6.487868e+001 3.000000e+000
      vertex   4.422132e+001 6.487868e+001 8.900000e+000
    endloop
  endfacet
  facet normal 0.000000e+000 0.000000e+000 -1.000000e+000
    outer loop
      vertex   4.095195e+001 6.977164e+001 3.000000e+000
      vertex   3.997868e+001 6.912132e+001 3.000000e+000
      vertex   1.250000e+001 7.300000e+001 3.000000e+000
    endloop
  endfacet
  facet normal 0.000000e+000 0.000000e+000 -1.000000e+000
    outer loop
      vertex   5.180000e+001 6.000000e+001 3.000000e+000
      vertex   4.487164e+001 6.814805e+001 3.000000e+000
      vertex   4.422132e+001 6.912132e+001 3.000000e+000
    endloop
  endfacet
  facet normal -8.314713e-001 5.555678e-001 0.000000e+000
    outer loop
      vertex   4.454648e+001 6.536531e+001 5.950000e+000
      vertex   4.487164e+001 6.585195e+001 8.900000e+000
      vertex   4.487164e+001 6.585195e+001 3.000000e+000
    endloop
  endfacet
  facet normal 0.000000e+000 0.000000e+000 -1.000000e+000
    outer loop
      vertex   3.932836e+001 6.814805e+001 3.000000e+000
      vertex   3.910000e+001 6.700000e+001 3.000000e+000
      vertex   1.250000e+001 7.300000e+001 3.000000e+000
    endloop
  endfacet
  facet normal -9.807856e-001 1.950888e-001 -8.864085e-007
    outer loop
      vertex   4.498582e+001 6.642598e+001 5.950000e+000
      vertex   4.510000e+001 6.700000e+001 3.000000e+000
      vertex   4.487164e+001 6.585195e+001 3.000000e+000
    endloop
  endfacet
  facet normal 0.000000e+000 0.000000e+000 -1.000000e+000
    outer loop
      vertex   3.997868e+001 6.487868e+001 3.000000e+000
      vertex   2.214805e+001 6.422836e+001 3.000000e+000
      vertex   2.312132e+001 6.487868e+001 3.000000e+000
    endloop
  endfacet
  facet normal 5.555677e-001 8.314713e-001 -3.592073e-007
    outer loop
      vertex   4.046532e+001 6.455352e+001 5.950000e+000
      vertex   4.095195e+001 6.422836e+001 3.000000e+000
      vertex   3.997868e+001 6.487868e+001 3.000000e+000
    endloop
  endfacet
  facet normal 0.000000e+000 0.000000e+000 -1.000000e+000
    outer loop
      vertex   3.997868e+001 6.487868e+001 3.000000e+000
      vertex   1.150000e+001 6.000000e+001 3.000000e+000
      vertex   2.214805e+001 6.422836e+001 3.000000e+000
    endloop
  endfacet
  facet normal 0.000000e+000 0.000000e+000 -1.000000e+000
    outer loop
      vertex   3.997868e+001 6.487868e+001 3.000000e+000
      vertex   2.312132e+001 6.487868e+001 3.000000e+000
      vertex   2.377164e+001 6.585195e+001 3.000000e+000
    endloop
  endfacet
  facet normal 0.000000e+000 0.000000e+000 -1.000000e+000
    outer loop
      vertex   3.997868e+001 6.487868e+001 3.000000e+000
      vertex   2.377164e+001 6.585195e+001 3.000000e+000
      vertex   2.400000e+001 6.700000e+001 3.000000e+000
    endloop
  endfacet
  facet normal 1.950920e-001 9.807850e-001 0.000000e+000
    outer loop
      vertex   4.152597e+001 6.411418e+001 5.950000e+000
      vertex   4.210000e+001 6.400000e+001 3.000000e+000
      vertex   4.095195e+001 6.422836e+001 3.000000e+000
    endloop
  endfacet
  facet normal -9.807864e-001 1.950845e-001 0.000000e+000
    outer loop
      vertex   4.498582e+001 6.642598e+001 5.950000e+000
      vertex   4.487164e+001 6.585195e+001 3.000000e+000
      vertex   4.487164e+001 6.585195e+001 8.900000e+000
    endloop
  endfacet
  facet normal 0.000000e+000 0.000000e+000 -1.000000e+000
    outer loop
      vertex   2.214805e+001 6.977164e+001 3.000000e+000
      vertex   2.100000e+001 7.000000e+001 3.000000e+000
      vertex   1.250000e+001 7.300000e+001 3.000000e+000
    endloop
  endfacet
  facet normal 0.000000e+000 0.000000e+000 -1.000000e+000
    outer loop
      vertex   2.100000e+001 7.000000e+001 3.000000e+000
      vertex   1.985195e+001 6.977164e+001 3.000000e+000
      vertex   1.250000e+001 7.300000e+001 3.000000e+000
    endloop
  endfacet
  facet normal -1.950913e-001 9.807851e-001 1.261380e-007
    outer loop
      vertex   4.267403e+001 6.411418e+001 5.950000e+000
      vertex   4.324805e+001 6.422836e+001 3.000000e+000
      vertex   4.210000e+001 6.400000e+001 3.000000e+000
    endloop
  endfacet
  facet normal 0.000000e+000 0.000000e+000 -1.000000e+000
    outer loop
      vertex   3.997868e+001 6.487868e+001 3.000000e+000
      vertex   2.377164e+001 6.814805e+001 3.000000e+000
      vertex   2.312132e+001 6.912132e+001 3.000000e+000
    endloop
  endfacet
  facet normal 0.000000e+000 0.000000e+000 -1.000000e+000
    outer loop
      vertex   1.985195e+001 6.977164e+001 3.000000e+000
      vertex   1.887868e+001 6.912132e+001 3.000000e+000
      vertex   1.250000e+001 7.300000e+001 3.000000e+000
    endloop
  endfacet
  facet normal 0.000000e+000 0.000000e+000 -1.000000e+000
    outer loop
      vertex   1.887868e+001 6.912132e+001 3.000000e+000
      vertex   1.822836e+001 6.814805e+001 3.000000e+000
      vertex   1.250000e+001 7.300000e+001 3.000000e+000
    endloop
  endfacet
  facet normal -5.555677e-001 8.314713e-001 3.592073e-007
    outer loop
      vertex   4.373469e+001 6.455352e+001 5.950000e+000
      vertex   4.422132e+001 6.487868e+001 3.000000e+000
      vertex   4.324805e+001 6.422836e+001 3.000000e+000
    endloop
  endfacet
  facet normal 0.000000e+000 0.000000e+000 -1.000000e+000
    outer loop
      vertex   4.095195e+001 6.422836e+001 3.000000e+000
      vertex   1.150000e+001 6.000000e+001 3.000000e+000
      vertex   3.997868e+001 6.487868e+001 3.000000e+000
    endloop
  endfacet
  facet normal -9.807848e-001 1.950932e-001 0.000000e+000
    outer loop
      vertex   4.498582e+001 6.642598e+001 5.950000e+000
      vertex   4.510000e+001 6.700000e+001 8.900000e+000
      vertex   4.510000e+001 6.700000e+001 3.000000e+000
    endloop
  endfacet
  facet normal 0.000000e+000 0.000000e+000 -1.000000e+000
    outer loop
      vertex   3.932836e+001 6.585195e+001 3.000000e+000
      vertex   3.997868e+001 6.487868e+001 3.000000e+000
      vertex   1.250000e+001 7.300000e+001 3.000000e+000
    endloop
  endfacet
  facet normal -8.314708e-001 5.555685e-001 1.808207e-007
    outer loop
      vertex   4.454648e+001 6.536531e+001 5.950000e+000
      vertex   4.487164e+001 6.585195e+001 3.000000e+000
      vertex   4.422132e+001 6.487868e+001 3.000000e+000
    endloop
  endfacet
  facet normal 0.000000e+000 0.000000e+000 -1.000000e+000
    outer loop
      vertex   1.250000e+001 7.300000e+001 3.000000e+000
      vertex   1.150000e+001 6.000000e+001 3.000000e+000
      vertex   1.150000e+001 7.200000e+001 3.000000e+000
    endloop
  endfacet
  facet normal 0.000000e+000 0.000000e+000 -1.000000e+000
    outer loop
      vertex   1.887868e+001 6.487868e+001 3.000000e+000
      vertex   1.150000e+001 6.000000e+001 3.000000e+000
      vertex   1.250000e+001 7.300000e+001 3.000000e+000
    endloop
  endfacet
  facet normal 0.000000e+000 0.000000e+000 -1.000000e+000
    outer loop
      vertex   3.997868e+001 6.487868e+001 3.000000e+000
      vertex   2.400000e+001 6.700000e+001 3.000000e+000
      vertex   2.377164e+001 6.814805e+001 3.000000e+000
    endloop
  endfacet
  facet normal 0.000000e+000 0.000000e+000 -1.000000e+000
    outer loop
      vertex   1.822836e+001 6.585195e+001 3.000000e+000
      vertex   1.887868e+001 6.487868e+001 3.000000e+000
      vertex   1.250000e+001 7.300000e+001 3.000000e+000
    endloop
  endfacet
  facet normal 0.000000e+000 0.000000e+000 -1.000000e+000
    outer loop
      vertex   1.800000e+001 6.700000e+001 3.000000e+000
      vertex   1.822836e+001 6.585195e+001 3.000000e+000
      vertex   1.250000e+001 7.300000e+001 3.000000e+000
    endloop
  endfacet
  facet normal 0.000000e+000 0.000000e+000 -1.000000e+000
    outer loop
      vertex   1.985195e+001 6.422836e+001 3.000000e+000
      vertex   1.150000e+001 6.000000e+001 3.000000e+000
      vertex   1.887868e+001 6.487868e+001 3.000000e+000
    endloop
  endfacet
  facet normal 0.000000e+000 0.000000e+000 -1.000000e+000
    outer loop
      vertex   2.214805e+001 6.422836e+001 3.000000e+000
      vertex   1.150000e+001 6.000000e+001 3.000000e+000
      vertex   2.100000e+001 6.400000e+001 3.000000e+000
    endloop
  endfacet
  facet normal 0.000000e+000 0.000000e+000 -1.000000e+000
    outer loop
      vertex   1.822836e+001 6.814805e+001 3.000000e+000
      vertex   1.800000e+001 6.700000e+001 3.000000e+000
      vertex   1.250000e+001 7.300000e+001 3.000000e+000
    endloop
  endfacet
  facet normal 0.000000e+000 0.000000e+000 -1.000000e+000
    outer loop
      vertex   2.100000e+001 6.400000e+001 3.000000e+000
      vertex   1.150000e+001 6.000000e+001 3.000000e+000
      vertex   1.985195e+001 6.422836e+001 3.000000e+000
    endloop
  endfacet
  facet normal 8.314708e-001 5.555685e-001 -7.184155e-007
    outer loop
      vertex   1.855352e+001 6.536531e+001 5.950000e+000
      vertex   1.822836e+001 6.585195e+001 8.900000e+000
      vertex   1.887868e+001 6.487868e+001 8.900000e+000
    endloop
  endfacet
  facet normal 1.950917e-001 -9.807850e-001 -6.306913e-008
    outer loop
      vertex   2.042597e+001 6.988582e+001 5.950000e+000
      vertex   2.100000e+001 7.000000e+001 8.900000e+000
      vertex   1.985195e+001 6.977164e+001 8.900000e+000
    endloop
  endfacet
  facet normal -1.950913e-001 9.807851e-001 -1.261380e-007
    outer loop
      vertex   4.267403e+001 6.411418e+001 5.950000e+000
      vertex   4.210000e+001 6.400000e+001 8.900000e+000
      vertex   4.324805e+001 6.422836e+001 8.900000e+000
    endloop
  endfacet
  facet normal -8.314708e-001 5.555685e-001 -1.808207e-007
    outer loop
      vertex   4.454648e+001 6.536531e+001 5.950000e+000
      vertex   4.422132e+001 6.487868e+001 8.900000e+000
      vertex   4.487164e+001 6.585195e+001 8.900000e+000
    endloop
  endfacet
  facet normal -1.950913e-001 -9.807851e-001 -1.261380e-007
    outer loop
      vertex   4.267403e+001 6.988582e+001 5.950000e+000
      vertex   4.324805e+001 6.977164e+001 8.900000e+000
      vertex   4.210000e+001 7.000000e+001 8.900000e+000
    endloop
  endfacet
  facet normal -8.314708e-001 -5.555685e-001 -1.808207e-007
    outer loop
      vertex   4.454648e+001 6.863469e+001 5.950000e+000
      vertex   4.487164e+001 6.814805e+001 8.900000e+000
      vertex   4.422132e+001 6.912132e+001 8.900000e+000
    endloop
  endfacet
  facet normal -5.555677e-001 -8.314713e-001 -3.592073e-007
    outer loop
      vertex   4.373469e+001 6.944648e+001 5.950000e+000
      vertex   4.422132e+001 6.912132e+001 8.900000e+000
      vertex   4.324805e+001 6.977164e+001 8.900000e+000
    endloop
  endfacet
  facet normal -9.807856e-001 1.950888e-001 8.864085e-007
    outer loop
      vertex   4.498582e+001 6.642598e+001 5.950000e+000
      vertex   4.487164e+001 6.585195e+001 8.900000e+000
      vertex   4.510000e+001 6.700000e+001 8.900000e+000
    endloop
  endfacet
  facet normal -9.807853e-001 1.950904e-001 5.693426e-007
    outer loop
      vertex   2.388582e+001 6.642598e+001 5.950000e+000
      vertex   2.377164e+001 6.585195e+001 8.900000e+000
      vertex   2.400000e+001 6.700000e+001 8.900000e+000
    endloop
  endfacet
  facet normal 1.950920e-001 9.807850e-001 0.000000e+000
    outer loop
      vertex   4.152597e+001 6.411418e+001 5.950000e+000
      vertex   4.095195e+001 6.422836e+001 8.900000e+000
      vertex   4.210000e+001 6.400000e+001 8.900000e+000
    endloop
  endfacet
  facet normal -9.807856e-001 -1.950888e-001 8.864085e-007
    outer loop
      vertex   4.498582e+001 6.757402e+001 5.950000e+000
      vertex   4.510000e+001 6.700000e+001 8.900000e+000
      vertex   4.487164e+001 6.814805e+001 8.900000e+000
    endloop
  endfacet
  facet normal 5.555677e-001 8.314713e-001 3.592073e-007
    outer loop
      vertex   4.046532e+001 6.455352e+001 5.950000e+000
      vertex   3.997868e+001 6.487868e+001 8.900000e+000
      vertex   4.095195e+001 6.422836e+001 8.900000e+000
    endloop
  endfacet
  facet normal -8.314708e-001 5.555685e-001 -7.184155e-007
    outer loop
      vertex   2.344648e+001 6.536531e+001 5.950000e+000
      vertex   2.312132e+001 6.487868e+001 8.900000e+000
      vertex   2.377164e+001 6.585195e+001 8.900000e+000
    endloop
  endfacet
  facet normal 1.950917e-001 9.807850e-001 -6.306913e-008
    outer loop
      vertex   2.042597e+001 6.411418e+001 5.950000e+000
      vertex   1.985195e+001 6.422836e+001 8.900000e+000
      vertex   2.100000e+001 6.400000e+001 8.900000e+000
    endloop
  endfacet
  facet normal -5.555677e-001 8.314713e-001 0.000000e+000
    outer loop
      vertex   2.263469e+001 6.455352e+001 5.950000e+000
      vertex   2.214805e+001 6.422836e+001 8.900000e+000
      vertex   2.312132e+001 6.487868e+001 8.900000e+000
    endloop
  endfacet
  facet normal -1.950917e-001 9.807850e-001 6.306913e-008
    outer loop
      vertex   2.157402e+001 6.411418e+001 5.950000e+000
      vertex   2.100000e+001 6.400000e+001 8.900000e+000
      vertex   2.214805e+001 6.422836e+001 8.900000e+000
    endloop
  endfacet
  facet normal -5.555677e-001 -8.314713e-001 0.000000e+000
    outer loop
      vertex   2.263469e+001 6.944648e+001 5.950000e+000
      vertex   2.312132e+001 6.912132e+001 8.900000e+000
      vertex   2.214805e+001 6.977164e+001 8.900000e+000
    endloop
  endfacet
  facet normal 8.314708e-001 -5.555685e-001 -1.256010e-006
    outer loop
      vertex   3.965352e+001 6.863469e+001 5.950000e+000
      vertex   3.997868e+001 6.912132e+001 8.900000e+000
      vertex   3.932836e+001 6.814805e+001 8.900000e+000
    endloop
  endfacet
  facet normal -1.950917e-001 -9.807850e-001 6.306913e-008
    outer loop
      vertex   2.157402e+001 6.988582e+001 5.950000e+000
      vertex   2.214805e+001 6.977164e+001 8.900000e+000
      vertex   2.100000e+001 7.000000e+001 8.900000e+000
    endloop
  endfacet
  facet normal -8.314708e-001 -5.555685e-001 -7.184155e-007
    outer loop
      vertex   2.344648e+001 6.863469e+001 5.950000e+000
      vertex   2.377164e+001 6.814805e+001 8.900000e+000
      vertex   2.312132e+001 6.912132e+001 8.900000e+000
    endloop
  endfacet
  facet normal -9.807853e-001 -1.950904e-001 5.693426e-007
    outer loop
      vertex   2.388582e+001 6.757402e+001 5.950000e+000
      vertex   2.400000e+001 6.700000e+001 8.900000e+000
      vertex   2.377164e+001 6.814805e+001 8.900000e+000
    endloop
  endfacet
  facet normal -5.555677e-001 8.314713e-001 -3.592073e-007
    outer loop
      vertex   4.373469e+001 6.455352e+001 5.950000e+000
      vertex   4.324805e+001 6.422836e+001 8.900000e+000
      vertex   4.422132e+001 6.487868e+001 8.900000e+000
    endloop
  endfacet
  facet normal -1.000000e+000 0.000000e+000 0.000000e+000
    outer loop
      vertex   1.150000e+001 6.600000e+001 5.950000e+000
      vertex   1.150000e+001 6.000000e+001 8.900000e+000
      vertex   1.150000e+001 7.200000e+001 8.900000e+000
    endloop
  endfacet
  facet normal 1.000000e+000 0.000000e+000 0.000000e+000
    outer loop
      vertex   5.180000e+001 6.600000e+001 5.950000e+000
      vertex   5.180000e+001 7.200000e+001 8.900000e+000
      vertex   5.180000e+001 6.000000e+001 8.900000e+000
    endloop
  endfacet
  facet normal 9.807850e-001 1.950920e-001 2.522769e-007
    outer loop
      vertex   3.921418e+001 6.642598e+001 5.950000e+000
      vertex   3.910000e+001 6.700000e+001 8.900000e+000
      vertex   3.932836e+001 6.585195e+001 8.900000e+000
    endloop
  endfacet
  facet normal 5.555677e-001 8.314713e-001 0.000000e+000
    outer loop
      vertex   1.936531e+001 6.455352e+001 5.950000e+000
      vertex   1.887868e+001 6.487868e+001 8.900000e+000
      vertex   1.985195e+001 6.422836e+001 8.900000e+000
    endloop
  endfacet
  facet normal -0.000000e+000 -1.000000e+000 0.000000e+000
    outer loop
      vertex   3.165000e+001 6.000000e+001 5.950000e+000
      vertex   5.180000e+001 6.000000e+001 8.900000e+000
      vertex   1.150000e+001 6.000000e+001 8.900000e+000
    endloop
  endfacet
  facet normal 9.807853e-001 1.950904e-001 -6.479284e-008
    outer loop
      vertex   1.811418e+001 6.642598e+001 5.950000e+000
      vertex   1.800000e+001 6.700000e+001 8.900000e+000
      vertex   1.822836e+001 6.585195e+001 8.900000e+000
    endloop
  endfacet
  facet normal -0.000000e+000 1.000000e+000 0.000000e+000
    outer loop
      vertex   3.165000e+001 7.300000e+001 5.950000e+000
      vertex   1.250000e+001 7.300000e+001 8.900000e+000
      vertex   5.080000e+001 7.300000e+001 8.900000e+000
    endloop
  endfacet
  facet normal 9.807853e-001 -1.950904e-001 -6.479284e-008
    outer loop
      vertex   1.811418e+001 6.757402e+001 5.950000e+000
      vertex   1.822836e+001 6.814805e+001 8.900000e+000
      vertex   1.800000e+001 6.700000e+001 8.900000e+000
    endloop
  endfacet
  facet normal -7.071068e-001 7.071068e-001 0.000000e+000
    outer loop
      vertex   1.200000e+001 7.250000e+001 5.950000e+000
      vertex   1.150000e+001 7.200000e+001 8.900000e+000
      vertex   1.250000e+001 7.300000e+001 8.900000e+000
    endloop
  endfacet
  facet normal 8.314708e-001 -5.555685e-001 -7.184155e-007
    outer loop
      vertex   1.855352e+001 6.863469e+001 5.950000e+000
      vertex   1.887868e+001 6.912132e+001 8.900000e+000
      vertex   1.822836e+001 6.814805e+001 8.900000e+000
    endloop
  endfacet
  facet normal 9.807850e-001 -1.950920e-001 2.522769e-007
    outer loop
      vertex   3.921418e+001 6.757402e+001 5.950000e+000
      vertex   3.932836e+001 6.814805e+001 8.900000e+000
      vertex   3.910000e+001 6.700000e+001 8.900000e+000
    endloop
  endfacet
  facet normal 5.555677e-001 -8.314713e-001 0.000000e+000
    outer loop
      vertex   1.936531e+001 6.944648e+001 5.950000e+000
      vertex   1.985195e+001 6.977164e+001 8.900000e+000
      vertex   1.887868e+001 6.912132e+001 8.900000e+000
    endloop
  endfacet
  facet normal 7.071068e-001 7.071068e-001 0.000000e+000
    outer loop
      vertex   5.130000e+001 7.250000e+001 5.950000e+000
      vertex   5.080000e+001 7.300000e+001 8.900000e+000
      vertex   5.180000e+001 7.200000e+001 8.900000e+000
    endloop
  endfacet
  facet normal 5.555677e-001 -8.314713e-001 3.592073e-007
    outer loop
      vertex   4.046532e+001 6.944648e+001 5.950000e+000
      vertex   4.095195e+001 6.977164e+001 8.900000e+000
      vertex   3.997868e+001 6.912132e+001 8.900000e+000
    endloop
  endfacet
  facet normal 1.950920e-001 -9.807850e-001 0.000000e+000
    outer loop
      vertex   4.152597e+001 6.988582e+001 5.950000e+000
      vertex   4.210000e+001 7.000000e+001 8.900000e+000
      vertex   4.095195e+001 6.977164e+001 8.900000e+000
    endloop
  endfacet
  facet normal 8.314708e-001 5.555685e-001 -1.256010e-006
    outer loop
      vertex   3.965352e+001 6.536531e+001 5.950000e+000
      vertex   3.932836e+001 6.585195e+001 8.900000e+000
      vertex   3.997868e+001 6.487868e+001 8.900000e+000
    endloop
  endfacet
  facet normal 0.000000e+000 0.000000e+000 1.000000e+000
    outer loop
      vertex   3.932836e+001 6.585195e+001 8.900000e+000
      vertex   1.250000e+001 7.300000e+001 8.900000e+000
      vertex   3.997868e+001 6.487868e+001 8.900000e+000
    endloop
  endfacet
  facet normal 0.000000e+000 0.000000e+000 1.000000e+000
    outer loop
      vertex   1.887868e+001 6.487868e+001 8.900000e+000
      vertex   1.250000e+001 7.300000e+001 8.900000e+000
      vertex   1.150000e+001 6.000000e+001 8.900000e+000
    endloop
  endfacet
  facet normal 0.000000e+000 0.000000e+000 1.000000e+000
    outer loop
      vertex   1.822836e+001 6.585195e+001 8.900000e+000
      vertex   1.250000e+001 7.300000e+001 8.900000e+000
      vertex   1.887868e+001 6.487868e+001 8.900000e+000
    endloop
  endfacet
  facet normal 0.000000e+000 0.000000e+000 1.000000e+000
    outer loop
      vertex   1.985195e+001 6.422836e+001 8.900000e+000
      vertex   1.887868e+001 6.487868e+001 8.900000e+000
      vertex   1.150000e+001 6.000000e+001 8.900000e+000
    endloop
  endfacet
  facet normal 0.000000e+000 0.000000e+000 1.000000e+000
    outer loop
      vertex   1.800000e+001 6.700000e+001 8.900000e+000
      vertex   1.250000e+001 7.300000e+001 8.900000e+000
      vertex   1.822836e+001 6.585195e+001 8.900000e+000
    endloop
  endfacet
  facet normal 0.000000e+000 0.000000e+000 1.000000e+000
    outer loop
      vertex   2.100000e+001 6.400000e+001 8.900000e+000
      vertex   1.985195e+001 6.422836e+001 8.900000e+000
      vertex   1.150000e+001 6.000000e+001 8.900000e+000
    endloop
  endfacet
  facet normal 0.000000e+000 0.000000e+000 1.000000e+000
    outer loop
      vertex   1.822836e+001 6.814805e+001 8.900000e+000
      vertex   1.250000e+001 7.300000e+001 8.900000e+000
      vertex   1.800000e+001 6.700000e+001 8.900000e+000
    endloop
  endfacet
  facet normal -0.000000e+000 0.000000e+000 1.000000e+000
    outer loop
      vertex   2.214805e+001 6.422836e+001 8.900000e+000
      vertex   2.100000e+001 6.400000e+001 8.900000e+000
      vertex   1.150000e+001 6.000000e+001 8.900000e+000
    endloop
  endfacet
  facet normal 0.000000e+000 0.000000e+000 1.000000e+000
    outer loop
      vertex   1.887868e+001 6.912132e+001 8.900000e+000
      vertex   1.250000e+001 7.300000e+001 8.900000e+000
      vertex   1.822836e+001 6.814805e+001 8.900000e+000
    endloop
  endfacet
  facet normal 0.000000e+000 0.000000e+000 1.000000e+000
    outer loop
      vertex   1.985195e+001 6.977164e+001 8.900000e+000
      vertex   1.250000e+001 7.300000e+001 8.900000e+000
      vertex   1.887868e+001 6.912132e+001 8.900000e+000
    endloop
  endfacet
  facet normal 0.000000e+000 0.000000e+000 1.000000e+000
    outer loop
      vertex   2.100000e+001 7.000000e+001 8.900000e+000
      vertex   1.250000e+001 7.300000e+001 8.900000e+000
      vertex   1.985195e+001 6.977164e+001 8.900000e+000
    endloop
  endfacet
  facet normal 0.000000e+000 0.000000e+000 1.000000e+000
    outer loop
      vertex   2.214805e+001 6.977164e+001 8.900000e+000
      vertex   1.250000e+001 7.300000e+001 8.900000e+000
      vertex   2.100000e+001 7.000000e+001 8.900000e+000
    endloop
  endfacet
  facet normal 0.000000e+000 0.000000e+000 1.000000e+000
    outer loop
      vertex   3.997868e+001 6.487868e+001 8.900000e+000
      vertex   2.214805e+001 6.977164e+001 8.900000e+000
      vertex   2.312132e+001 6.912132e+001 8.900000e+000
    endloop
  endfacet
  facet normal 0.000000e+000 0.000000e+000 1.000000e+000
    outer loop
      vertex   3.997868e+001 6.487868e+001 8.900000e+000
      vertex   1.250000e+001 7.300000e+001 8.900000e+000
      vertex   2.214805e+001 6.977164e+001 8.900000e+000
    endloop
  endfacet
  facet normal 0.000000e+000 0.000000e+000 1.000000e+000
    outer loop
      vertex   3.997868e+001 6.487868e+001 8.900000e+000
      vertex   2.312132e+001 6.912132e+001 8.900000e+000
      vertex   2.377164e+001 6.814805e+001 8.900000e+000
    endloop
  endfacet
  facet normal 0.000000e+000 0.000000e+000 1.000000e+000
    outer loop
      vertex   3.997868e+001 6.487868e+001 8.900000e+000
      vertex   2.377164e+001 6.814805e+001 8.900000e+000
      vertex   2.400000e+001 6.700000e+001 8.900000e+000
    endloop
  endfacet
  facet normal 0.000000e+000 0.000000e+000 1.000000e+000
    outer loop
      vertex   3.997868e+001 6.487868e+001 8.900000e+000
      vertex   2.400000e+001 6.700000e+001 8.900000e+000
      vertex   2.377164e+001 6.585195e+001 8.900000e+000
    endloop
  endfacet
  facet normal 0.000000e+000 0.000000e+000 1.000000e+000
    outer loop
      vertex   3.997868e+001 6.487868e+001 8.900000e+000
      vertex   2.377164e+001 6.585195e+001 8.900000e+000
      vertex   2.312132e+001 6.487868e+001 8.900000e+000
    endloop
  endfacet
  facet normal -0.000000e+000 0.000000e+000 1.000000e+000
    outer loop
      vertex   3.997868e+001 6.487868e+001 8.900000e+000
      vertex   2.312132e+001 6.487868e+001 8.900000e+000
      vertex   2.214805e+001 6.422836e+001 8.900000e+000
    endloop
  endfacet
  facet normal -0.000000e+000 0.000000e+000 1.000000e+000
    outer loop
      vertex   3.997868e+001 6.487868e+001 8.900000e+000
      vertex   2.214805e+001 6.422836e+001 8.900000e+000
      vertex   1.150000e+001 6.000000e+001 8.900000e+000
    endloop
  endfacet
  facet normal -0.000000e+000 0.000000e+000 1.000000e+000
    outer loop
      vertex   1.250000e+001 7.300000e+001 8.900000e+000
      vertex   1.150000e+001 7.200000e+001 8.900000e+000
      vertex   1.150000e+001 6.000000e+001 8.900000e+000
    endloop
  endfacet
  facet normal 0.000000e+000 0.000000e+000 1.000000e+000
    outer loop
      vertex   4.095195e+001 6.422836e+001 8.900000e+000
      vertex   3.997868e+001 6.487868e+001 8.900000e+000
      vertex   1.150000e+001 6.000000e+001 8.900000e+000
    endloop
  endfacet
  facet normal 0.000000e+000 0.000000e+000 1.000000e+000
    outer loop
      vertex   3.910000e+001 6.700000e+001 8.900000e+000
      vertex   1.250000e+001 7.300000e+001 8.900000e+000
      vertex   3.932836e+001 6.585195e+001 8.900000e+000
    endloop
  endfacet
  facet normal 0.000000e+000 0.000000e+000 1.000000e+000
    outer loop
      vertex   4.210000e+001 6.400000e+001 8.900000e+000
      vertex   4.095195e+001 6.422836e+001 8.900000e+000
      vertex   1.150000e+001 6.000000e+001 8.900000e+000
    endloop
  endfacet
  facet normal 0.000000e+000 0.000000e+000 1.000000e+000
    outer loop
      vertex   3.932836e+001 6.814805e+001 8.900000e+000
      vertex   1.250000e+001 7.300000e+001 8.900000e+000
      vertex   3.910000e+001 6.700000e+001 8.900000e+000
    endloop
  endfacet
  facet normal 0.000000e+000 0.000000e+000 1.000000e+000
    outer loop
      vertex   3.997868e+001 6.912132e+001 8.900000e+000
      vertex   1.250000e+001 7.300000e+001 8.900000e+000
      vertex   3.932836e+001 6.814805e+001 8.900000e+000
    endloop
  endfacet
  facet normal 0.000000e+000 0.000000e+000 1.000000e+000
    outer loop
      vertex   4.095195e+001 6.977164e+001 8.900000e+000
      vertex   1.250000e+001 7.300000e+001 8.900000e+000
      vertex   3.997868e+001 6.912132e+001 8.900000e+000
    endloop
  endfacet
  facet normal 0.000000e+000 0.000000e+000 1.000000e+000
    outer loop
      vertex   4.210000e+001 7.000000e+001 8.900000e+000
      vertex   1.250000e+001 7.300000e+001 8.900000e+000
      vertex   4.095195e+001 6.977164e+001 8.900000e+000
    endloop
  endfacet
  facet normal 0.000000e+000 0.000000e+000 1.000000e+000
    outer loop
      vertex   5.180000e+001 6.000000e+001 8.900000e+000
      vertex   4.422132e+001 6.912132e+001 8.900000e+000
      vertex   4.487164e+001 6.814805e+001 8.900000e+000
    endloop
  endfacet
  facet normal 0.000000e+000 0.000000e+000 1.000000e+000
    outer loop
      vertex   5.180000e+001 6.000000e+001 8.900000e+000
      vertex   4.487164e+001 6.814805e+001 8.900000e+000
      vertex   4.510000e+001 6.700000e+001 8.900000e+000
    endloop
  endfacet
  facet normal 0.000000e+000 0.000000e+000 1.000000e+000
    outer loop
      vertex   5.180000e+001 6.000000e+001 8.900000e+000
      vertex   4.510000e+001 6.700000e+001 8.900000e+000
      vertex   4.487164e+001 6.585195e+001 8.900000e+000
    endloop
  endfacet
  facet normal 0.000000e+000 0.000000e+000 1.000000e+000
    outer loop
      vertex   5.180000e+001 6.000000e+001 8.900000e+000
      vertex   4.487164e+001 6.585195e+001 8.900000e+000
      vertex   4.422132e+001 6.487868e+001 8.900000e+000
    endloop
  endfacet
  facet normal 0.000000e+000 0.000000e+000 1.000000e+000
    outer loop
      vertex   5.180000e+001 6.000000e+001 8.900000e+000
      vertex   4.422132e+001 6.487868e+001 8.900000e+000
      vertex   4.324805e+001 6.422836e+001 8.900000e+000
    endloop
  endfacet
  facet normal 0.000000e+000 0.000000e+000 1.000000e+000
    outer loop
      vertex   5.180000e+001 6.000000e+001 8.900000e+000
      vertex   4.324805e+001 6.422836e+001 8.900000e+000
      vertex   4.210000e+001 6.400000e+001 8.900000e+000
    endloop
  endfacet
  facet normal 0.000000e+000 0.000000e+000 1.000000e+000
    outer loop
      vertex   5.180000e+001 6.000000e+001 8.900000e+000
      vertex   4.210000e+001 6.400000e+001 8.900000e+000
      vertex   1.150000e+001 6.000000e+001 8.900000e+000
    endloop
  endfacet
  facet normal -0.000000e+000 0.000000e+000 1.000000e+000
    outer loop
      vertex   5.080000e+001 7.300000e+001 8.900000e+000
      vertex   4.422132e+001 6.912132e+001 8.900000e+000
      vertex   5.180000e+001 6.000000e+001 8.900000e+000
    endloop
  endfacet
  facet normal -0.000000e+000 0.000000e+000 1.000000e+000
    outer loop
      vertex   5.080000e+001 7.300000e+001 8.900000e+000
      vertex   4.324805e+001 6.977164e+001 8.900000e+000
      vertex   4.422132e+001 6.912132e+001 8.900000e+000
    endloop
  endfacet
  facet normal -0.000000e+000 0.000000e+000 1.000000e+000
    outer loop
      vertex   5.080000e+001 7.300000e+001 8.900000e+000
      vertex   4.210000e+001 7.000000e+001 8.900000e+000
      vertex   4.324805e+001 6.977164e+001 8.900000e+000
    endloop
  endfacet
  facet normal -0.000000e+000 0.000000e+000 1.000000e+000
    outer loop
      vertex   5.080000e+001 7.300000e+001 8.900000e+000
      vertex   1.250000e+001 7.300000e+001 8.900000e+000
      vertex   4.210000e+001 7.000000e+001 8.900000e+000
    endloop
  endfacet
  facet normal 0.000000e+000 0.000000e+000 1.000000e+000
    outer loop
      vertex   5.180000e+001 7.200000e+001 8.900000e+000
      vertex   5.080000e+001 7.300000e+001 8.900000e+000
      vertex   5.180000e+001 6.000000e+001 8.900000e+000
    endloop
  endfacet
endsolid
